<?xml version="1.0" encoding="UTF-8" standalone="no"?>
<!DOCTYPE svg PUBLIC "-//W3C//DTD SVG 1.1//EN"
 "http://www.w3.org/Graphics/SVG/1.1/DTD/svg11.dtd">
<!-- Generated by graphviz version 2.43.0 (0)
 -->
<!-- Title: G Pages: 1 -->
<svg width="360pt" height="246pt"
 viewBox="0.00 0.00 360.00 246.36" xmlns="http://www.w3.org/2000/svg" xmlns:xlink="http://www.w3.org/1999/xlink">
<g id="graph0" class="graph" transform="scale(0.95 0.95) rotate(0) translate(4 256)">
<title>G</title>
<!-- gradient_boosting -->
<g id="node1" class="node">
<title>gradient_boosting</title>
<g id="a_node1"><a xlink:title="(2) gradient_boosting">
<ellipse fill="#404040" stroke="#4a4a4a" cx="297.84" cy="-90" rx="74.19" ry="18"/>
<text text-anchor="middle" x="297.84" y="-86.3" font-family="Times,serif" font-size="14.00" fill="white">gradient_boosting</text>
</a>
</g>
</g>
<!-- extra_trees -->
<g id="node2" class="node">
<title>extra_trees</title>
<g id="a_node2"><a xlink:title="(1) extra_trees">
<ellipse fill="#404040" stroke="#4a4a4a" cx="246.84" cy="-18" rx="49.29" ry="18"/>
<text text-anchor="middle" x="246.84" y="-14.3" font-family="Times,serif" font-size="14.00" fill="white">extra_trees</text>
</a>
</g>
</g>
<!-- gradient_boosting&#45;&gt;extra_trees -->
<g id="edge3" class="edge">
<title>gradient_boosting&#45;&gt;extra_trees</title>
<g id="a_edge3"><a xlink:title="2 → 1">
<path fill="none" stroke="#4a4a4a" d="M285.5,-72.05C279.36,-63.63 271.82,-53.28 265.03,-43.97"/>
<polygon fill="#4a4a4a" stroke="#4a4a4a" points="267.79,-41.81 259.07,-35.79 262.13,-45.93 267.79,-41.81"/>
</a>
</g>
</g>
<!-- robust_scaler -->
<g id="node3" class="node">
<title>robust_scaler</title>
<g id="a_node3"><a xlink:title="(3) robust_scaler">
<ellipse fill="#404040" stroke="#4a4a4a" cx="298.84" cy="-162" rx="57.69" ry="18"/>
<text text-anchor="middle" x="298.84" y="-158.3" font-family="Times,serif" font-size="14.00" fill="white">robust_scaler</text>
</a>
</g>
</g>
<!-- robust_scaler&#45;&gt;gradient_boosting -->
<g id="edge8" class="edge">
<title>robust_scaler&#45;&gt;gradient_boosting</title>
<g id="a_edge8"><a xlink:title="3 → 2">
<path fill="none" stroke="#4a4a4a" d="M298.6,-143.7C298.49,-135.98 298.35,-126.71 298.23,-118.11"/>
<polygon fill="#4a4a4a" stroke="#4a4a4a" points="301.73,-118.05 298.09,-108.1 294.73,-118.15 301.73,-118.05"/>
</a>
</g>
</g>
<!-- nu_svm -->
<g id="node4" class="node">
<title>nu_svm</title>
<g id="a_node4"><a xlink:title="(5) nu_svm">
<ellipse fill="#404040" stroke="#4a4a4a" cx="83.84" cy="-162" rx="38.99" ry="18"/>
<text text-anchor="middle" x="83.84" y="-158.3" font-family="Times,serif" font-size="14.00" fill="white">nu_svm</text>
</a>
</g>
</g>
<!-- no_feature_selection -->
<g id="node6" class="node">
<title>no_feature_selection</title>
<g id="a_node6"><a xlink:title="(4) no_feature_selection">
<ellipse fill="#404040" stroke="#4a4a4a" cx="83.84" cy="-90" rx="83.69" ry="18"/>
<text text-anchor="middle" x="83.84" y="-86.3" font-family="Times,serif" font-size="14.00" fill="white">no_feature_selection</text>
</a>
</g>
</g>
<!-- nu_svm&#45;&gt;no_feature_selection -->
<g id="edge4" class="edge">
<title>nu_svm&#45;&gt;no_feature_selection</title>
<g id="a_edge4"><a xlink:title="5 → 4">
<path fill="none" stroke="#4a4a4a" d="M83.84,-143.7C83.84,-135.98 83.84,-126.71 83.84,-118.11"/>
<polygon fill="#4a4a4a" stroke="#4a4a4a" points="87.34,-118.1 83.84,-108.1 80.34,-118.1 87.34,-118.1"/>
</a>
</g>
</g>
<!-- neural_networks -->
<g id="node5" class="node">
<title>neural_networks</title>
<g id="a_node5"><a xlink:title="(7) neural_networks">
<ellipse fill="#404040" stroke="#4a4a4a" cx="118.84" cy="-234" rx="69.59" ry="18"/>
<text text-anchor="middle" x="118.84" y="-230.3" font-family="Times,serif" font-size="14.00" fill="white">neural_networks</text>
</a>
</g>
</g>
<!-- class -->
<g id="node8" class="node">
<title>class</title>
<g id="a_node8"><a xlink:title="(0) class">
<ellipse fill="#404040" stroke="#4a4a4a" cx="194.84" cy="-162" rx="27.9" ry="18"/>
<text text-anchor="middle" x="194.84" y="-158.3" font-family="Times,serif" font-size="14.00" fill="white">class</text>
</a>
</g>
</g>
<!-- neural_networks&#45;&gt;class -->
<g id="edge5" class="edge">
<title>neural_networks&#45;&gt;class</title>
<g id="a_edge5"><a xlink:title="7 → 0">
<path fill="none" stroke="#4a4a4a" d="M136.85,-216.41C147.41,-206.69 160.84,-194.31 172.12,-183.93"/>
<polygon fill="#4a4a4a" stroke="#4a4a4a" points="174.54,-186.46 179.53,-177.11 169.8,-181.31 174.54,-186.46"/>
</a>
</g>
</g>
<!-- standard_scaler -->
<g id="node7" class="node">
<title>standard_scaler</title>
<g id="a_node7"><a xlink:title="(6) standard_scaler">
<ellipse fill="#404040" stroke="#4a4a4a" cx="271.84" cy="-234" rx="65.79" ry="18"/>
<text text-anchor="middle" x="271.84" y="-230.3" font-family="Times,serif" font-size="14.00" fill="white">standard_scaler</text>
</a>
</g>
</g>
<!-- standard_scaler&#45;&gt;class -->
<g id="edge7" class="edge">
<title>standard_scaler&#45;&gt;class</title>
<g id="a_edge7"><a xlink:title="6 → 0">
<path fill="none" stroke="#4a4a4a" d="M253.59,-216.41C242.9,-206.69 229.29,-194.31 217.86,-183.93"/>
<polygon fill="#4a4a4a" stroke="#4a4a4a" points="220.11,-181.24 210.36,-177.11 215.41,-186.42 220.11,-181.24"/>
</a>
</g>
</g>
<!-- class&#45;&gt;gradient_boosting -->
<g id="edge6" class="edge">
<title>class&#45;&gt;gradient_boosting</title>
<g id="a_edge6"><a xlink:title="0 → 2">
<path fill="none" stroke="#4a4a4a" d="M213.73,-148.16C228.18,-138.35 248.43,-124.58 265.44,-113.02"/>
<polygon fill="#4a4a4a" stroke="#4a4a4a" points="267.69,-115.72 273.99,-107.21 263.76,-109.93 267.69,-115.72"/>
</a>
</g>
</g>
<!-- class&#45;&gt;extra_trees -->
<g id="edge1" class="edge">
<title>class&#45;&gt;extra_trees</title>
<g id="a_edge1"><a xlink:title="0 → 1">
<path fill="none" stroke="#4a4a4a" d="M197.03,-143.78C199.74,-125.48 205.22,-95.95 214.84,-72 218.61,-62.63 223.93,-52.99 229.14,-44.55"/>
<polygon fill="#4a4a4a" stroke="#4a4a4a" points="232.22,-46.23 234.69,-35.93 226.34,-42.44 232.22,-46.23"/>
</a>
</g>
</g>
<!-- class&#45;&gt;no_feature_selection -->
<g id="edge2" class="edge">
<title>class&#45;&gt;no_feature_selection</title>
<g id="a_edge2"><a xlink:title="0 → 4">
<path fill="none" stroke="#4a4a4a" d="M175.51,-148.81C159.74,-138.87 137.08,-124.57 118.24,-112.69"/>
<polygon fill="#4a4a4a" stroke="#4a4a4a" points="119.94,-109.63 109.61,-107.25 116.2,-115.55 119.94,-109.63"/>
</a>
</g>
</g>
</g>
</svg>
