<?xml version="1.0" encoding="UTF-8" standalone="no"?>
<!DOCTYPE svg PUBLIC "-//W3C//DTD SVG 1.1//EN"
 "http://www.w3.org/Graphics/SVG/1.1/DTD/svg11.dtd">
<!-- Generated by graphviz version 2.43.0 (0)
 -->
<!-- Title: G Pages: 1 -->
<svg width="360pt" height="199pt"
 viewBox="0.00 0.00 360.00 199.23" xmlns="http://www.w3.org/2000/svg" xmlns:xlink="http://www.w3.org/1999/xlink">
<g id="graph0" class="graph" transform="scale(0.77 0.77) rotate(0) translate(4 256)">
<title>G</title>
<!-- svm -->
<g id="node1" class="node">
<title>svm</title>
<g id="a_node1"><a xlink:title="(4) svm">
<ellipse fill="#404040" stroke="#4a4a4a" cx="47.96" cy="-90" rx="27" ry="18"/>
<text text-anchor="middle" x="47.96" y="-86.3" font-family="Times,serif" font-size="14.00" fill="white">svm</text>
</a>
</g>
</g>
<!-- gradient_boosting -->
<g id="node2" class="node">
<title>gradient_boosting</title>
<g id="a_node2"><a xlink:title="(5) gradient_boosting">
<ellipse fill="#404040" stroke="#4a4a4a" cx="286.96" cy="-18" rx="74.19" ry="18"/>
<text text-anchor="middle" x="286.96" y="-14.3" font-family="Times,serif" font-size="14.00" fill="white">gradient_boosting</text>
</a>
</g>
</g>
<!-- extra_trees -->
<g id="node3" class="node">
<title>extra_trees</title>
<g id="a_node3"><a xlink:title="(1) extra_trees">
<ellipse fill="#404040" stroke="#4a4a4a" cx="363.96" cy="-90" rx="49.29" ry="18"/>
<text text-anchor="middle" x="363.96" y="-86.3" font-family="Times,serif" font-size="14.00" fill="white">extra_trees</text>
</a>
</g>
</g>
<!-- extra_trees&#45;&gt;gradient_boosting -->
<g id="edge5" class="edge">
<title>extra_trees&#45;&gt;gradient_boosting</title>
<g id="a_edge5"><a xlink:title="1 → 5">
<path fill="none" stroke="#4a4a4a" d="M346.49,-73.12C336.56,-64.09 323.95,-52.62 312.89,-42.57"/>
<polygon fill="#4a4a4a" stroke="#4a4a4a" points="314.92,-39.69 305.17,-35.55 310.21,-44.87 314.92,-39.69"/>
</a>
</g>
</g>
<!-- select_rfe -->
<g id="node4" class="node">
<title>select_rfe</title>
<g id="a_node4"><a xlink:title="(6) select_rfe">
<ellipse fill="#404040" stroke="#4a4a4a" cx="230.96" cy="-234" rx="44.69" ry="18"/>
<text text-anchor="middle" x="230.96" y="-230.3" font-family="Times,serif" font-size="14.00" fill="white">select_rfe</text>
</a>
</g>
</g>
<!-- class -->
<g id="node8" class="node">
<title>class</title>
<g id="a_node8"><a xlink:title="(0) class">
<ellipse fill="#404040" stroke="#4a4a4a" cx="230.96" cy="-162" rx="27.9" ry="18"/>
<text text-anchor="middle" x="230.96" y="-158.3" font-family="Times,serif" font-size="14.00" fill="white">class</text>
</a>
</g>
</g>
<!-- select_rfe&#45;&gt;class -->
<g id="edge11" class="edge">
<title>select_rfe&#45;&gt;class</title>
<g id="a_edge11"><a xlink:title="6 → 0">
<path fill="none" stroke="#4a4a4a" d="M230.96,-215.7C230.96,-207.98 230.96,-198.71 230.96,-190.11"/>
<polygon fill="#4a4a4a" stroke="#4a4a4a" points="234.46,-190.1 230.96,-180.1 227.46,-190.1 234.46,-190.1"/>
</a>
</g>
</g>
<!-- General_Descriptors -->
<g id="node5" class="node">
<title>General_Descriptors</title>
<g id="a_node5"><a xlink:title="(3) General_Descriptors">
<ellipse fill="#404040" stroke="#4a4a4a" cx="175.96" cy="-90" rx="83.39" ry="18"/>
<text text-anchor="middle" x="175.96" y="-86.3" font-family="Times,serif" font-size="14.00" fill="white">General_Descriptors</text>
</a>
</g>
</g>
<!-- neural_networks -->
<g id="node6" class="node">
<title>neural_networks</title>
<g id="a_node6"><a xlink:title="(2) neural_networks">
<ellipse fill="#404040" stroke="#4a4a4a" cx="98.96" cy="-234" rx="69.59" ry="18"/>
<text text-anchor="middle" x="98.96" y="-230.3" font-family="Times,serif" font-size="14.00" fill="white">neural_networks</text>
</a>
</g>
</g>
<!-- neural_networks&#45;&gt;svm -->
<g id="edge2" class="edge">
<title>neural_networks&#45;&gt;svm</title>
<g id="a_edge2"><a xlink:title="2 → 4">
<path fill="none" stroke="#4a4a4a" d="M92.81,-215.87C83.99,-191.33 67.69,-145.94 57.36,-117.17"/>
<polygon fill="#4a4a4a" stroke="#4a4a4a" points="60.65,-115.98 53.98,-107.75 54.06,-118.34 60.65,-115.98"/>
</a>
</g>
</g>
<!-- neural_networks&#45;&gt;gradient_boosting -->
<g id="edge12" class="edge">
<title>neural_networks&#45;&gt;gradient_boosting</title>
<g id="a_edge12"><a xlink:title="2 → 5">
<path fill="none" stroke="#4a4a4a" d="M78.08,-216.66C41.48,-186.08 -26.88,-119.04 11.96,-72 36.17,-42.68 133.43,-29.4 205.46,-23.51"/>
<polygon fill="#4a4a4a" stroke="#4a4a4a" points="205.75,-27 215.44,-22.73 205.2,-20.02 205.75,-27"/>
</a>
</g>
</g>
<!-- neural_networks&#45;&gt;extra_trees -->
<g id="edge4" class="edge">
<title>neural_networks&#45;&gt;extra_trees</title>
<g id="a_edge4"><a xlink:title="2 → 1">
<path fill="none" stroke="#4a4a4a" d="M146.27,-220.68C188.62,-209.19 247.15,-192.08 267.96,-180 297.64,-162.78 325.7,-134.92 343.73,-114.96"/>
<polygon fill="#4a4a4a" stroke="#4a4a4a" points="346.35,-117.28 350.36,-107.47 341.11,-112.64 346.35,-117.28"/>
</a>
</g>
</g>
<!-- neural_networks&#45;&gt;General_Descriptors -->
<g id="edge9" class="edge">
<title>neural_networks&#45;&gt;General_Descriptors</title>
<g id="a_edge9"><a xlink:title="2 → 3">
<path fill="none" stroke="#4a4a4a" d="M108.1,-216.15C121.34,-191.73 145.99,-146.26 161.66,-117.38"/>
<polygon fill="#4a4a4a" stroke="#4a4a4a" points="164.91,-118.73 166.6,-108.27 158.75,-115.39 164.91,-118.73"/>
</a>
</g>
</g>
<!-- neural_networks&#45;&gt;class -->
<g id="edge8" class="edge">
<title>neural_networks&#45;&gt;class</title>
<g id="a_edge8"><a xlink:title="2 → 0">
<path fill="none" stroke="#4a4a4a" d="M128.26,-217.46C149.82,-206.03 179.06,-190.52 200.83,-178.98"/>
<polygon fill="#4a4a4a" stroke="#4a4a4a" points="202.75,-181.92 209.95,-174.14 199.47,-175.74 202.75,-181.92"/>
</a>
</g>
</g>
<!-- no_feature_selection -->
<g id="node7" class="node">
<title>no_feature_selection</title>
<g id="a_node7"><a xlink:title="(7) no_feature_selection">
<ellipse fill="#404040" stroke="#4a4a4a" cx="377.96" cy="-234" rx="83.69" ry="18"/>
<text text-anchor="middle" x="377.96" y="-230.3" font-family="Times,serif" font-size="14.00" fill="white">no_feature_selection</text>
</a>
</g>
</g>
<!-- no_feature_selection&#45;&gt;class -->
<g id="edge7" class="edge">
<title>no_feature_selection&#45;&gt;class</title>
<g id="a_edge7"><a xlink:title="7 → 0">
<path fill="none" stroke="#4a4a4a" d="M344.97,-217.29C320.16,-205.48 286.39,-189.4 262.06,-177.81"/>
<polygon fill="#4a4a4a" stroke="#4a4a4a" points="263.44,-174.59 252.91,-173.45 260.43,-180.91 263.44,-174.59"/>
</a>
</g>
</g>
<!-- class&#45;&gt;svm -->
<g id="edge3" class="edge">
<title>class&#45;&gt;svm</title>
<g id="a_edge3"><a xlink:title="0 → 4">
<path fill="none" stroke="#4a4a4a" d="M206.5,-152.98C177.1,-143.15 126.43,-125.64 83.96,-108 82.14,-107.24 80.28,-106.45 78.41,-105.62"/>
<polygon fill="#4a4a4a" stroke="#4a4a4a" points="79.68,-102.36 69.13,-101.41 76.79,-108.73 79.68,-102.36"/>
</a>
</g>
</g>
<!-- class&#45;&gt;gradient_boosting -->
<g id="edge10" class="edge">
<title>class&#45;&gt;gradient_boosting</title>
<g id="a_edge10"><a xlink:title="0 → 5">
<path fill="none" stroke="#4a4a4a" d="M244.08,-145.76C252.11,-135.67 261.97,-121.79 267.96,-108 276.55,-88.23 281.38,-64.25 284.02,-46.16"/>
<polygon fill="#4a4a4a" stroke="#4a4a4a" points="287.52,-46.39 285.36,-36.01 280.58,-45.47 287.52,-46.39"/>
</a>
</g>
</g>
<!-- class&#45;&gt;extra_trees -->
<g id="edge1" class="edge">
<title>class&#45;&gt;extra_trees</title>
<g id="a_edge1"><a xlink:title="0 → 1">
<path fill="none" stroke="#4a4a4a" d="M252.03,-149.91C272.43,-139.17 303.74,-122.69 328.07,-109.89"/>
<polygon fill="#4a4a4a" stroke="#4a4a4a" points="329.79,-112.94 337.01,-105.18 326.53,-106.74 329.79,-112.94"/>
</a>
</g>
</g>
<!-- class&#45;&gt;General_Descriptors -->
<g id="edge6" class="edge">
<title>class&#45;&gt;General_Descriptors</title>
<g id="a_edge6"><a xlink:title="0 → 3">
<path fill="none" stroke="#4a4a4a" d="M218.75,-145.46C211.93,-136.78 203.26,-125.75 195.52,-115.89"/>
<polygon fill="#4a4a4a" stroke="#4a4a4a" points="198.22,-113.66 189.29,-107.96 192.71,-117.99 198.22,-113.66"/>
</a>
</g>
</g>
</g>
</svg>
