<?xml version="1.0" encoding="UTF-8" standalone="no"?>
<!DOCTYPE svg PUBLIC "-//W3C//DTD SVG 1.1//EN"
 "http://www.w3.org/Graphics/SVG/1.1/DTD/svg11.dtd">
<!-- Generated by graphviz version 2.43.0 (0)
 -->
<!-- Title: G Pages: 1 -->
<svg width="360pt" height="168pt"
 viewBox="0.00 0.00 360.00 167.69" xmlns="http://www.w3.org/2000/svg" xmlns:xlink="http://www.w3.org/1999/xlink">
<g id="graph0" class="graph" transform="scale(0.64 0.64) rotate(0) translate(4 256)">
<title>G</title>
<!-- gradient_boosting -->
<g id="node1" class="node">
<title>gradient_boosting</title>
<g id="a_node1"><a xlink:title="(7) gradient_boosting">
<ellipse fill="#404040" stroke="#4a4a4a" cx="145.54" cy="-18" rx="74.19" ry="18"/>
<text text-anchor="middle" x="145.54" y="-14.3" font-family="Times,serif" font-size="14.00" fill="white">gradient_boosting</text>
</a>
</g>
</g>
<!-- extra_trees -->
<g id="node2" class="node">
<title>extra_trees</title>
<g id="a_node2"><a xlink:title="(1) extra_trees">
<ellipse fill="#404040" stroke="#4a4a4a" cx="145.54" cy="-90" rx="49.29" ry="18"/>
<text text-anchor="middle" x="145.54" y="-86.3" font-family="Times,serif" font-size="14.00" fill="white">extra_trees</text>
</a>
</g>
</g>
<!-- extra_trees&#45;&gt;gradient_boosting -->
<g id="edge11" class="edge">
<title>extra_trees&#45;&gt;gradient_boosting</title>
<g id="a_edge11"><a xlink:title="1 → 7">
<path fill="none" stroke="#4a4a4a" d="M145.54,-71.7C145.54,-63.98 145.54,-54.71 145.54,-46.11"/>
<polygon fill="#4a4a4a" stroke="#4a4a4a" points="149.04,-46.1 145.54,-36.1 142.04,-46.1 149.04,-46.1"/>
</a>
</g>
</g>
<!-- extra_tree -->
<g id="node3" class="node">
<title>extra_tree</title>
<g id="a_node3"><a xlink:title="(4) extra_tree">
<ellipse fill="#404040" stroke="#4a4a4a" cx="333.54" cy="-162" rx="46.29" ry="18"/>
<text text-anchor="middle" x="333.54" y="-158.3" font-family="Times,serif" font-size="14.00" fill="white">extra_tree</text>
</a>
</g>
</g>
<!-- General_Descriptors -->
<g id="node5" class="node">
<title>General_Descriptors</title>
<g id="a_node5"><a xlink:title="(3) General_Descriptors">
<ellipse fill="#404040" stroke="#4a4a4a" cx="333.54" cy="-90" rx="83.39" ry="18"/>
<text text-anchor="middle" x="333.54" y="-86.3" font-family="Times,serif" font-size="14.00" fill="white">General_Descriptors</text>
</a>
</g>
</g>
<!-- extra_tree&#45;&gt;General_Descriptors -->
<g id="edge6" class="edge">
<title>extra_tree&#45;&gt;General_Descriptors</title>
<g id="a_edge6"><a xlink:title="4 → 3">
<path fill="none" stroke="#4a4a4a" d="M333.54,-143.7C333.54,-135.98 333.54,-126.71 333.54,-118.11"/>
<polygon fill="#4a4a4a" stroke="#4a4a4a" points="337.04,-118.1 333.54,-108.1 330.04,-118.1 337.04,-118.1"/>
</a>
</g>
</g>
<!-- select_rfe -->
<g id="node4" class="node">
<title>select_rfe</title>
<g id="a_node4"><a xlink:title="(8) select_rfe">
<ellipse fill="#404040" stroke="#4a4a4a" cx="387.54" cy="-234" rx="44.69" ry="18"/>
<text text-anchor="middle" x="387.54" y="-230.3" font-family="Times,serif" font-size="14.00" fill="white">select_rfe</text>
</a>
</g>
</g>
<!-- class -->
<g id="node10" class="node">
<title>class</title>
<g id="a_node10"><a xlink:title="(0) class">
<ellipse fill="#404040" stroke="#4a4a4a" cx="240.54" cy="-162" rx="27.9" ry="18"/>
<text text-anchor="middle" x="240.54" y="-158.3" font-family="Times,serif" font-size="14.00" fill="white">class</text>
</a>
</g>
</g>
<!-- select_rfe&#45;&gt;class -->
<g id="edge10" class="edge">
<title>select_rfe&#45;&gt;class</title>
<g id="a_edge10"><a xlink:title="8 → 0">
<path fill="none" stroke="#4a4a4a" d="M359.55,-219.67C334.47,-207.73 297.74,-190.24 271.74,-177.85"/>
<polygon fill="#4a4a4a" stroke="#4a4a4a" points="273.21,-174.68 262.68,-173.54 270.2,-181 273.21,-174.68"/>
</a>
</g>
</g>
<!-- normalizer -->
<g id="node6" class="node">
<title>normalizer</title>
<g id="a_node6"><a xlink:title="(5) normalizer">
<ellipse fill="#404040" stroke="#4a4a4a" cx="484.54" cy="-90" rx="49.29" ry="18"/>
<text text-anchor="middle" x="484.54" y="-86.3" font-family="Times,serif" font-size="14.00" fill="white">normalizer</text>
</a>
</g>
</g>
<!-- neural_networks -->
<g id="node7" class="node">
<title>neural_networks</title>
<g id="a_node7"><a xlink:title="(2) neural_networks">
<ellipse fill="#404040" stroke="#4a4a4a" cx="69.54" cy="-234" rx="69.59" ry="18"/>
<text text-anchor="middle" x="69.54" y="-230.3" font-family="Times,serif" font-size="14.00" fill="white">neural_networks</text>
</a>
</g>
</g>
<!-- neural_networks&#45;&gt;gradient_boosting -->
<g id="edge7" class="edge">
<title>neural_networks&#45;&gt;gradient_boosting</title>
<g id="a_edge7"><a xlink:title="2 → 7">
<path fill="none" stroke="#4a4a4a" d="M67.68,-215.91C65.13,-185.24 63.3,-119.62 87.54,-72 93.5,-60.3 103.18,-49.9 112.94,-41.49"/>
<polygon fill="#4a4a4a" stroke="#4a4a4a" points="115.16,-44.19 120.71,-35.17 110.74,-38.76 115.16,-44.19"/>
</a>
</g>
</g>
<!-- neural_networks&#45;&gt;extra_trees -->
<g id="edge4" class="edge">
<title>neural_networks&#45;&gt;extra_trees</title>
<g id="a_edge4"><a xlink:title="2 → 1">
<path fill="none" stroke="#4a4a4a" d="M78.71,-215.87C91.91,-191.22 116.35,-145.54 131.74,-116.79"/>
<polygon fill="#4a4a4a" stroke="#4a4a4a" points="134.95,-118.22 136.58,-107.75 128.78,-114.91 134.95,-118.22"/>
</a>
</g>
</g>
<!-- neural_networks&#45;&gt;class -->
<g id="edge9" class="edge">
<title>neural_networks&#45;&gt;class</title>
<g id="a_edge9"><a xlink:title="2 → 0">
<path fill="none" stroke="#4a4a4a" d="M104.98,-218.5C135.21,-206.12 178.34,-188.46 207.78,-176.41"/>
<polygon fill="#4a4a4a" stroke="#4a4a4a" points="209.28,-179.58 217.2,-172.55 206.62,-173.1 209.28,-179.58"/>
</a>
</g>
</g>
<!-- no_feature_selection -->
<g id="node8" class="node">
<title>no_feature_selection</title>
<g id="a_node8"><a xlink:title="(9) no_feature_selection">
<ellipse fill="#404040" stroke="#4a4a4a" cx="240.54" cy="-234" rx="83.69" ry="18"/>
<text text-anchor="middle" x="240.54" y="-230.3" font-family="Times,serif" font-size="14.00" fill="white">no_feature_selection</text>
</a>
</g>
</g>
<!-- no_feature_selection&#45;&gt;class -->
<g id="edge3" class="edge">
<title>no_feature_selection&#45;&gt;class</title>
<g id="a_edge3"><a xlink:title="9 → 0">
<path fill="none" stroke="#4a4a4a" d="M240.54,-215.7C240.54,-207.98 240.54,-198.71 240.54,-190.11"/>
<polygon fill="#4a4a4a" stroke="#4a4a4a" points="244.04,-190.1 240.54,-180.1 237.04,-190.1 244.04,-190.1"/>
</a>
</g>
</g>
<!-- standard_scaler -->
<g id="node9" class="node">
<title>standard_scaler</title>
<g id="a_node9"><a xlink:title="(6) standard_scaler">
<ellipse fill="#404040" stroke="#4a4a4a" cx="484.54" cy="-162" rx="65.79" ry="18"/>
<text text-anchor="middle" x="484.54" y="-158.3" font-family="Times,serif" font-size="14.00" fill="white">standard_scaler</text>
</a>
</g>
</g>
<!-- standard_scaler&#45;&gt;normalizer -->
<g id="edge5" class="edge">
<title>standard_scaler&#45;&gt;normalizer</title>
<g id="a_edge5"><a xlink:title="6 → 5">
<path fill="none" stroke="#4a4a4a" d="M484.54,-143.7C484.54,-135.98 484.54,-126.71 484.54,-118.11"/>
<polygon fill="#4a4a4a" stroke="#4a4a4a" points="488.04,-118.1 484.54,-108.1 481.04,-118.1 488.04,-118.1"/>
</a>
</g>
</g>
<!-- class&#45;&gt;gradient_boosting -->
<g id="edge2" class="edge">
<title>class&#45;&gt;gradient_boosting</title>
<g id="a_edge2"><a xlink:title="0 → 7">
<path fill="none" stroke="#4a4a4a" d="M235.96,-144.16C230.33,-125.41 219.51,-94.73 203.54,-72 195.75,-60.9 185.26,-50.43 175.35,-41.77"/>
<polygon fill="#4a4a4a" stroke="#4a4a4a" points="177.49,-39 167.58,-35.24 172.98,-44.36 177.49,-39"/>
</a>
</g>
</g>
<!-- class&#45;&gt;extra_trees -->
<g id="edge1" class="edge">
<title>class&#45;&gt;extra_trees</title>
<g id="a_edge1"><a xlink:title="0 → 1">
<path fill="none" stroke="#4a4a4a" d="M222.68,-147.83C209.25,-137.94 190.57,-124.18 174.96,-112.67"/>
<polygon fill="#4a4a4a" stroke="#4a4a4a" points="176.78,-109.67 166.65,-106.55 172.62,-115.3 176.78,-109.67"/>
</a>
</g>
</g>
<!-- class&#45;&gt;General_Descriptors -->
<g id="edge8" class="edge">
<title>class&#45;&gt;General_Descriptors</title>
<g id="a_edge8"><a xlink:title="0 → 3">
<path fill="none" stroke="#4a4a4a" d="M258.04,-147.83C270.82,-138.21 288.48,-124.92 303.5,-113.61"/>
<polygon fill="#4a4a4a" stroke="#4a4a4a" points="305.65,-116.38 311.53,-107.57 301.44,-110.78 305.65,-116.38"/>
</a>
</g>
</g>
<!-- class&#45;&gt;normalizer -->
<g id="edge12" class="edge">
<title>class&#45;&gt;normalizer</title>
<g id="a_edge12"><a xlink:title="0 → 5">
<path fill="none" stroke="#4a4a4a" d="M262.38,-150.43C267.6,-148.12 273.21,-145.83 278.54,-144 342.17,-122.18 360.55,-125.32 425.54,-108 429.54,-106.93 433.68,-105.8 437.83,-104.65"/>
<polygon fill="#4a4a4a" stroke="#4a4a4a" points="438.79,-108.01 447.47,-101.93 436.89,-101.27 438.79,-108.01"/>
</a>
</g>
</g>
</g>
</svg>
