<?xml version="1.0" encoding="UTF-8" standalone="no"?>
<!DOCTYPE svg PUBLIC "-//W3C//DTD SVG 1.1//EN"
 "http://www.w3.org/Graphics/SVG/1.1/DTD/svg11.dtd">
<!-- Generated by graphviz version 2.43.0 (0)
 -->
<!-- Title: G Pages: 1 -->
<svg width="360pt" height="175pt"
 viewBox="0.00 0.00 360.00 174.68" xmlns="http://www.w3.org/2000/svg" xmlns:xlink="http://www.w3.org/1999/xlink">
<g id="graph0" class="graph" transform="scale(0.67 0.67) rotate(0) translate(4 256)">
<title>G</title>
<!-- gradient_boosting -->
<g id="node1" class="node">
<title>gradient_boosting</title>
<g id="a_node1"><a xlink:title="(6) gradient_boosting">
<ellipse fill="#404040" stroke="#4a4a4a" cx="254.98" cy="-18" rx="74.19" ry="18"/>
<text text-anchor="middle" x="254.98" y="-14.3" font-family="Times,serif" font-size="14.00" fill="white">gradient_boosting</text>
</a>
</g>
</g>
<!-- extra_trees -->
<g id="node2" class="node">
<title>extra_trees</title>
<g id="a_node2"><a xlink:title="(1) extra_trees">
<ellipse fill="#404040" stroke="#4a4a4a" cx="254.98" cy="-90" rx="49.29" ry="18"/>
<text text-anchor="middle" x="254.98" y="-86.3" font-family="Times,serif" font-size="14.00" fill="white">extra_trees</text>
</a>
</g>
</g>
<!-- extra_trees&#45;&gt;gradient_boosting -->
<g id="edge12" class="edge">
<title>extra_trees&#45;&gt;gradient_boosting</title>
<g id="a_edge12"><a xlink:title="1 → 6">
<path fill="none" stroke="#4a4a4a" d="M254.98,-71.7C254.98,-63.98 254.98,-54.71 254.98,-46.11"/>
<polygon fill="#4a4a4a" stroke="#4a4a4a" points="258.49,-46.1 254.98,-36.1 251.49,-46.1 258.49,-46.1"/>
</a>
</g>
</g>
<!-- select_rfe -->
<g id="node3" class="node">
<title>select_rfe</title>
<g id="a_node3"><a xlink:title="(5) select_rfe">
<ellipse fill="#404040" stroke="#4a4a4a" cx="370.98" cy="-162" rx="44.69" ry="18"/>
<text text-anchor="middle" x="370.98" y="-158.3" font-family="Times,serif" font-size="14.00" fill="white">select_rfe</text>
</a>
</g>
</g>
<!-- no_feature_selection -->
<g id="node7" class="node">
<title>no_feature_selection</title>
<g id="a_node7"><a xlink:title="(4) no_feature_selection">
<ellipse fill="#404040" stroke="#4a4a4a" cx="443.98" cy="-90" rx="83.69" ry="18"/>
<text text-anchor="middle" x="443.98" y="-86.3" font-family="Times,serif" font-size="14.00" fill="white">no_feature_selection</text>
</a>
</g>
</g>
<!-- select_rfe&#45;&gt;no_feature_selection -->
<g id="edge5" class="edge">
<title>select_rfe&#45;&gt;no_feature_selection</title>
<g id="a_edge5"><a xlink:title="5 → 4">
<path fill="none" stroke="#4a4a4a" d="M387.55,-145.12C396.89,-136.16 408.75,-124.79 419.18,-114.79"/>
<polygon fill="#4a4a4a" stroke="#4a4a4a" points="421.67,-117.24 426.47,-107.8 416.83,-112.19 421.67,-117.24"/>
</a>
</g>
</g>
<!-- General_Descriptors -->
<g id="node4" class="node">
<title>General_Descriptors</title>
<g id="a_node4"><a xlink:title="(3) General_Descriptors">
<ellipse fill="#404040" stroke="#4a4a4a" cx="103.98" cy="-90" rx="83.39" ry="18"/>
<text text-anchor="middle" x="103.98" y="-86.3" font-family="Times,serif" font-size="14.00" fill="white">General_Descriptors</text>
</a>
</g>
</g>
<!-- Graph_based_Signatures -->
<g id="node5" class="node">
<title>Graph_based_Signatures</title>
<g id="a_node5"><a xlink:title="(7) Graph_based_Signatures">
<ellipse fill="#404040" stroke="#4a4a4a" cx="358.98" cy="-234" rx="98.58" ry="18"/>
<text text-anchor="middle" x="358.98" y="-230.3" font-family="Times,serif" font-size="14.00" fill="white">Graph_based_Signatures</text>
</a>
</g>
</g>
<!-- class -->
<g id="node8" class="node">
<title>class</title>
<g id="a_node8"><a xlink:title="(0) class">
<ellipse fill="#404040" stroke="#4a4a4a" cx="267.98" cy="-162" rx="27.9" ry="18"/>
<text text-anchor="middle" x="267.98" y="-158.3" font-family="Times,serif" font-size="14.00" fill="white">class</text>
</a>
</g>
</g>
<!-- Graph_based_Signatures&#45;&gt;class -->
<g id="edge8" class="edge">
<title>Graph_based_Signatures&#45;&gt;class</title>
<g id="a_edge8"><a xlink:title="7 → 0">
<path fill="none" stroke="#4a4a4a" d="M337.42,-216.41C324.27,-206.3 307.4,-193.32 293.58,-182.69"/>
<polygon fill="#4a4a4a" stroke="#4a4a4a" points="295.49,-179.75 285.43,-176.42 291.23,-185.29 295.49,-179.75"/>
</a>
</g>
</g>
<!-- neural_networks -->
<g id="node6" class="node">
<title>neural_networks</title>
<g id="a_node6"><a xlink:title="(2) neural_networks">
<ellipse fill="#404040" stroke="#4a4a4a" cx="172.98" cy="-234" rx="69.59" ry="18"/>
<text text-anchor="middle" x="172.98" y="-230.3" font-family="Times,serif" font-size="14.00" fill="white">neural_networks</text>
</a>
</g>
</g>
<!-- neural_networks&#45;&gt;gradient_boosting -->
<g id="edge11" class="edge">
<title>neural_networks&#45;&gt;gradient_boosting</title>
<g id="a_edge11"><a xlink:title="2 → 6">
<path fill="none" stroke="#4a4a4a" d="M137.48,-218.29C76.97,-191.16 -35.25,-130.65 11.98,-72 32.35,-46.71 112.64,-32.85 175.42,-25.71"/>
<polygon fill="#4a4a4a" stroke="#4a4a4a" points="176.17,-29.15 185.73,-24.58 175.41,-22.19 176.17,-29.15"/>
</a>
</g>
</g>
<!-- neural_networks&#45;&gt;extra_trees -->
<g id="edge4" class="edge">
<title>neural_networks&#45;&gt;extra_trees</title>
<g id="a_edge4"><a xlink:title="2 → 1">
<path fill="none" stroke="#4a4a4a" d="M182.71,-216.15C196.95,-191.49 223.59,-145.37 240.24,-116.53"/>
<polygon fill="#4a4a4a" stroke="#4a4a4a" points="243.3,-118.24 245.27,-107.82 237.24,-114.73 243.3,-118.24"/>
</a>
</g>
</g>
<!-- neural_networks&#45;&gt;General_Descriptors -->
<g id="edge10" class="edge">
<title>neural_networks&#45;&gt;General_Descriptors</title>
<g id="a_edge10"><a xlink:title="2 → 3">
<path fill="none" stroke="#4a4a4a" d="M164.66,-215.87C152.75,-191.35 130.73,-146.03 116.74,-117.26"/>
<polygon fill="#4a4a4a" stroke="#4a4a4a" points="119.86,-115.65 112.34,-108.19 113.56,-118.71 119.86,-115.65"/>
</a>
</g>
</g>
<!-- neural_networks&#45;&gt;no_feature_selection -->
<g id="edge2" class="edge">
<title>neural_networks&#45;&gt;no_feature_selection</title>
<g id="a_edge2"><a xlink:title="2 → 4">
<path fill="none" stroke="#4a4a4a" d="M224.16,-221.77C233.1,-219.83 242.31,-217.84 250.98,-216 328.23,-199.59 368.97,-235.66 424.98,-180 440.97,-164.12 445.04,-138.32 445.51,-118.57"/>
<polygon fill="#4a4a4a" stroke="#4a4a4a" points="449.01,-118.31 445.46,-108.33 442.01,-118.35 449.01,-118.31"/>
</a>
</g>
</g>
<!-- neural_networks&#45;&gt;class -->
<g id="edge7" class="edge">
<title>neural_networks&#45;&gt;class</title>
<g id="a_edge7"><a xlink:title="2 → 0">
<path fill="none" stroke="#4a4a4a" d="M195.02,-216.76C209.04,-206.43 227.26,-193.01 241.99,-182.15"/>
<polygon fill="#4a4a4a" stroke="#4a4a4a" points="244.23,-184.85 250.2,-176.1 240.07,-179.22 244.23,-184.85"/>
</a>
</g>
</g>
<!-- class&#45;&gt;gradient_boosting -->
<g id="edge9" class="edge">
<title>class&#45;&gt;gradient_boosting</title>
<g id="a_edge9"><a xlink:title="0 → 6">
<path fill="none" stroke="#4a4a4a" d="M284.65,-147.14C294.98,-137.4 307.33,-123.41 312.98,-108 318.5,-92.98 319.44,-86.64 312.98,-72 307.78,-60.2 298.51,-49.89 288.89,-41.58"/>
<polygon fill="#4a4a4a" stroke="#4a4a4a" points="290.79,-38.61 280.81,-35.07 286.41,-44.07 290.79,-38.61"/>
</a>
</g>
</g>
<!-- class&#45;&gt;extra_trees -->
<g id="edge1" class="edge">
<title>class&#45;&gt;extra_trees</title>
<g id="a_edge1"><a xlink:title="0 → 1">
<path fill="none" stroke="#4a4a4a" d="M264.84,-144.05C263.41,-136.35 261.68,-127.03 260.07,-118.36"/>
<polygon fill="#4a4a4a" stroke="#4a4a4a" points="263.46,-117.47 258.19,-108.28 256.58,-118.75 263.46,-117.47"/>
</a>
</g>
</g>
<!-- class&#45;&gt;General_Descriptors -->
<g id="edge6" class="edge">
<title>class&#45;&gt;General_Descriptors</title>
<g id="a_edge6"><a xlink:title="0 → 3">
<path fill="none" stroke="#4a4a4a" d="M245.18,-151.27C220.46,-140.71 180.35,-123.6 149.19,-110.3"/>
<polygon fill="#4a4a4a" stroke="#4a4a4a" points="150.41,-107.01 139.84,-106.3 147.66,-113.45 150.41,-107.01"/>
</a>
</g>
</g>
<!-- class&#45;&gt;no_feature_selection -->
<g id="edge3" class="edge">
<title>class&#45;&gt;no_feature_selection</title>
<g id="a_edge3"><a xlink:title="0 → 4">
<path fill="none" stroke="#4a4a4a" d="M291.36,-151.7C318.11,-141.06 362.62,-123.36 396.69,-109.81"/>
<polygon fill="#4a4a4a" stroke="#4a4a4a" points="398,-113.06 406,-106.11 395.42,-106.55 398,-113.06"/>
</a>
</g>
</g>
</g>
</svg>
