<?xml version="1.0" encoding="UTF-8" standalone="no"?>
<!DOCTYPE svg PUBLIC "-//W3C//DTD SVG 1.1//EN"
 "http://www.w3.org/Graphics/SVG/1.1/DTD/svg11.dtd">
<!-- Generated by graphviz version 2.43.0 (0)
 -->
<!-- Title: G Pages: 1 -->
<svg width="360pt" height="170pt"
 viewBox="0.00 0.00 360.00 169.55" xmlns="http://www.w3.org/2000/svg" xmlns:xlink="http://www.w3.org/1999/xlink">
<g id="graph0" class="graph" transform="scale(0.65 0.65) rotate(0) translate(4 256)">
<title>G</title>
<!-- Toxicophores -->
<g id="node1" class="node">
<title>Toxicophores</title>
<g id="a_node1"><a xlink:title="(4) Toxicophores">
<ellipse fill="#404040" stroke="#4a4a4a" cx="83.19" cy="-162" rx="59.29" ry="18"/>
<text text-anchor="middle" x="83.19" y="-158.3" font-family="Times,serif" font-size="14.00" fill="white">Toxicophores</text>
</a>
</g>
</g>
<!-- General_Descriptors -->
<g id="node5" class="node">
<title>General_Descriptors</title>
<g id="a_node5"><a xlink:title="(3) General_Descriptors">
<ellipse fill="#404040" stroke="#4a4a4a" cx="83.19" cy="-90" rx="83.39" ry="18"/>
<text text-anchor="middle" x="83.19" y="-86.3" font-family="Times,serif" font-size="14.00" fill="white">General_Descriptors</text>
</a>
</g>
</g>
<!-- Toxicophores&#45;&gt;General_Descriptors -->
<g id="edge5" class="edge">
<title>Toxicophores&#45;&gt;General_Descriptors</title>
<g id="a_edge5"><a xlink:title="4 → 3">
<path fill="none" stroke="#4a4a4a" d="M83.19,-143.7C83.19,-135.98 83.19,-126.71 83.19,-118.11"/>
<polygon fill="#4a4a4a" stroke="#4a4a4a" points="86.69,-118.1 83.19,-108.1 79.69,-118.1 86.69,-118.1"/>
</a>
</g>
</g>
<!-- extra_trees -->
<g id="node2" class="node">
<title>extra_trees</title>
<g id="a_node2"><a xlink:title="(1) extra_trees">
<ellipse fill="#404040" stroke="#4a4a4a" cx="271.19" cy="-90" rx="49.29" ry="18"/>
<text text-anchor="middle" x="271.19" y="-86.3" font-family="Times,serif" font-size="14.00" fill="white">extra_trees</text>
</a>
</g>
</g>
<!-- gradient_boosting -->
<g id="node3" class="node">
<title>gradient_boosting</title>
<g id="a_node3"><a xlink:title="(7) gradient_boosting">
<ellipse fill="#404040" stroke="#4a4a4a" cx="271.19" cy="-18" rx="74.19" ry="18"/>
<text text-anchor="middle" x="271.19" y="-14.3" font-family="Times,serif" font-size="14.00" fill="white">gradient_boosting</text>
</a>
</g>
</g>
<!-- extra_trees&#45;&gt;gradient_boosting -->
<g id="edge10" class="edge">
<title>extra_trees&#45;&gt;gradient_boosting</title>
<g id="a_edge10"><a xlink:title="1 → 7">
<path fill="none" stroke="#4a4a4a" d="M271.19,-71.7C271.19,-63.98 271.19,-54.71 271.19,-46.11"/>
<polygon fill="#4a4a4a" stroke="#4a4a4a" points="274.69,-46.1 271.19,-36.1 267.69,-46.1 274.69,-46.1"/>
</a>
</g>
</g>
<!-- select_rfe -->
<g id="node4" class="node">
<title>select_rfe</title>
<g id="a_node4"><a xlink:title="(6) select_rfe">
<ellipse fill="#404040" stroke="#4a4a4a" cx="421.19" cy="-162" rx="44.69" ry="18"/>
<text text-anchor="middle" x="421.19" y="-158.3" font-family="Times,serif" font-size="14.00" fill="white">select_rfe</text>
</a>
</g>
</g>
<!-- no_feature_selection -->
<g id="node8" class="node">
<title>no_feature_selection</title>
<g id="a_node8"><a xlink:title="(5) no_feature_selection">
<ellipse fill="#404040" stroke="#4a4a4a" cx="460.19" cy="-90" rx="83.69" ry="18"/>
<text text-anchor="middle" x="460.19" y="-86.3" font-family="Times,serif" font-size="14.00" fill="white">no_feature_selection</text>
</a>
</g>
</g>
<!-- select_rfe&#45;&gt;no_feature_selection -->
<g id="edge4" class="edge">
<title>select_rfe&#45;&gt;no_feature_selection</title>
<g id="a_edge4"><a xlink:title="6 → 5">
<path fill="none" stroke="#4a4a4a" d="M430.63,-144.05C435.12,-136.01 440.58,-126.2 445.58,-117.23"/>
<polygon fill="#4a4a4a" stroke="#4a4a4a" points="448.76,-118.71 450.57,-108.28 442.64,-115.31 448.76,-118.71"/>
</a>
</g>
</g>
<!-- Graph_based_Signatures -->
<g id="node6" class="node">
<title>Graph_based_Signatures</title>
<g id="a_node6"><a xlink:title="(8) Graph_based_Signatures">
<ellipse fill="#404040" stroke="#4a4a4a" cx="162.19" cy="-234" rx="98.58" ry="18"/>
<text text-anchor="middle" x="162.19" y="-230.3" font-family="Times,serif" font-size="14.00" fill="white">Graph_based_Signatures</text>
</a>
</g>
</g>
<!-- class -->
<g id="node9" class="node">
<title>class</title>
<g id="a_node9"><a xlink:title="(0) class">
<ellipse fill="#404040" stroke="#4a4a4a" cx="204.19" cy="-162" rx="27.9" ry="18"/>
<text text-anchor="middle" x="204.19" y="-158.3" font-family="Times,serif" font-size="14.00" fill="white">class</text>
</a>
</g>
</g>
<!-- Graph_based_Signatures&#45;&gt;class -->
<g id="edge9" class="edge">
<title>Graph_based_Signatures&#45;&gt;class</title>
<g id="a_edge9"><a xlink:title="8 → 0">
<path fill="none" stroke="#4a4a4a" d="M172.36,-216.05C177.39,-207.68 183.55,-197.4 189.11,-188.13"/>
<polygon fill="#4a4a4a" stroke="#4a4a4a" points="192.26,-189.68 194.41,-179.31 186.26,-186.08 192.26,-189.68"/>
</a>
</g>
</g>
<!-- neural_networks -->
<g id="node7" class="node">
<title>neural_networks</title>
<g id="a_node7"><a xlink:title="(2) neural_networks">
<ellipse fill="#404040" stroke="#4a4a4a" cx="348.19" cy="-234" rx="69.59" ry="18"/>
<text text-anchor="middle" x="348.19" y="-230.3" font-family="Times,serif" font-size="14.00" fill="white">neural_networks</text>
</a>
</g>
</g>
<!-- neural_networks&#45;&gt;extra_trees -->
<g id="edge3" class="edge">
<title>neural_networks&#45;&gt;extra_trees</title>
<g id="a_edge3"><a xlink:title="2 → 1">
<path fill="none" stroke="#4a4a4a" d="M339.06,-216.15C325.74,-191.6 300.89,-145.77 285.24,-116.91"/>
<polygon fill="#4a4a4a" stroke="#4a4a4a" points="288.16,-114.95 280.32,-107.82 282.01,-118.28 288.16,-114.95"/>
</a>
</g>
</g>
<!-- neural_networks&#45;&gt;gradient_boosting -->
<g id="edge6" class="edge">
<title>neural_networks&#45;&gt;gradient_boosting</title>
<g id="a_edge6"><a xlink:title="2 → 7">
<path fill="none" stroke="#4a4a4a" d="M349.92,-215.9C352.24,-185.22 353.6,-119.58 329.19,-72 323.2,-60.32 313.51,-49.93 303.76,-41.51"/>
<polygon fill="#4a4a4a" stroke="#4a4a4a" points="305.95,-38.78 295.99,-35.19 301.54,-44.21 305.95,-38.78"/>
</a>
</g>
</g>
<!-- neural_networks&#45;&gt;no_feature_selection -->
<g id="edge12" class="edge">
<title>neural_networks&#45;&gt;no_feature_selection</title>
<g id="a_edge12"><a xlink:title="2 → 5">
<path fill="none" stroke="#4a4a4a" d="M405.82,-223.76C431.6,-216.44 459.63,-203.36 475.19,-180 487.55,-161.46 481.55,-136.05 473.77,-117.13"/>
<polygon fill="#4a4a4a" stroke="#4a4a4a" points="476.92,-115.59 469.63,-107.9 470.53,-118.45 476.92,-115.59"/>
</a>
</g>
</g>
<!-- neural_networks&#45;&gt;class -->
<g id="edge8" class="edge">
<title>neural_networks&#45;&gt;class</title>
<g id="a_edge8"><a xlink:title="2 → 0">
<path fill="none" stroke="#4a4a4a" d="M316.95,-217.81C292.7,-206.03 259.27,-189.77 235.11,-178.03"/>
<polygon fill="#4a4a4a" stroke="#4a4a4a" points="236.54,-174.83 226.02,-173.61 233.48,-181.13 236.54,-174.83"/>
</a>
</g>
</g>
<!-- class&#45;&gt;extra_trees -->
<g id="edge1" class="edge">
<title>class&#45;&gt;extra_trees</title>
<g id="a_edge1"><a xlink:title="0 → 1">
<path fill="none" stroke="#4a4a4a" d="M218.4,-146.15C227.18,-136.98 238.64,-125.01 248.64,-114.56"/>
<polygon fill="#4a4a4a" stroke="#4a4a4a" points="251.21,-116.93 255.6,-107.29 246.16,-112.09 251.21,-116.93"/>
</a>
</g>
</g>
<!-- class&#45;&gt;gradient_boosting -->
<g id="edge2" class="edge">
<title>class&#45;&gt;gradient_boosting</title>
<g id="a_edge2"><a xlink:title="0 → 7">
<path fill="none" stroke="#4a4a4a" d="M202.43,-143.94C201.27,-125.25 201.69,-94.9 213.19,-72 219.09,-60.27 228.75,-49.86 238.51,-41.45"/>
<polygon fill="#4a4a4a" stroke="#4a4a4a" points="240.73,-44.16 246.3,-35.14 236.32,-38.72 240.73,-44.16"/>
</a>
</g>
</g>
<!-- class&#45;&gt;General_Descriptors -->
<g id="edge7" class="edge">
<title>class&#45;&gt;General_Descriptors</title>
<g id="a_edge7"><a xlink:title="0 → 3">
<path fill="none" stroke="#4a4a4a" d="M183.94,-149.28C166.52,-139.2 140.94,-124.41 119.92,-112.25"/>
<polygon fill="#4a4a4a" stroke="#4a4a4a" points="121.63,-109.19 111.22,-107.22 118.13,-115.25 121.63,-109.19"/>
</a>
</g>
</g>
<!-- class&#45;&gt;no_feature_selection -->
<g id="edge11" class="edge">
<title>class&#45;&gt;no_feature_selection</title>
<g id="a_edge11"><a xlink:title="0 → 5">
<path fill="none" stroke="#4a4a4a" d="M229.67,-154.03C269.2,-143.22 346.37,-122.12 400.5,-107.32"/>
<polygon fill="#4a4a4a" stroke="#4a4a4a" points="401.6,-110.65 410.32,-104.64 399.75,-103.9 401.6,-110.65"/>
</a>
</g>
</g>
</g>
</svg>
