<?xml version="1.0" encoding="UTF-8" standalone="no"?>
<!DOCTYPE svg PUBLIC "-//W3C//DTD SVG 1.1//EN"
 "http://www.w3.org/Graphics/SVG/1.1/DTD/svg11.dtd">
<!-- Generated by graphviz version 2.43.0 (0)
 -->
<!-- Title: G Pages: 1 -->
<svg width="360pt" height="93pt"
 viewBox="0.00 0.00 360.00 93.02" xmlns="http://www.w3.org/2000/svg" xmlns:xlink="http://www.w3.org/1999/xlink">
<g id="graph0" class="graph" transform="scale(0.36 0.36) rotate(0) translate(4 256)">
<title>G</title>
<!-- svm -->
<g id="node1" class="node">
<title>svm</title>
<g id="a_node1"><a xlink:title="(12) svm">
<ellipse fill="#404040" stroke="#4a4a4a" cx="121.35" cy="-90" rx="27" ry="18"/>
<text text-anchor="middle" x="121.35" y="-86.3" font-family="Times,serif" font-size="14.00" fill="white">svm</text>
</a>
</g>
</g>
<!-- Toxicophores -->
<g id="node2" class="node">
<title>Toxicophores</title>
<g id="a_node2"><a xlink:title="(2) Toxicophores">
<ellipse fill="#404040" stroke="#4a4a4a" cx="597.35" cy="-162" rx="59.29" ry="18"/>
<text text-anchor="middle" x="597.35" y="-158.3" font-family="Times,serif" font-size="14.00" fill="white">Toxicophores</text>
</a>
</g>
</g>
<!-- Graph_based_Signatures -->
<g id="node9" class="node">
<title>Graph_based_Signatures</title>
<g id="a_node9"><a xlink:title="(1) Graph_based_Signatures">
<ellipse fill="#404040" stroke="#4a4a4a" cx="597.35" cy="-90" rx="98.58" ry="18"/>
<text text-anchor="middle" x="597.35" y="-86.3" font-family="Times,serif" font-size="14.00" fill="white">Graph_based_Signatures</text>
</a>
</g>
</g>
<!-- Toxicophores&#45;&gt;Graph_based_Signatures -->
<g id="edge9" class="edge">
<title>Toxicophores&#45;&gt;Graph_based_Signatures</title>
<g id="a_edge9"><a xlink:title="2 → 1">
<path fill="none" stroke="#4a4a4a" d="M597.35,-143.7C597.35,-135.98 597.35,-126.71 597.35,-118.11"/>
<polygon fill="#4a4a4a" stroke="#4a4a4a" points="600.85,-118.1 597.35,-108.1 593.85,-118.1 600.85,-118.1"/>
</a>
</g>
</g>
<!-- extra_trees -->
<g id="node3" class="node">
<title>extra_trees</title>
<g id="a_node3"><a xlink:title="(9) extra_trees">
<ellipse fill="#404040" stroke="#4a4a4a" cx="393.35" cy="-90" rx="49.29" ry="18"/>
<text text-anchor="middle" x="393.35" y="-86.3" font-family="Times,serif" font-size="14.00" fill="white">extra_trees</text>
</a>
</g>
</g>
<!-- gradient_boosting -->
<g id="node4" class="node">
<title>gradient_boosting</title>
<g id="a_node4"><a xlink:title="(10) gradient_boosting">
<ellipse fill="#404040" stroke="#4a4a4a" cx="287.35" cy="-18" rx="74.19" ry="18"/>
<text text-anchor="middle" x="287.35" y="-14.3" font-family="Times,serif" font-size="14.00" fill="white">gradient_boosting</text>
</a>
</g>
</g>
<!-- extra_trees&#45;&gt;gradient_boosting -->
<g id="edge8" class="edge">
<title>extra_trees&#45;&gt;gradient_boosting</title>
<g id="a_edge8"><a xlink:title="9 → 10">
<path fill="none" stroke="#4a4a4a" d="M370.61,-73.98C356.03,-64.36 336.86,-51.7 320.59,-40.95"/>
<polygon fill="#4a4a4a" stroke="#4a4a4a" points="322.17,-37.8 311.9,-35.21 318.31,-43.64 322.17,-37.8"/>
</a>
</g>
</g>
<!-- decision_tree -->
<g id="node5" class="node">
<title>decision_tree</title>
<g id="a_node5"><a xlink:title="(8) decision_tree">
<ellipse fill="#404040" stroke="#4a4a4a" cx="268.35" cy="-90" rx="57.69" ry="18"/>
<text text-anchor="middle" x="268.35" y="-86.3" font-family="Times,serif" font-size="14.00" fill="white">decision_tree</text>
</a>
</g>
</g>
<!-- nu_svm -->
<g id="node6" class="node">
<title>nu_svm</title>
<g id="a_node6"><a xlink:title="(13) nu_svm">
<ellipse fill="#404040" stroke="#4a4a4a" cx="118.35" cy="-162" rx="38.99" ry="18"/>
<text text-anchor="middle" x="118.35" y="-158.3" font-family="Times,serif" font-size="14.00" fill="white">nu_svm</text>
</a>
</g>
</g>
<!-- nu_svm&#45;&gt;svm -->
<g id="edge18" class="edge">
<title>nu_svm&#45;&gt;svm</title>
<g id="a_edge18"><a xlink:title="13 → 12">
<path fill="none" stroke="#4a4a4a" d="M119.09,-143.7C119.42,-135.98 119.82,-126.71 120.18,-118.11"/>
<polygon fill="#4a4a4a" stroke="#4a4a4a" points="123.68,-118.25 120.61,-108.1 116.69,-117.95 123.68,-118.25"/>
</a>
</g>
</g>
<!-- select_rfe -->
<g id="node7" class="node">
<title>select_rfe</title>
<g id="a_node7"><a xlink:title="(6) select_rfe">
<ellipse fill="#404040" stroke="#4a4a4a" cx="914.35" cy="-162" rx="44.69" ry="18"/>
<text text-anchor="middle" x="914.35" y="-158.3" font-family="Times,serif" font-size="14.00" fill="white">select_rfe</text>
</a>
</g>
</g>
<!-- no_feature_selection -->
<g id="node12" class="node">
<title>no_feature_selection</title>
<g id="a_node12"><a xlink:title="(5) no_feature_selection">
<ellipse fill="#404040" stroke="#4a4a4a" cx="914.35" cy="-90" rx="83.69" ry="18"/>
<text text-anchor="middle" x="914.35" y="-86.3" font-family="Times,serif" font-size="14.00" fill="white">no_feature_selection</text>
</a>
</g>
</g>
<!-- select_rfe&#45;&gt;no_feature_selection -->
<g id="edge4" class="edge">
<title>select_rfe&#45;&gt;no_feature_selection</title>
<g id="a_edge4"><a xlink:title="6 → 5">
<path fill="none" stroke="#4a4a4a" d="M914.35,-143.7C914.35,-135.98 914.35,-126.71 914.35,-118.11"/>
<polygon fill="#4a4a4a" stroke="#4a4a4a" points="917.85,-118.1 914.35,-108.1 910.85,-118.1 917.85,-118.1"/>
</a>
</g>
</g>
<!-- General_Descriptors -->
<g id="node8" class="node">
<title>General_Descriptors</title>
<g id="a_node8"><a xlink:title="(14) General_Descriptors">
<ellipse fill="#404040" stroke="#4a4a4a" cx="460.35" cy="-234" rx="83.39" ry="18"/>
<text text-anchor="middle" x="460.35" y="-230.3" font-family="Times,serif" font-size="14.00" fill="white">General_Descriptors</text>
</a>
</g>
</g>
<!-- class -->
<g id="node14" class="node">
<title>class</title>
<g id="a_node14"><a xlink:title="(0) class">
<ellipse fill="#404040" stroke="#4a4a4a" cx="460.35" cy="-162" rx="27.9" ry="18"/>
<text text-anchor="middle" x="460.35" y="-158.3" font-family="Times,serif" font-size="14.00" fill="white">class</text>
</a>
</g>
</g>
<!-- General_Descriptors&#45;&gt;class -->
<g id="edge6" class="edge">
<title>General_Descriptors&#45;&gt;class</title>
<g id="a_edge6"><a xlink:title="14 → 0">
<path fill="none" stroke="#4a4a4a" d="M460.35,-215.7C460.35,-207.98 460.35,-198.71 460.35,-190.11"/>
<polygon fill="#4a4a4a" stroke="#4a4a4a" points="463.85,-190.1 460.35,-180.1 456.85,-190.1 463.85,-190.1"/>
</a>
</g>
</g>
<!-- normalizer -->
<g id="node10" class="node">
<title>normalizer</title>
<g id="a_node10"><a xlink:title="(3) normalizer">
<ellipse fill="#404040" stroke="#4a4a4a" cx="763.35" cy="-90" rx="49.29" ry="18"/>
<text text-anchor="middle" x="763.35" y="-86.3" font-family="Times,serif" font-size="14.00" fill="white">normalizer</text>
</a>
</g>
</g>
<!-- neural_networks -->
<g id="node11" class="node">
<title>neural_networks</title>
<g id="a_node11"><a xlink:title="(7) neural_networks">
<ellipse fill="#404040" stroke="#4a4a4a" cx="284.35" cy="-234" rx="69.59" ry="18"/>
<text text-anchor="middle" x="284.35" y="-230.3" font-family="Times,serif" font-size="14.00" fill="white">neural_networks</text>
</a>
</g>
</g>
<!-- neural_networks&#45;&gt;svm -->
<g id="edge14" class="edge">
<title>neural_networks&#45;&gt;svm</title>
<g id="a_edge14"><a xlink:title="7 → 12">
<path fill="none" stroke="#4a4a4a" d="M221.93,-226.04C165.64,-218.33 88.92,-203.74 70.35,-180 53.12,-157.99 76.19,-129.51 96.61,-110.78"/>
<polygon fill="#4a4a4a" stroke="#4a4a4a" points="99.01,-113.33 104.22,-104.1 94.4,-108.06 99.01,-113.33"/>
</a>
</g>
</g>
<!-- neural_networks&#45;&gt;extra_trees -->
<g id="edge13" class="edge">
<title>neural_networks&#45;&gt;extra_trees</title>
<g id="a_edge13"><a xlink:title="7 → 9">
<path fill="none" stroke="#4a4a4a" d="M297.28,-216.15C316.37,-191.28 352.22,-144.57 374.32,-115.79"/>
<polygon fill="#4a4a4a" stroke="#4a4a4a" points="377.12,-117.89 380.43,-107.82 371.57,-113.63 377.12,-117.89"/>
</a>
</g>
</g>
<!-- neural_networks&#45;&gt;gradient_boosting -->
<g id="edge5" class="edge">
<title>neural_networks&#45;&gt;gradient_boosting</title>
<g id="a_edge5"><a xlink:title="7 → 10">
<path fill="none" stroke="#4a4a4a" d="M264.57,-216.59C231.73,-187.25 172.29,-124.03 201.35,-72 209.56,-57.29 223.72,-46.16 238.2,-37.99"/>
<polygon fill="#4a4a4a" stroke="#4a4a4a" points="239.97,-41.01 247.22,-33.28 236.73,-34.81 239.97,-41.01"/>
</a>
</g>
</g>
<!-- neural_networks&#45;&gt;decision_tree -->
<g id="edge20" class="edge">
<title>neural_networks&#45;&gt;decision_tree</title>
<g id="a_edge20"><a xlink:title="7 → 8">
<path fill="none" stroke="#4a4a4a" d="M282.42,-215.87C279.69,-191.67 274.68,-147.21 271.43,-118.39"/>
<polygon fill="#4a4a4a" stroke="#4a4a4a" points="274.88,-117.73 270.28,-108.19 267.93,-118.52 274.88,-117.73"/>
</a>
</g>
</g>
<!-- neural_networks&#45;&gt;no_feature_selection -->
<g id="edge19" class="edge">
<title>neural_networks&#45;&gt;no_feature_selection</title>
<g id="a_edge19"><a xlink:title="7 → 5">
<path fill="none" stroke="#4a4a4a" d="M335.26,-221.69C346.14,-219.55 357.59,-217.52 368.35,-216 466.59,-202.14 722.03,-218.77 813.35,-180 822.26,-176.22 861.92,-140.07 888.81,-115.02"/>
<polygon fill="#4a4a4a" stroke="#4a4a4a" points="891.44,-117.35 896.36,-107.97 886.66,-112.24 891.44,-117.35"/>
</a>
</g>
</g>
<!-- neural_networks&#45;&gt;class -->
<g id="edge12" class="edge">
<title>neural_networks&#45;&gt;class</title>
<g id="a_edge12"><a xlink:title="7 → 0">
<path fill="none" stroke="#4a4a4a" d="M320.81,-218.5C352.2,-206.01 397.1,-188.15 427.42,-176.1"/>
<polygon fill="#4a4a4a" stroke="#4a4a4a" points="429.1,-179.19 437.1,-172.25 426.51,-172.69 429.1,-179.19"/>
</a>
</g>
</g>
<!-- selectfpr -->
<g id="node13" class="node">
<title>selectfpr</title>
<g id="a_node13"><a xlink:title="(4) selectfpr">
<ellipse fill="#404040" stroke="#4a4a4a" cx="763.35" cy="-162" rx="40.89" ry="18"/>
<text text-anchor="middle" x="763.35" y="-158.3" font-family="Times,serif" font-size="14.00" fill="white">selectfpr</text>
</a>
</g>
</g>
<!-- selectfpr&#45;&gt;normalizer -->
<g id="edge1" class="edge">
<title>selectfpr&#45;&gt;normalizer</title>
<g id="a_edge1"><a xlink:title="4 → 3">
<path fill="none" stroke="#4a4a4a" d="M763.35,-143.7C763.35,-135.98 763.35,-126.71 763.35,-118.11"/>
<polygon fill="#4a4a4a" stroke="#4a4a4a" points="766.85,-118.1 763.35,-108.1 759.85,-118.1 766.85,-118.1"/>
</a>
</g>
</g>
<!-- class&#45;&gt;svm -->
<g id="edge17" class="edge">
<title>class&#45;&gt;svm</title>
<g id="a_edge17"><a xlink:title="0 → 12">
<path fill="none" stroke="#4a4a4a" d="M433.86,-155.65C386.97,-146.16 286.26,-125.71 201.35,-108 186.84,-104.97 170.86,-101.59 157.02,-98.64"/>
<polygon fill="#4a4a4a" stroke="#4a4a4a" points="157.43,-95.15 146.92,-96.48 155.97,-101.99 157.43,-95.15"/>
</a>
</g>
</g>
<!-- class&#45;&gt;extra_trees -->
<g id="edge16" class="edge">
<title>class&#45;&gt;extra_trees</title>
<g id="a_edge16"><a xlink:title="0 → 9">
<path fill="none" stroke="#4a4a4a" d="M446.14,-146.15C437.36,-136.98 425.9,-125.01 415.9,-114.56"/>
<polygon fill="#4a4a4a" stroke="#4a4a4a" points="418.38,-112.09 408.94,-107.29 413.33,-116.93 418.38,-112.09"/>
</a>
</g>
</g>
<!-- class&#45;&gt;gradient_boosting -->
<g id="edge10" class="edge">
<title>class&#45;&gt;gradient_boosting</title>
<g id="a_edge10"><a xlink:title="0 → 10">
<path fill="none" stroke="#4a4a4a" d="M463.7,-143.87C466.49,-124.28 467.74,-92.3 451.35,-72 430.82,-46.59 397.97,-33.21 367.04,-26.23"/>
<polygon fill="#4a4a4a" stroke="#4a4a4a" points="367.59,-22.76 357.09,-24.18 366.17,-29.62 367.59,-22.76"/>
</a>
</g>
</g>
<!-- class&#45;&gt;decision_tree -->
<g id="edge3" class="edge">
<title>class&#45;&gt;decision_tree</title>
<g id="a_edge3"><a xlink:title="0 → 8">
<path fill="none" stroke="#4a4a4a" d="M436.42,-152.28C405.84,-141.13 352.26,-121.59 313.81,-107.58"/>
<polygon fill="#4a4a4a" stroke="#4a4a4a" points="314.98,-104.28 304.38,-104.14 312.58,-110.85 314.98,-104.28"/>
</a>
</g>
</g>
<!-- class&#45;&gt;Graph_based_Signatures -->
<g id="edge7" class="edge">
<title>class&#45;&gt;Graph_based_Signatures</title>
<g id="a_edge7"><a xlink:title="0 → 1">
<path fill="none" stroke="#4a4a4a" d="M481.75,-150.06C501.71,-139.87 531.99,-124.39 556.56,-111.84"/>
<polygon fill="#4a4a4a" stroke="#4a4a4a" points="558.35,-114.86 565.66,-107.19 555.16,-108.62 558.35,-114.86"/>
</a>
</g>
</g>
<!-- class&#45;&gt;normalizer -->
<g id="edge15" class="edge">
<title>class&#45;&gt;normalizer</title>
<g id="a_edge15"><a xlink:title="0 → 3">
<path fill="none" stroke="#4a4a4a" d="M485.85,-154.46C498.84,-151.19 514.9,-147.25 529.35,-144 607.23,-126.45 627.86,-127.25 705.35,-108 709.13,-107.06 713.04,-106.03 716.96,-104.97"/>
<polygon fill="#4a4a4a" stroke="#4a4a4a" points="717.97,-108.32 726.65,-102.26 716.08,-101.58 717.97,-108.32"/>
</a>
</g>
</g>
<!-- class&#45;&gt;no_feature_selection -->
<g id="edge2" class="edge">
<title>class&#45;&gt;no_feature_selection</title>
<g id="a_edge2"><a xlink:title="0 → 5">
<path fill="none" stroke="#4a4a4a" d="M485.75,-153.97C498.72,-150.58 514.79,-146.68 529.35,-144 657.94,-120.32 692.09,-127.76 821.35,-108 828.68,-106.88 836.32,-105.62 843.94,-104.32"/>
<polygon fill="#4a4a4a" stroke="#4a4a4a" points="844.65,-107.74 853.9,-102.58 843.45,-100.85 844.65,-107.74"/>
</a>
</g>
</g>
<!-- xgboost -->
<g id="node15" class="node">
<title>xgboost</title>
<g id="a_node15"><a xlink:title="(11) xgboost">
<ellipse fill="#404040" stroke="#4a4a4a" cx="38.35" cy="-90" rx="38.19" ry="18"/>
<text text-anchor="middle" x="38.35" y="-86.3" font-family="Times,serif" font-size="14.00" fill="white">xgboost</text>
</a>
</g>
</g>
<!-- xgboost&#45;&gt;gradient_boosting -->
<g id="edge11" class="edge">
<title>xgboost&#45;&gt;gradient_boosting</title>
<g id="a_edge11"><a xlink:title="11 → 10">
<path fill="none" stroke="#4a4a4a" d="M67.29,-78.07C73.23,-75.95 79.46,-73.83 85.35,-72 132.1,-57.44 185.74,-43.5 225.99,-33.56"/>
<polygon fill="#4a4a4a" stroke="#4a4a4a" points="227.05,-36.91 235.93,-31.13 225.38,-30.11 227.05,-36.91"/>
</a>
</g>
</g>
</g>
</svg>
