<?xml version="1.0" encoding="UTF-8" standalone="no"?>
<!DOCTYPE svg PUBLIC "-//W3C//DTD SVG 1.1//EN"
 "http://www.w3.org/Graphics/SVG/1.1/DTD/svg11.dtd">
<!-- Generated by graphviz version 2.43.0 (0)
 -->
<!-- Title: G Pages: 1 -->
<svg width="360pt" height="95pt"
 viewBox="0.00 0.00 360.00 94.64" xmlns="http://www.w3.org/2000/svg" xmlns:xlink="http://www.w3.org/1999/xlink">
<g id="graph0" class="graph" transform="scale(0.36 0.36) rotate(0) translate(4 256)">
<title>G</title>
<!-- svm -->
<g id="node1" class="node">
<title>svm</title>
<g id="a_node1"><a xlink:title="(14) svm">
<ellipse fill="#404040" stroke="#4a4a4a" cx="27" cy="-90" rx="27" ry="18"/>
<text text-anchor="middle" x="27" y="-86.3" font-family="Times,serif" font-size="14.00" fill="white">svm</text>
</a>
</g>
</g>
<!-- Fragments -->
<g id="node2" class="node">
<title>Fragments</title>
<g id="a_node2"><a xlink:title="(3) Fragments">
<ellipse fill="#404040" stroke="#4a4a4a" cx="715" cy="-162" rx="48.19" ry="18"/>
<text text-anchor="middle" x="715" y="-158.3" font-family="Times,serif" font-size="14.00" fill="white">Fragments</text>
</a>
</g>
</g>
<!-- General_Descriptors -->
<g id="node10" class="node">
<title>General_Descriptors</title>
<g id="a_node10"><a xlink:title="(1) General_Descriptors">
<ellipse fill="#404040" stroke="#4a4a4a" cx="872" cy="-90" rx="83.39" ry="18"/>
<text text-anchor="middle" x="872" y="-86.3" font-family="Times,serif" font-size="14.00" fill="white">General_Descriptors</text>
</a>
</g>
</g>
<!-- Fragments&#45;&gt;General_Descriptors -->
<g id="edge1" class="edge">
<title>Fragments&#45;&gt;General_Descriptors</title>
<g id="a_edge1"><a xlink:title="3 → 1">
<path fill="none" stroke="#4a4a4a" d="M744.9,-147.67C768.35,-137.21 801.35,-122.5 827.85,-110.69"/>
<polygon fill="#4a4a4a" stroke="#4a4a4a" points="829.58,-113.75 837.28,-106.48 826.73,-107.35 829.58,-113.75"/>
</a>
</g>
</g>
<!-- extra_trees -->
<g id="node3" class="node">
<title>extra_trees</title>
<g id="a_node3"><a xlink:title="(11) extra_trees">
<ellipse fill="#404040" stroke="#4a4a4a" cx="536" cy="-90" rx="49.29" ry="18"/>
<text text-anchor="middle" x="536" y="-86.3" font-family="Times,serif" font-size="14.00" fill="white">extra_trees</text>
</a>
</g>
</g>
<!-- gradient_boosting -->
<g id="node4" class="node">
<title>gradient_boosting</title>
<g id="a_node4"><a xlink:title="(12) gradient_boosting">
<ellipse fill="#404040" stroke="#4a4a4a" cx="460" cy="-18" rx="74.19" ry="18"/>
<text text-anchor="middle" x="460" y="-14.3" font-family="Times,serif" font-size="14.00" fill="white">gradient_boosting</text>
</a>
</g>
</g>
<!-- extra_trees&#45;&gt;gradient_boosting -->
<g id="edge23" class="edge">
<title>extra_trees&#45;&gt;gradient_boosting</title>
<g id="a_edge23"><a xlink:title="11 → 12">
<path fill="none" stroke="#4a4a4a" d="M518.75,-73.12C508.96,-64.09 496.51,-52.62 485.59,-42.57"/>
<polygon fill="#4a4a4a" stroke="#4a4a4a" points="487.7,-39.75 477.97,-35.55 482.95,-44.9 487.7,-39.75"/>
</a>
</g>
</g>
<!-- Advanced_Descriptors -->
<g id="node5" class="node">
<title>Advanced_Descriptors</title>
<g id="a_node5"><a xlink:title="(2) Advanced_Descriptors">
<ellipse fill="#404040" stroke="#4a4a4a" cx="872" cy="-162" rx="90.98" ry="18"/>
<text text-anchor="middle" x="872" y="-158.3" font-family="Times,serif" font-size="14.00" fill="white">Advanced_Descriptors</text>
</a>
</g>
</g>
<!-- Advanced_Descriptors&#45;&gt;General_Descriptors -->
<g id="edge17" class="edge">
<title>Advanced_Descriptors&#45;&gt;General_Descriptors</title>
<g id="a_edge17"><a xlink:title="2 → 1">
<path fill="none" stroke="#4a4a4a" d="M872,-143.7C872,-135.98 872,-126.71 872,-118.11"/>
<polygon fill="#4a4a4a" stroke="#4a4a4a" points="875.5,-118.1 872,-108.1 868.5,-118.1 875.5,-118.1"/>
</a>
</g>
</g>
<!-- extra_tree -->
<g id="node6" class="node">
<title>extra_tree</title>
<g id="a_node6"><a xlink:title="(10) extra_tree">
<ellipse fill="#404040" stroke="#4a4a4a" cx="118" cy="-90" rx="46.29" ry="18"/>
<text text-anchor="middle" x="118" y="-86.3" font-family="Times,serif" font-size="14.00" fill="white">extra_tree</text>
</a>
</g>
</g>
<!-- decision_tree -->
<g id="node7" class="node">
<title>decision_tree</title>
<g id="a_node7"><a xlink:title="(5) decision_tree">
<ellipse fill="#404040" stroke="#4a4a4a" cx="240" cy="-90" rx="57.69" ry="18"/>
<text text-anchor="middle" x="240" y="-86.3" font-family="Times,serif" font-size="14.00" fill="white">decision_tree</text>
</a>
</g>
</g>
<!-- normalizer -->
<g id="node12" class="node">
<title>normalizer</title>
<g id="a_node12"><a xlink:title="(4) normalizer">
<ellipse fill="#404040" stroke="#4a4a4a" cx="295" cy="-18" rx="49.29" ry="18"/>
<text text-anchor="middle" x="295" y="-14.3" font-family="Times,serif" font-size="14.00" fill="white">normalizer</text>
</a>
</g>
</g>
<!-- decision_tree&#45;&gt;normalizer -->
<g id="edge2" class="edge">
<title>decision_tree&#45;&gt;normalizer</title>
<g id="a_edge2"><a xlink:title="5 → 4">
<path fill="none" stroke="#4a4a4a" d="M253.03,-72.41C259.82,-63.78 268.24,-53.06 275.75,-43.5"/>
<polygon fill="#4a4a4a" stroke="#4a4a4a" points="278.63,-45.5 282.06,-35.47 273.13,-41.17 278.63,-45.5"/>
</a>
</g>
</g>
<!-- nu_svm -->
<g id="node8" class="node">
<title>nu_svm</title>
<g id="a_node8"><a xlink:title="(9) nu_svm">
<ellipse fill="#404040" stroke="#4a4a4a" cx="185" cy="-162" rx="38.99" ry="18"/>
<text text-anchor="middle" x="185" y="-158.3" font-family="Times,serif" font-size="14.00" fill="white">nu_svm</text>
</a>
</g>
</g>
<!-- nu_svm&#45;&gt;svm -->
<g id="edge7" class="edge">
<title>nu_svm&#45;&gt;svm</title>
<g id="a_edge7"><a xlink:title="9 → 14">
<path fill="none" stroke="#4a4a4a" d="M157.27,-149.25C132.47,-138.67 95.18,-122.58 63,-108 61.21,-107.19 59.36,-106.34 57.51,-105.49"/>
<polygon fill="#4a4a4a" stroke="#4a4a4a" points="58.81,-102.23 48.27,-101.18 55.85,-108.58 58.81,-102.23"/>
</a>
</g>
</g>
<!-- nu_svm&#45;&gt;extra_tree -->
<g id="edge14" class="edge">
<title>nu_svm&#45;&gt;extra_tree</title>
<g id="a_edge14"><a xlink:title="9 → 10">
<path fill="none" stroke="#4a4a4a" d="M169.8,-145.12C161.18,-136.12 150.24,-124.68 140.63,-114.65"/>
<polygon fill="#4a4a4a" stroke="#4a4a4a" points="143.05,-112.11 133.61,-107.31 137.99,-116.95 143.05,-112.11"/>
</a>
</g>
</g>
<!-- nu_svm&#45;&gt;decision_tree -->
<g id="edge4" class="edge">
<title>nu_svm&#45;&gt;decision_tree</title>
<g id="a_edge4"><a xlink:title="9 → 5">
<path fill="none" stroke="#4a4a4a" d="M197.76,-144.76C204.53,-136.14 213,-125.36 220.57,-115.73"/>
<polygon fill="#4a4a4a" stroke="#4a4a4a" points="223.5,-117.66 226.93,-107.63 218,-113.33 223.5,-117.66"/>
</a>
</g>
</g>
<!-- select_rfe -->
<g id="node9" class="node">
<title>select_rfe</title>
<g id="a_node9"><a xlink:title="(7) select_rfe">
<ellipse fill="#404040" stroke="#4a4a4a" cx="604" cy="-162" rx="44.69" ry="18"/>
<text text-anchor="middle" x="604" y="-158.3" font-family="Times,serif" font-size="14.00" fill="white">select_rfe</text>
</a>
</g>
</g>
<!-- no_feature_selection -->
<g id="node14" class="node">
<title>no_feature_selection</title>
<g id="a_node14"><a xlink:title="(6) no_feature_selection">
<ellipse fill="#404040" stroke="#4a4a4a" cx="687" cy="-90" rx="83.69" ry="18"/>
<text text-anchor="middle" x="687" y="-86.3" font-family="Times,serif" font-size="14.00" fill="white">no_feature_selection</text>
</a>
</g>
</g>
<!-- select_rfe&#45;&gt;no_feature_selection -->
<g id="edge19" class="edge">
<title>select_rfe&#45;&gt;no_feature_selection</title>
<g id="a_edge19"><a xlink:title="7 → 6">
<path fill="none" stroke="#4a4a4a" d="M622.42,-145.46C633.31,-136.28 647.31,-124.47 659.49,-114.2"/>
<polygon fill="#4a4a4a" stroke="#4a4a4a" points="661.79,-116.84 667.18,-107.71 657.28,-111.49 661.79,-116.84"/>
</a>
</g>
</g>
<!-- Graph_based_Signatures -->
<g id="node11" class="node">
<title>Graph_based_Signatures</title>
<g id="a_node11"><a xlink:title="(15) Graph_based_Signatures">
<ellipse fill="#404040" stroke="#4a4a4a" cx="522" cy="-234" rx="98.58" ry="18"/>
<text text-anchor="middle" x="522" y="-230.3" font-family="Times,serif" font-size="14.00" fill="white">Graph_based_Signatures</text>
</a>
</g>
</g>
<!-- class -->
<g id="node15" class="node">
<title>class</title>
<g id="a_node15"><a xlink:title="(0) class">
<ellipse fill="#404040" stroke="#4a4a4a" cx="350" cy="-162" rx="27.9" ry="18"/>
<text text-anchor="middle" x="350" y="-158.3" font-family="Times,serif" font-size="14.00" fill="white">class</text>
</a>
</g>
</g>
<!-- Graph_based_Signatures&#45;&gt;class -->
<g id="edge24" class="edge">
<title>Graph_based_Signatures&#45;&gt;class</title>
<g id="a_edge24"><a xlink:title="15 → 0">
<path fill="none" stroke="#4a4a4a" d="M483.4,-217.29C453.1,-204.96 411.38,-187.98 382.71,-176.31"/>
<polygon fill="#4a4a4a" stroke="#4a4a4a" points="383.73,-172.95 373.15,-172.42 381.09,-179.43 383.73,-172.95"/>
</a>
</g>
</g>
<!-- neural_networks -->
<g id="node13" class="node">
<title>neural_networks</title>
<g id="a_node13"><a xlink:title="(8) neural_networks">
<ellipse fill="#404040" stroke="#4a4a4a" cx="336" cy="-234" rx="69.59" ry="18"/>
<text text-anchor="middle" x="336" y="-230.3" font-family="Times,serif" font-size="14.00" fill="white">neural_networks</text>
</a>
</g>
</g>
<!-- neural_networks&#45;&gt;svm -->
<g id="edge15" class="edge">
<title>neural_networks&#45;&gt;svm</title>
<g id="a_edge15"><a xlink:title="8 → 14">
<path fill="none" stroke="#4a4a4a" d="M271.8,-226.71C226.28,-220.12 165,-206.77 117,-180 87.48,-163.54 60.94,-134.73 44.46,-114.36"/>
<polygon fill="#4a4a4a" stroke="#4a4a4a" points="47.18,-112.15 38.24,-106.47 41.69,-116.49 47.18,-112.15"/>
</a>
</g>
</g>
<!-- neural_networks&#45;&gt;extra_trees -->
<g id="edge12" class="edge">
<title>neural_networks&#45;&gt;extra_trees</title>
<g id="a_edge12"><a xlink:title="8 → 11">
<path fill="none" stroke="#4a4a4a" d="M358.94,-216.71C395.27,-190.92 466.01,-140.69 506.21,-112.15"/>
<polygon fill="#4a4a4a" stroke="#4a4a4a" points="508.41,-114.88 514.54,-106.24 504.36,-109.17 508.41,-114.88"/>
</a>
</g>
</g>
<!-- neural_networks&#45;&gt;gradient_boosting -->
<g id="edge6" class="edge">
<title>neural_networks&#45;&gt;gradient_boosting</title>
<g id="a_edge6"><a xlink:title="8 → 12">
<path fill="none" stroke="#4a4a4a" d="M384.9,-221.17C394.5,-219.18 404.53,-217.33 414,-216 475.53,-207.36 929.51,-225.32 972,-180 986.91,-164.09 981.57,-89.47 964,-72 934.77,-42.94 678.34,-28.03 542.95,-22.12"/>
<polygon fill="#4a4a4a" stroke="#4a4a4a" points="542.76,-18.61 532.62,-21.68 542.46,-25.6 542.76,-18.61"/>
</a>
</g>
</g>
<!-- neural_networks&#45;&gt;extra_tree -->
<g id="edge20" class="edge">
<title>neural_networks&#45;&gt;extra_tree</title>
<g id="a_edge20"><a xlink:title="8 → 10">
<path fill="none" stroke="#4a4a4a" d="M276.93,-224.22C225.47,-215.37 156.16,-200.14 137,-180 121.47,-163.68 117.35,-137.92 116.74,-118.31"/>
<polygon fill="#4a4a4a" stroke="#4a4a4a" points="120.24,-118.14 116.72,-108.15 113.24,-118.16 120.24,-118.14"/>
</a>
</g>
</g>
<!-- neural_networks&#45;&gt;decision_tree -->
<g id="edge11" class="edge">
<title>neural_networks&#45;&gt;decision_tree</title>
<g id="a_edge11"><a xlink:title="8 → 5">
<path fill="none" stroke="#4a4a4a" d="M324.61,-216.15C307.87,-191.39 276.49,-144.97 257.01,-116.16"/>
<polygon fill="#4a4a4a" stroke="#4a4a4a" points="259.87,-114.15 251.37,-107.82 254.08,-118.07 259.87,-114.15"/>
</a>
</g>
</g>
<!-- neural_networks&#45;&gt;no_feature_selection -->
<g id="edge8" class="edge">
<title>neural_networks&#45;&gt;no_feature_selection</title>
<g id="a_edge8"><a xlink:title="8 → 6">
<path fill="none" stroke="#4a4a4a" d="M370.73,-218.24C412.98,-200.36 486.52,-169.48 550,-144 579.19,-132.28 612.06,-119.55 638.29,-109.51"/>
<polygon fill="#4a4a4a" stroke="#4a4a4a" points="639.54,-112.77 647.63,-105.93 637.04,-106.24 639.54,-112.77"/>
</a>
</g>
</g>
<!-- neural_networks&#45;&gt;class -->
<g id="edge3" class="edge">
<title>neural_networks&#45;&gt;class</title>
<g id="a_edge3"><a xlink:title="8 → 0">
<path fill="none" stroke="#4a4a4a" d="M339.46,-215.7C341,-207.98 342.86,-198.71 344.58,-190.11"/>
<polygon fill="#4a4a4a" stroke="#4a4a4a" points="348.05,-190.6 346.58,-180.1 341.19,-189.22 348.05,-190.6"/>
</a>
</g>
</g>
<!-- class&#45;&gt;svm -->
<g id="edge9" class="edge">
<title>class&#45;&gt;svm</title>
<g id="a_edge9"><a xlink:title="0 → 14">
<path fill="none" stroke="#4a4a4a" d="M323.12,-156.95C261.5,-147.51 111.59,-123.67 63,-108 61.08,-107.38 59.12,-106.68 57.17,-105.92"/>
<polygon fill="#4a4a4a" stroke="#4a4a4a" points="58.14,-102.53 47.57,-101.83 55.39,-108.97 58.14,-102.53"/>
</a>
</g>
</g>
<!-- class&#45;&gt;extra_trees -->
<g id="edge10" class="edge">
<title>class&#45;&gt;extra_trees</title>
<g id="a_edge10"><a xlink:title="0 → 11">
<path fill="none" stroke="#4a4a4a" d="M373.56,-152.13C403.62,-140.82 456.17,-121.04 493.35,-107.05"/>
<polygon fill="#4a4a4a" stroke="#4a4a4a" points="494.8,-110.25 502.92,-103.45 492.33,-103.7 494.8,-110.25"/>
</a>
</g>
</g>
<!-- class&#45;&gt;gradient_boosting -->
<g id="edge22" class="edge">
<title>class&#45;&gt;gradient_boosting</title>
<g id="a_edge22"><a xlink:title="0 → 12">
<path fill="none" stroke="#4a4a4a" d="M353.06,-144.08C357.2,-124.97 366.09,-93.72 383,-72 392.98,-59.18 406.92,-48.29 420.21,-39.77"/>
<polygon fill="#4a4a4a" stroke="#4a4a4a" points="422.09,-42.72 428.79,-34.52 418.43,-36.75 422.09,-42.72"/>
</a>
</g>
</g>
<!-- class&#45;&gt;extra_tree -->
<g id="edge18" class="edge">
<title>class&#45;&gt;extra_tree</title>
<g id="a_edge18"><a xlink:title="0 → 10">
<path fill="none" stroke="#4a4a4a" d="M325.06,-153.61C290.78,-143.43 227.16,-124.48 173,-108 169.65,-106.98 166.18,-105.92 162.7,-104.85"/>
<polygon fill="#4a4a4a" stroke="#4a4a4a" points="163.49,-101.43 152.9,-101.84 161.43,-108.12 163.49,-101.43"/>
</a>
</g>
</g>
<!-- class&#45;&gt;decision_tree -->
<g id="edge5" class="edge">
<title>class&#45;&gt;decision_tree</title>
<g id="a_edge5"><a xlink:title="0 → 5">
<path fill="none" stroke="#4a4a4a" d="M330.84,-148.81C314.9,-138.66 291.84,-123.99 272.95,-111.97"/>
<polygon fill="#4a4a4a" stroke="#4a4a4a" points="274.64,-108.9 264.33,-106.48 270.88,-114.8 274.64,-108.9"/>
</a>
</g>
</g>
<!-- class&#45;&gt;General_Descriptors -->
<g id="edge13" class="edge">
<title>class&#45;&gt;General_Descriptors</title>
<g id="a_edge13"><a xlink:title="0 → 1">
<path fill="none" stroke="#4a4a4a" d="M377.5,-158.19C445.78,-151.09 628.53,-131.31 780,-108 787.26,-106.88 794.82,-105.63 802.35,-104.33"/>
<polygon fill="#4a4a4a" stroke="#4a4a4a" points="802.97,-107.77 812.21,-102.59 801.75,-100.88 802.97,-107.77"/>
</a>
</g>
</g>
<!-- class&#45;&gt;normalizer -->
<g id="edge16" class="edge">
<title>class&#45;&gt;normalizer</title>
<g id="a_edge16"><a xlink:title="0 → 4">
<path fill="none" stroke="#4a4a4a" d="M343.58,-144.43C334.15,-120.09 316.46,-74.4 305.23,-45.4"/>
<polygon fill="#4a4a4a" stroke="#4a4a4a" points="308.42,-43.96 301.55,-35.9 301.89,-46.49 308.42,-43.96"/>
</a>
</g>
</g>
<!-- class&#45;&gt;no_feature_selection -->
<g id="edge21" class="edge">
<title>class&#45;&gt;no_feature_selection</title>
<g id="a_edge21"><a xlink:title="0 → 6">
<path fill="none" stroke="#4a4a4a" d="M376.16,-155.57C427.82,-144.84 544.36,-120.63 619.15,-105.09"/>
<polygon fill="#4a4a4a" stroke="#4a4a4a" points="619.88,-108.52 628.96,-103.06 618.45,-101.66 619.88,-108.52"/>
</a>
</g>
</g>
<!-- xgboost -->
<g id="node16" class="node">
<title>xgboost</title>
<g id="a_node16"><a xlink:title="(13) xgboost">
<ellipse fill="#404040" stroke="#4a4a4a" cx="430" cy="-90" rx="38.19" ry="18"/>
<text text-anchor="middle" x="430" y="-86.3" font-family="Times,serif" font-size="14.00" fill="white">xgboost</text>
</a>
</g>
</g>
<!-- xgboost&#45;&gt;gradient_boosting -->
<g id="edge25" class="edge">
<title>xgboost&#45;&gt;gradient_boosting</title>
<g id="a_edge25"><a xlink:title="13 → 12">
<path fill="none" stroke="#4a4a4a" d="M437.26,-72.05C440.68,-64.09 444.82,-54.41 448.64,-45.51"/>
<polygon fill="#4a4a4a" stroke="#4a4a4a" points="451.87,-46.85 452.6,-36.28 445.44,-44.09 451.87,-46.85"/>
</a>
</g>
</g>
</g>
</svg>
