<?xml version="1.0" encoding="UTF-8" standalone="no"?>
<!DOCTYPE svg PUBLIC "-//W3C//DTD SVG 1.1//EN"
 "http://www.w3.org/Graphics/SVG/1.1/DTD/svg11.dtd">
<!-- Generated by graphviz version 2.43.0 (0)
 -->
<!-- Title: G Pages: 1 -->
<svg width="320pt" height="188pt"
 viewBox="0.00 0.00 319.89 188.00" xmlns="http://www.w3.org/2000/svg" xmlns:xlink="http://www.w3.org/1999/xlink">
<g id="graph0" class="graph" transform="scale(1 1) rotate(0) translate(4 184)">
<title>G</title>
<!-- gradient_boosting -->
<g id="node1" class="node">
<title>gradient_boosting</title>
<g id="a_node1"><a xlink:title="(1) gradient_boosting">
<ellipse fill="#404040" stroke="#4a4a4a" cx="214.34" cy="-18" rx="74.19" ry="18"/>
<text text-anchor="middle" x="214.34" y="-14.3" font-family="Times,serif" font-size="14.00" fill="white">gradient_boosting</text>
</a>
</g>
</g>
<!-- variance_threshold -->
<g id="node2" class="node">
<title>variance_threshold</title>
<g id="a_node2"><a xlink:title="(3) variance_threshold">
<ellipse fill="#404040" stroke="#4a4a4a" cx="77.34" cy="-162" rx="77.19" ry="18"/>
<text text-anchor="middle" x="77.34" y="-158.3" font-family="Times,serif" font-size="14.00" fill="white">variance_threshold</text>
</a>
</g>
</g>
<!-- class -->
<g id="node3" class="node">
<title>class</title>
<g id="a_node3"><a xlink:title="(0) class">
<ellipse fill="#404040" stroke="#4a4a4a" cx="186.34" cy="-90" rx="27.9" ry="18"/>
<text text-anchor="middle" x="186.34" y="-86.3" font-family="Times,serif" font-size="14.00" fill="white">class</text>
</a>
</g>
</g>
<!-- variance_threshold&#45;&gt;class -->
<g id="edge4" class="edge">
<title>variance_threshold&#45;&gt;class</title>
<g id="a_edge4"><a xlink:title="3 → 0">
<path fill="none" stroke="#4a4a4a" d="M102.35,-144.94C119.16,-134.15 141.32,-119.92 158.66,-108.78"/>
<polygon fill="#4a4a4a" stroke="#4a4a4a" points="160.71,-111.62 167.23,-103.28 156.92,-105.73 160.71,-111.62"/>
</a>
</g>
</g>
<!-- class&#45;&gt;gradient_boosting -->
<g id="edge1" class="edge">
<title>class&#45;&gt;gradient_boosting</title>
<g id="a_edge1"><a xlink:title="0 → 1">
<path fill="none" stroke="#4a4a4a" d="M192.98,-72.41C196.21,-64.34 200.17,-54.43 203.8,-45.35"/>
<polygon fill="#4a4a4a" stroke="#4a4a4a" points="207.1,-46.54 207.56,-35.96 200.6,-43.94 207.1,-46.54"/>
</a>
</g>
</g>
<!-- neural_networks -->
<g id="node4" class="node">
<title>neural_networks</title>
<g id="a_node4"><a xlink:title="(2) neural_networks">
<ellipse fill="#404040" stroke="#4a4a4a" cx="242.34" cy="-162" rx="69.59" ry="18"/>
<text text-anchor="middle" x="242.34" y="-158.3" font-family="Times,serif" font-size="14.00" fill="white">neural_networks</text>
</a>
</g>
</g>
<!-- neural_networks&#45;&gt;gradient_boosting -->
<g id="edge3" class="edge">
<title>neural_networks&#45;&gt;gradient_boosting</title>
<g id="a_edge3"><a xlink:title="2 → 1">
<path fill="none" stroke="#4a4a4a" d="M238.97,-143.87C234.17,-119.56 225.35,-74.82 219.67,-46.01"/>
<polygon fill="#4a4a4a" stroke="#4a4a4a" points="223.1,-45.32 217.73,-36.19 216.23,-46.68 223.1,-45.32"/>
</a>
</g>
</g>
<!-- neural_networks&#45;&gt;class -->
<g id="edge2" class="edge">
<title>neural_networks&#45;&gt;class</title>
<g id="a_edge2"><a xlink:title="2 → 0">
<path fill="none" stroke="#4a4a4a" d="M228.79,-144.05C221.68,-135.17 212.86,-124.14 205.1,-114.45"/>
<polygon fill="#4a4a4a" stroke="#4a4a4a" points="207.61,-111.98 198.63,-106.36 202.14,-116.35 207.61,-111.98"/>
</a>
</g>
</g>
</g>
</svg>
