<?xml version="1.0" encoding="UTF-8" standalone="no"?>
<!DOCTYPE svg PUBLIC "-//W3C//DTD SVG 1.1//EN"
 "http://www.w3.org/Graphics/SVG/1.1/DTD/svg11.dtd">
<!-- Generated by graphviz version 2.43.0 (0)
 -->
<!-- Title: G Pages: 1 -->
<svg width="302pt" height="188pt"
 viewBox="0.00 0.00 302.39 188.00" xmlns="http://www.w3.org/2000/svg" xmlns:xlink="http://www.w3.org/1999/xlink">
<g id="graph0" class="graph" transform="scale(1 1) rotate(0) translate(4 184)">
<title>G</title>
<!-- gradient_boosting -->
<g id="node1" class="node">
<title>gradient_boosting</title>
<g id="a_node1"><a xlink:title="(1) gradient_boosting">
<ellipse fill="#404040" stroke="#4a4a4a" cx="109.84" cy="-18" rx="74.19" ry="18"/>
<text text-anchor="middle" x="109.84" y="-14.3" font-family="Times,serif" font-size="14.00" fill="white">gradient_boosting</text>
</a>
</g>
</g>
<!-- robust_scaler -->
<g id="node2" class="node">
<title>robust_scaler</title>
<g id="a_node2"><a xlink:title="(2) robust_scaler">
<ellipse fill="#404040" stroke="#4a4a4a" cx="57.84" cy="-90" rx="57.69" ry="18"/>
<text text-anchor="middle" x="57.84" y="-86.3" font-family="Times,serif" font-size="14.00" fill="white">robust_scaler</text>
</a>
</g>
</g>
<!-- robust_scaler&#45;&gt;gradient_boosting -->
<g id="edge3" class="edge">
<title>robust_scaler&#45;&gt;gradient_boosting</title>
<g id="a_edge3"><a xlink:title="2 → 1">
<path fill="none" stroke="#4a4a4a" d="M70.17,-72.41C76.42,-63.99 84.15,-53.58 91.12,-44.2"/>
<polygon fill="#4a4a4a" stroke="#4a4a4a" points="94.1,-46.07 97.25,-35.96 88.48,-41.9 94.1,-46.07"/>
</a>
</g>
</g>
<!-- nu_svm -->
<g id="node3" class="node">
<title>nu_svm</title>
<g id="a_node3"><a xlink:title="(4) nu_svm">
<ellipse fill="#404040" stroke="#4a4a4a" cx="97.84" cy="-162" rx="38.99" ry="18"/>
<text text-anchor="middle" x="97.84" y="-158.3" font-family="Times,serif" font-size="14.00" fill="white">nu_svm</text>
</a>
</g>
</g>
<!-- class -->
<g id="node5" class="node">
<title>class</title>
<g id="a_node5"><a xlink:title="(0) class">
<ellipse fill="#404040" stroke="#4a4a4a" cx="161.84" cy="-90" rx="27.9" ry="18"/>
<text text-anchor="middle" x="161.84" y="-86.3" font-family="Times,serif" font-size="14.00" fill="white">class</text>
</a>
</g>
</g>
<!-- nu_svm&#45;&gt;class -->
<g id="edge2" class="edge">
<title>nu_svm&#45;&gt;class</title>
<g id="a_edge2"><a xlink:title="4 → 0">
<path fill="none" stroke="#4a4a4a" d="M112.37,-145.12C120.95,-135.73 131.95,-123.7 141.4,-113.36"/>
<polygon fill="#4a4a4a" stroke="#4a4a4a" points="144.09,-115.61 148.25,-105.86 138.92,-110.88 144.09,-115.61"/>
</a>
</g>
</g>
<!-- neural_networks -->
<g id="node4" class="node">
<title>neural_networks</title>
<g id="a_node4"><a xlink:title="(3) neural_networks">
<ellipse fill="#404040" stroke="#4a4a4a" cx="224.84" cy="-162" rx="69.59" ry="18"/>
<text text-anchor="middle" x="224.84" y="-158.3" font-family="Times,serif" font-size="14.00" fill="white">neural_networks</text>
</a>
</g>
</g>
<!-- neural_networks&#45;&gt;class -->
<g id="edge4" class="edge">
<title>neural_networks&#45;&gt;class</title>
<g id="a_edge4"><a xlink:title="3 → 0">
<path fill="none" stroke="#4a4a4a" d="M209.91,-144.41C201.65,-135.22 191.25,-123.67 182.24,-113.66"/>
<polygon fill="#4a4a4a" stroke="#4a4a4a" points="184.67,-111.13 175.38,-106.04 179.47,-115.81 184.67,-111.13"/>
</a>
</g>
</g>
<!-- class&#45;&gt;gradient_boosting -->
<g id="edge1" class="edge">
<title>class&#45;&gt;gradient_boosting</title>
<g id="a_edge1"><a xlink:title="0 → 1">
<path fill="none" stroke="#4a4a4a" d="M150.3,-73.46C143.92,-64.87 135.82,-53.97 128.56,-44.19"/>
<polygon fill="#4a4a4a" stroke="#4a4a4a" points="131.22,-41.9 122.45,-35.96 125.6,-46.08 131.22,-41.9"/>
</a>
</g>
</g>
</g>
</svg>
