<?xml version="1.0" encoding="UTF-8" standalone="no"?>
<!DOCTYPE svg PUBLIC "-//W3C//DTD SVG 1.1//EN"
 "http://www.w3.org/Graphics/SVG/1.1/DTD/svg11.dtd">
<!-- Generated by graphviz version 2.43.0 (0)
 -->
<!-- Title: G Pages: 1 -->
<svg width="360pt" height="213pt"
 viewBox="0.00 0.00 360.00 212.54" xmlns="http://www.w3.org/2000/svg" xmlns:xlink="http://www.w3.org/1999/xlink">
<g id="graph0" class="graph" transform="scale(0.82 0.82) rotate(0) translate(4 256)">
<title>G</title>
<!-- gradient_boosting -->
<g id="node1" class="node">
<title>gradient_boosting</title>
<g id="a_node1"><a xlink:title="(5) gradient_boosting">
<ellipse fill="#404040" stroke="#4a4a4a" cx="124.54" cy="-18" rx="74.19" ry="18"/>
<text text-anchor="middle" x="124.54" y="-14.3" font-family="Times,serif" font-size="14.00" fill="white">gradient_boosting</text>
</a>
</g>
</g>
<!-- extra_trees -->
<g id="node2" class="node">
<title>extra_trees</title>
<g id="a_node2"><a xlink:title="(1) extra_trees">
<ellipse fill="#404040" stroke="#4a4a4a" cx="124.54" cy="-90" rx="49.29" ry="18"/>
<text text-anchor="middle" x="124.54" y="-86.3" font-family="Times,serif" font-size="14.00" fill="white">extra_trees</text>
</a>
</g>
</g>
<!-- extra_trees&#45;&gt;gradient_boosting -->
<g id="edge4" class="edge">
<title>extra_trees&#45;&gt;gradient_boosting</title>
<g id="a_edge4"><a xlink:title="1 → 5">
<path fill="none" stroke="#4a4a4a" d="M124.54,-71.7C124.54,-63.98 124.54,-54.71 124.54,-46.11"/>
<polygon fill="#4a4a4a" stroke="#4a4a4a" points="128.04,-46.1 124.54,-36.1 121.04,-46.1 128.04,-46.1"/>
</a>
</g>
</g>
<!-- random_rorest -->
<g id="node3" class="node">
<title>random_rorest</title>
<g id="a_node3"><a xlink:title="(4) random_rorest">
<ellipse fill="#404040" stroke="#4a4a4a" cx="312.54" cy="-162" rx="62.29" ry="18"/>
<text text-anchor="middle" x="312.54" y="-158.3" font-family="Times,serif" font-size="14.00" fill="white">random_rorest</text>
</a>
</g>
</g>
<!-- General_Descriptors -->
<g id="node5" class="node">
<title>General_Descriptors</title>
<g id="a_node5"><a xlink:title="(3) General_Descriptors">
<ellipse fill="#404040" stroke="#4a4a4a" cx="312.54" cy="-90" rx="83.39" ry="18"/>
<text text-anchor="middle" x="312.54" y="-86.3" font-family="Times,serif" font-size="14.00" fill="white">General_Descriptors</text>
</a>
</g>
</g>
<!-- random_rorest&#45;&gt;General_Descriptors -->
<g id="edge3" class="edge">
<title>random_rorest&#45;&gt;General_Descriptors</title>
<g id="a_edge3"><a xlink:title="4 → 3">
<path fill="none" stroke="#4a4a4a" d="M312.54,-143.7C312.54,-135.98 312.54,-126.71 312.54,-118.11"/>
<polygon fill="#4a4a4a" stroke="#4a4a4a" points="316.04,-118.1 312.54,-108.1 309.04,-118.1 316.04,-118.1"/>
</a>
</g>
</g>
<!-- select_rfe -->
<g id="node4" class="node">
<title>select_rfe</title>
<g id="a_node4"><a xlink:title="(6) select_rfe">
<ellipse fill="#404040" stroke="#4a4a4a" cx="201.54" cy="-234" rx="44.69" ry="18"/>
<text text-anchor="middle" x="201.54" y="-230.3" font-family="Times,serif" font-size="14.00" fill="white">select_rfe</text>
</a>
</g>
</g>
<!-- class -->
<g id="node8" class="node">
<title>class</title>
<g id="a_node8"><a xlink:title="(0) class">
<ellipse fill="#404040" stroke="#4a4a4a" cx="201.54" cy="-162" rx="27.9" ry="18"/>
<text text-anchor="middle" x="201.54" y="-158.3" font-family="Times,serif" font-size="14.00" fill="white">class</text>
</a>
</g>
</g>
<!-- select_rfe&#45;&gt;class -->
<g id="edge9" class="edge">
<title>select_rfe&#45;&gt;class</title>
<g id="a_edge9"><a xlink:title="6 → 0">
<path fill="none" stroke="#4a4a4a" d="M201.54,-215.7C201.54,-207.98 201.54,-198.71 201.54,-190.11"/>
<polygon fill="#4a4a4a" stroke="#4a4a4a" points="205.04,-190.1 201.54,-180.1 198.04,-190.1 205.04,-190.1"/>
</a>
</g>
</g>
<!-- neural_networks -->
<g id="node6" class="node">
<title>neural_networks</title>
<g id="a_node6"><a xlink:title="(2) neural_networks">
<ellipse fill="#404040" stroke="#4a4a4a" cx="69.54" cy="-234" rx="69.59" ry="18"/>
<text text-anchor="middle" x="69.54" y="-230.3" font-family="Times,serif" font-size="14.00" fill="white">neural_networks</text>
</a>
</g>
</g>
<!-- neural_networks&#45;&gt;gradient_boosting -->
<g id="edge10" class="edge">
<title>neural_networks&#45;&gt;gradient_boosting</title>
<g id="a_edge10"><a xlink:title="2 → 5">
<path fill="none" stroke="#4a4a4a" d="M64.66,-215.62C57.02,-185.06 45.23,-120.35 66.54,-72 71.75,-60.2 81.01,-49.89 90.64,-41.58"/>
<polygon fill="#4a4a4a" stroke="#4a4a4a" points="93.12,-44.07 98.72,-35.07 88.74,-38.61 93.12,-44.07"/>
</a>
</g>
</g>
<!-- neural_networks&#45;&gt;extra_trees -->
<g id="edge2" class="edge">
<title>neural_networks&#45;&gt;extra_trees</title>
<g id="a_edge2"><a xlink:title="2 → 1">
<path fill="none" stroke="#4a4a4a" d="M76.18,-215.87C85.63,-191.46 103.08,-146.43 114.23,-117.64"/>
<polygon fill="#4a4a4a" stroke="#4a4a4a" points="117.54,-118.78 117.89,-108.19 111.01,-116.25 117.54,-118.78"/>
</a>
</g>
</g>
<!-- neural_networks&#45;&gt;class -->
<g id="edge7" class="edge">
<title>neural_networks&#45;&gt;class</title>
<g id="a_edge7"><a xlink:title="2 → 0">
<path fill="none" stroke="#4a4a4a" d="M98.84,-217.46C120.41,-206.03 149.65,-190.52 171.41,-178.98"/>
<polygon fill="#4a4a4a" stroke="#4a4a4a" points="173.34,-181.92 180.53,-174.14 170.06,-175.74 173.34,-181.92"/>
</a>
</g>
</g>
<!-- no_feature_selection -->
<g id="node7" class="node">
<title>no_feature_selection</title>
<g id="a_node7"><a xlink:title="(7) no_feature_selection">
<ellipse fill="#404040" stroke="#4a4a4a" cx="348.54" cy="-234" rx="83.69" ry="18"/>
<text text-anchor="middle" x="348.54" y="-230.3" font-family="Times,serif" font-size="14.00" fill="white">no_feature_selection</text>
</a>
</g>
</g>
<!-- no_feature_selection&#45;&gt;class -->
<g id="edge6" class="edge">
<title>no_feature_selection&#45;&gt;class</title>
<g id="a_edge6"><a xlink:title="7 → 0">
<path fill="none" stroke="#4a4a4a" d="M315.55,-217.29C290.74,-205.48 256.98,-189.4 232.64,-177.81"/>
<polygon fill="#4a4a4a" stroke="#4a4a4a" points="234.02,-174.59 223.49,-173.45 231.01,-180.91 234.02,-174.59"/>
</a>
</g>
</g>
<!-- class&#45;&gt;gradient_boosting -->
<g id="edge8" class="edge">
<title>class&#45;&gt;gradient_boosting</title>
<g id="a_edge8"><a xlink:title="0 → 5">
<path fill="none" stroke="#4a4a4a" d="M200.96,-143.83C199.65,-125.05 195.51,-94.62 182.54,-72 175.96,-60.51 166.03,-50.12 156.24,-41.64"/>
<polygon fill="#4a4a4a" stroke="#4a4a4a" points="158.44,-38.91 148.49,-35.26 153.99,-44.32 158.44,-38.91"/>
</a>
</g>
</g>
<!-- class&#45;&gt;extra_trees -->
<g id="edge1" class="edge">
<title>class&#45;&gt;extra_trees</title>
<g id="a_edge1"><a xlink:title="0 → 1">
<path fill="none" stroke="#4a4a4a" d="M185.96,-146.83C175.51,-137.33 161.51,-124.6 149.52,-113.7"/>
<polygon fill="#4a4a4a" stroke="#4a4a4a" points="151.74,-110.99 141.98,-106.85 147.03,-116.17 151.74,-110.99"/>
</a>
</g>
</g>
<!-- class&#45;&gt;General_Descriptors -->
<g id="edge5" class="edge">
<title>class&#45;&gt;General_Descriptors</title>
<g id="a_edge5"><a xlink:title="0 → 3">
<path fill="none" stroke="#4a4a4a" d="M220.88,-148.81C236.64,-138.87 259.3,-124.57 278.15,-112.69"/>
<polygon fill="#4a4a4a" stroke="#4a4a4a" points="280.18,-115.55 286.77,-107.25 276.45,-109.63 280.18,-115.55"/>
</a>
</g>
</g>
</g>
</svg>
