<?xml version="1.0" encoding="UTF-8" standalone="no"?>
<!DOCTYPE svg PUBLIC "-//W3C//DTD SVG 1.1//EN"
 "http://www.w3.org/Graphics/SVG/1.1/DTD/svg11.dtd">
<!-- Generated by graphviz version 2.43.0 (0)
 -->
<!-- Title: G Pages: 1 -->
<svg width="360pt" height="133pt"
 viewBox="0.00 0.00 360.00 133.27" xmlns="http://www.w3.org/2000/svg" xmlns:xlink="http://www.w3.org/1999/xlink">
<g id="graph0" class="graph" transform="scale(0.4 0.4) rotate(0) translate(4 328)">
<title>G</title>
<!-- svm -->
<g id="node1" class="node">
<title>svm</title>
<g id="a_node1"><a xlink:title="(13) svm">
<ellipse fill="#404040" stroke="#4a4a4a" cx="182.82" cy="-162" rx="27" ry="18"/>
<text text-anchor="middle" x="182.82" y="-158.3" font-family="Times,serif" font-size="14.00" fill="white">svm</text>
</a>
</g>
</g>
<!-- Fragments -->
<g id="node2" class="node">
<title>Fragments</title>
<g id="a_node2"><a xlink:title="(3) Fragments">
<ellipse fill="#404040" stroke="#4a4a4a" cx="640.82" cy="-234" rx="48.19" ry="18"/>
<text text-anchor="middle" x="640.82" y="-230.3" font-family="Times,serif" font-size="14.00" fill="white">Fragments</text>
</a>
</g>
</g>
<!-- General_Descriptors -->
<g id="node11" class="node">
<title>General_Descriptors</title>
<g id="a_node11"><a xlink:title="(1) General_Descriptors">
<ellipse fill="#404040" stroke="#4a4a4a" cx="700.82" cy="-162" rx="83.39" ry="18"/>
<text text-anchor="middle" x="700.82" y="-158.3" font-family="Times,serif" font-size="14.00" fill="white">General_Descriptors</text>
</a>
</g>
</g>
<!-- Fragments&#45;&gt;General_Descriptors -->
<g id="edge2" class="edge">
<title>Fragments&#45;&gt;General_Descriptors</title>
<g id="a_edge2"><a xlink:title="3 → 1">
<path fill="none" stroke="#4a4a4a" d="M654.73,-216.76C662.09,-208.18 671.28,-197.46 679.51,-187.86"/>
<polygon fill="#4a4a4a" stroke="#4a4a4a" points="682.29,-189.99 686.14,-180.12 676.97,-185.44 682.29,-189.99"/>
</a>
</g>
</g>
<!-- extra_trees -->
<g id="node3" class="node">
<title>extra_trees</title>
<g id="a_node3"><a xlink:title="(9) extra_trees">
<ellipse fill="#404040" stroke="#4a4a4a" cx="375.82" cy="-18" rx="49.29" ry="18"/>
<text text-anchor="middle" x="375.82" y="-14.3" font-family="Times,serif" font-size="14.00" fill="white">extra_trees</text>
</a>
</g>
</g>
<!-- gradient_boosting -->
<g id="node4" class="node">
<title>gradient_boosting</title>
<g id="a_node4"><a xlink:title="(10) gradient_boosting">
<ellipse fill="#404040" stroke="#4a4a4a" cx="411.82" cy="-162" rx="74.19" ry="18"/>
<text text-anchor="middle" x="411.82" y="-158.3" font-family="Times,serif" font-size="14.00" fill="white">gradient_boosting</text>
</a>
</g>
</g>
<!-- gradient_boosting&#45;&gt;extra_trees -->
<g id="edge5" class="edge">
<title>gradient_boosting&#45;&gt;extra_trees</title>
<g id="a_edge5"><a xlink:title="10 → 9">
<path fill="none" stroke="#4a4a4a" d="M360.62,-148.82C339.2,-140.93 316.41,-128.21 303.82,-108 295.35,-94.42 296.6,-86.28 303.82,-72 311.11,-57.57 324.39,-46.11 337.58,-37.59"/>
<polygon fill="#4a4a4a" stroke="#4a4a4a" points="339.41,-40.57 346.17,-32.41 335.8,-34.57 339.41,-40.57"/>
</a>
</g>
</g>
<!-- xgboost -->
<g id="node16" class="node">
<title>xgboost</title>
<g id="a_node16"><a xlink:title="(11) xgboost">
<ellipse fill="#404040" stroke="#4a4a4a" cx="467.82" cy="-90" rx="38.19" ry="18"/>
<text text-anchor="middle" x="467.82" y="-86.3" font-family="Times,serif" font-size="14.00" fill="white">xgboost</text>
</a>
</g>
</g>
<!-- gradient_boosting&#45;&gt;xgboost -->
<g id="edge14" class="edge">
<title>gradient_boosting&#45;&gt;xgboost</title>
<g id="a_edge14"><a xlink:title="10 → 11">
<path fill="none" stroke="#4a4a4a" d="M425.37,-144.05C432.28,-135.42 440.81,-124.76 448.4,-115.27"/>
<polygon fill="#4a4a4a" stroke="#4a4a4a" points="451.26,-117.3 454.77,-107.31 445.79,-112.93 451.26,-117.3"/>
</a>
</g>
</g>
<!-- Advanced_Descriptors -->
<g id="node5" class="node">
<title>Advanced_Descriptors</title>
<g id="a_node5"><a xlink:title="(2) Advanced_Descriptors">
<ellipse fill="#404040" stroke="#4a4a4a" cx="797.82" cy="-234" rx="90.98" ry="18"/>
<text text-anchor="middle" x="797.82" y="-230.3" font-family="Times,serif" font-size="14.00" fill="white">Advanced_Descriptors</text>
</a>
</g>
</g>
<!-- Advanced_Descriptors&#45;&gt;General_Descriptors -->
<g id="edge16" class="edge">
<title>Advanced_Descriptors&#45;&gt;General_Descriptors</title>
<g id="a_edge16"><a xlink:title="2 → 1">
<path fill="none" stroke="#4a4a4a" d="M774.83,-216.41C762.02,-207.17 745.9,-195.54 731.98,-185.49"/>
<polygon fill="#4a4a4a" stroke="#4a4a4a" points="733.8,-182.48 723.64,-179.47 729.7,-188.16 733.8,-182.48"/>
</a>
</g>
</g>
<!-- extra_tree -->
<g id="node6" class="node">
<title>extra_tree</title>
<g id="a_node6"><a xlink:title="(8) extra_tree">
<ellipse fill="#404040" stroke="#4a4a4a" cx="273.82" cy="-162" rx="46.29" ry="18"/>
<text text-anchor="middle" x="273.82" y="-158.3" font-family="Times,serif" font-size="14.00" fill="white">extra_tree</text>
</a>
</g>
</g>
<!-- decision_tree -->
<g id="node7" class="node">
<title>decision_tree</title>
<g id="a_node7"><a xlink:title="(5) decision_tree">
<ellipse fill="#404040" stroke="#4a4a4a" cx="79.82" cy="-162" rx="57.69" ry="18"/>
<text text-anchor="middle" x="79.82" y="-158.3" font-family="Times,serif" font-size="14.00" fill="white">decision_tree</text>
</a>
</g>
</g>
<!-- normalizer -->
<g id="node12" class="node">
<title>normalizer</title>
<g id="a_node12"><a xlink:title="(4) normalizer">
<ellipse fill="#404040" stroke="#4a4a4a" cx="361.82" cy="-90" rx="49.29" ry="18"/>
<text text-anchor="middle" x="361.82" y="-86.3" font-family="Times,serif" font-size="14.00" fill="white">normalizer</text>
</a>
</g>
</g>
<!-- decision_tree&#45;&gt;normalizer -->
<g id="edge3" class="edge">
<title>decision_tree&#45;&gt;normalizer</title>
<g id="a_edge3"><a xlink:title="5 → 4">
<path fill="none" stroke="#4a4a4a" d="M123.05,-149.98C130.96,-147.98 139.13,-145.92 146.82,-144 203.39,-129.85 268.4,-113.86 311.99,-103.18"/>
<polygon fill="#4a4a4a" stroke="#4a4a4a" points="312.89,-106.56 321.77,-100.78 311.23,-99.76 312.89,-106.56"/>
</a>
</g>
</g>
<!-- nu_svm -->
<g id="node8" class="node">
<title>nu_svm</title>
<g id="a_node8"><a xlink:title="(7) nu_svm">
<ellipse fill="#404040" stroke="#4a4a4a" cx="183.82" cy="-234" rx="38.99" ry="18"/>
<text text-anchor="middle" x="183.82" y="-230.3" font-family="Times,serif" font-size="14.00" fill="white">nu_svm</text>
</a>
</g>
</g>
<!-- nu_svm&#45;&gt;svm -->
<g id="edge11" class="edge">
<title>nu_svm&#45;&gt;svm</title>
<g id="a_edge11"><a xlink:title="7 → 13">
<path fill="none" stroke="#4a4a4a" d="M183.57,-215.7C183.46,-207.98 183.33,-198.71 183.2,-190.11"/>
<polygon fill="#4a4a4a" stroke="#4a4a4a" points="186.7,-190.05 183.06,-180.1 179.7,-190.15 186.7,-190.05"/>
</a>
</g>
</g>
<!-- nu_svm&#45;&gt;extra_tree -->
<g id="edge27" class="edge">
<title>nu_svm&#45;&gt;extra_tree</title>
<g id="a_edge27"><a xlink:title="7 → 8">
<path fill="none" stroke="#4a4a4a" d="M202.9,-218.15C215.5,-208.36 232.2,-195.37 246.23,-184.45"/>
<polygon fill="#4a4a4a" stroke="#4a4a4a" points="248.39,-187.21 254.13,-178.31 244.09,-181.68 248.39,-187.21"/>
</a>
</g>
</g>
<!-- nu_svm&#45;&gt;decision_tree -->
<g id="edge25" class="edge">
<title>nu_svm&#45;&gt;decision_tree</title>
<g id="a_edge25"><a xlink:title="7 → 5">
<path fill="none" stroke="#4a4a4a" d="M162.77,-218.83C148.01,-208.9 128.02,-195.45 111.36,-184.23"/>
<polygon fill="#4a4a4a" stroke="#4a4a4a" points="113.25,-181.29 103,-178.61 109.34,-187.09 113.25,-181.29"/>
</a>
</g>
</g>
<!-- random_rorest -->
<g id="node9" class="node">
<title>random_rorest</title>
<g id="a_node9"><a xlink:title="(12) random_rorest">
<ellipse fill="#404040" stroke="#4a4a4a" cx="340.82" cy="-234" rx="62.29" ry="18"/>
<text text-anchor="middle" x="340.82" y="-230.3" font-family="Times,serif" font-size="14.00" fill="white">random_rorest</text>
</a>
</g>
</g>
<!-- random_rorest&#45;&gt;gradient_boosting -->
<g id="edge1" class="edge">
<title>random_rorest&#45;&gt;gradient_boosting</title>
<g id="a_edge1"><a xlink:title="12 → 10">
<path fill="none" stroke="#4a4a4a" d="M357.64,-216.41C366.53,-207.65 377.6,-196.73 387.41,-187.06"/>
<polygon fill="#4a4a4a" stroke="#4a4a4a" points="389.95,-189.47 394.62,-179.96 385.04,-184.48 389.95,-189.47"/>
</a>
</g>
</g>
<!-- select_rfe -->
<g id="node10" class="node">
<title>select_rfe</title>
<g id="a_node10"><a xlink:title="(14) select_rfe">
<ellipse fill="#404040" stroke="#4a4a4a" cx="559.82" cy="-306" rx="44.69" ry="18"/>
<text text-anchor="middle" x="559.82" y="-302.3" font-family="Times,serif" font-size="14.00" fill="white">select_rfe</text>
</a>
</g>
</g>
<!-- class -->
<g id="node15" class="node">
<title>class</title>
<g id="a_node15"><a xlink:title="(0) class">
<ellipse fill="#404040" stroke="#4a4a4a" cx="486.82" cy="-234" rx="27.9" ry="18"/>
<text text-anchor="middle" x="486.82" y="-230.3" font-family="Times,serif" font-size="14.00" fill="white">class</text>
</a>
</g>
</g>
<!-- select_rfe&#45;&gt;class -->
<g id="edge12" class="edge">
<title>select_rfe&#45;&gt;class</title>
<g id="a_edge12"><a xlink:title="14 → 0">
<path fill="none" stroke="#4a4a4a" d="M543.25,-289.12C533.13,-279.41 520.07,-266.89 509.06,-256.33"/>
<polygon fill="#4a4a4a" stroke="#4a4a4a" points="511.47,-253.79 501.83,-249.39 506.62,-258.84 511.47,-253.79"/>
</a>
</g>
</g>
<!-- neural_networks -->
<g id="node13" class="node">
<title>neural_networks</title>
<g id="a_node13"><a xlink:title="(6) neural_networks">
<ellipse fill="#404040" stroke="#4a4a4a" cx="116.82" cy="-306" rx="69.59" ry="18"/>
<text text-anchor="middle" x="116.82" y="-302.3" font-family="Times,serif" font-size="14.00" fill="white">neural_networks</text>
</a>
</g>
</g>
<!-- neural_networks&#45;&gt;svm -->
<g id="edge19" class="edge">
<title>neural_networks&#45;&gt;svm</title>
<g id="a_edge19"><a xlink:title="6 → 13">
<path fill="none" stroke="#4a4a4a" d="M117.89,-287.74C119.62,-269.15 124.13,-239.13 135.82,-216 141.8,-204.17 151.07,-192.9 159.81,-183.82"/>
<polygon fill="#4a4a4a" stroke="#4a4a4a" points="162.31,-186.27 166.94,-176.75 157.38,-181.31 162.31,-186.27"/>
</a>
</g>
</g>
<!-- neural_networks&#45;&gt;extra_trees -->
<g id="edge26" class="edge">
<title>neural_networks&#45;&gt;extra_trees</title>
<g id="a_edge26"><a xlink:title="6 → 9">
<path fill="none" stroke="#4a4a4a" d="M92.65,-288.91C51.57,-259.56 -23.99,-195.61 12.82,-144 82.2,-46.72 232.42,-24.39 316.24,-19.74"/>
<polygon fill="#4a4a4a" stroke="#4a4a4a" points="316.55,-23.23 326.37,-19.25 316.21,-16.24 316.55,-23.23"/>
</a>
</g>
</g>
<!-- neural_networks&#45;&gt;gradient_boosting -->
<g id="edge20" class="edge">
<title>neural_networks&#45;&gt;gradient_boosting</title>
<g id="a_edge20"><a xlink:title="6 → 10">
<path fill="none" stroke="#4a4a4a" d="M185.41,-302.52C263.37,-298.1 383.52,-285.83 411.82,-252 425.93,-235.12 424.34,-209.48 420.15,-190.05"/>
<polygon fill="#4a4a4a" stroke="#4a4a4a" points="423.53,-189.12 417.72,-180.26 416.74,-190.81 423.53,-189.12"/>
</a>
</g>
</g>
<!-- neural_networks&#45;&gt;extra_tree -->
<g id="edge10" class="edge">
<title>neural_networks&#45;&gt;extra_tree</title>
<g id="a_edge10"><a xlink:title="6 → 8">
<path fill="none" stroke="#4a4a4a" d="M162.41,-292.26C185.53,-283.91 212.69,-270.96 231.82,-252 249.1,-234.87 260.15,-209.26 266.55,-189.9"/>
<polygon fill="#4a4a4a" stroke="#4a4a4a" points="269.96,-190.75 269.57,-180.16 263.27,-188.68 269.96,-190.75"/>
</a>
</g>
</g>
<!-- neural_networks&#45;&gt;decision_tree -->
<g id="edge8" class="edge">
<title>neural_networks&#45;&gt;decision_tree</title>
<g id="a_edge8"><a xlink:title="6 → 5">
<path fill="none" stroke="#4a4a4a" d="M112.25,-287.82C109.5,-277.45 105.94,-263.97 102.82,-252 97.4,-231.29 91.35,-207.84 86.81,-190.21"/>
<polygon fill="#4a4a4a" stroke="#4a4a4a" points="90.08,-188.88 84.2,-180.07 83.3,-190.63 90.08,-188.88"/>
</a>
</g>
</g>
<!-- neural_networks&#45;&gt;class -->
<g id="edge24" class="edge">
<title>neural_networks&#45;&gt;class</title>
<g id="a_edge24"><a xlink:title="6 → 0">
<path fill="none" stroke="#4a4a4a" d="M180.91,-298.95C247.7,-291.64 354.95,-277.1 444.82,-252 448.18,-251.06 451.63,-249.94 455.05,-248.72"/>
<polygon fill="#4a4a4a" stroke="#4a4a4a" points="456.38,-251.96 464.47,-245.13 453.88,-245.42 456.38,-251.96"/>
</a>
</g>
</g>
<!-- neural_networks&#45;&gt;xgboost -->
<g id="edge9" class="edge">
<title>neural_networks&#45;&gt;xgboost</title>
<g id="a_edge9"><a xlink:title="6 → 11">
<path fill="none" stroke="#4a4a4a" d="M92.81,-288.92C50.16,-258.47 -30.44,-191.25 12.82,-144 43.47,-110.51 375.46,-117.65 419.82,-108 423.2,-107.26 426.67,-106.35 430.13,-105.34"/>
<polygon fill="#4a4a4a" stroke="#4a4a4a" points="431.27,-108.65 439.73,-102.28 429.14,-101.98 431.27,-108.65"/>
</a>
</g>
</g>
<!-- no_feature_selection -->
<g id="node14" class="node">
<title>no_feature_selection</title>
<g id="a_node14"><a xlink:title="(15) no_feature_selection">
<ellipse fill="#404040" stroke="#4a4a4a" cx="412.82" cy="-306" rx="83.69" ry="18"/>
<text text-anchor="middle" x="412.82" y="-302.3" font-family="Times,serif" font-size="14.00" fill="white">no_feature_selection</text>
</a>
</g>
</g>
<!-- no_feature_selection&#45;&gt;class -->
<g id="edge23" class="edge">
<title>no_feature_selection&#45;&gt;class</title>
<g id="a_edge23"><a xlink:title="15 → 0">
<path fill="none" stroke="#4a4a4a" d="M430.73,-288.05C440.78,-278.55 453.42,-266.59 464.15,-256.44"/>
<polygon fill="#4a4a4a" stroke="#4a4a4a" points="466.71,-258.84 471.57,-249.42 461.9,-253.75 466.71,-258.84"/>
</a>
</g>
</g>
<!-- class&#45;&gt;svm -->
<g id="edge18" class="edge">
<title>class&#45;&gt;svm</title>
<g id="a_edge18"><a xlink:title="0 → 13">
<path fill="none" stroke="#4a4a4a" d="M460.84,-226.85C446.42,-223.51 428.16,-219.38 411.82,-216 326.36,-198.35 301.84,-206.85 218.82,-180 216.89,-179.38 214.94,-178.68 212.99,-177.92"/>
<polygon fill="#4a4a4a" stroke="#4a4a4a" points="213.96,-174.53 203.39,-173.82 211.21,-180.97 213.96,-174.53"/>
</a>
</g>
</g>
<!-- class&#45;&gt;extra_trees -->
<g id="edge21" class="edge">
<title>class&#45;&gt;extra_trees</title>
<g id="a_edge21"><a xlink:title="0 → 9">
<path fill="none" stroke="#4a4a4a" d="M506.38,-221.1C519.69,-211.77 536.21,-197.47 543.82,-180 563.67,-134.44 550.28,-106.81 514.82,-72 491.82,-49.42 458.21,-36.26 429.8,-28.71"/>
<polygon fill="#4a4a4a" stroke="#4a4a4a" points="430.55,-25.28 420,-26.26 428.86,-32.08 430.55,-25.28"/>
</a>
</g>
</g>
<!-- class&#45;&gt;gradient_boosting -->
<g id="edge17" class="edge">
<title>class&#45;&gt;gradient_boosting</title>
<g id="a_edge17"><a xlink:title="0 → 10">
<path fill="none" stroke="#4a4a4a" d="M471.64,-218.83C461.76,-209.62 448.64,-197.37 437.2,-186.69"/>
<polygon fill="#4a4a4a" stroke="#4a4a4a" points="439.31,-183.87 429.61,-179.61 434.53,-188.99 439.31,-183.87"/>
</a>
</g>
</g>
<!-- class&#45;&gt;extra_tree -->
<g id="edge6" class="edge">
<title>class&#45;&gt;extra_tree</title>
<g id="a_edge6"><a xlink:title="0 → 8">
<path fill="none" stroke="#4a4a4a" d="M462.38,-224.97C427.13,-213.38 361.44,-191.8 317.66,-177.41"/>
<polygon fill="#4a4a4a" stroke="#4a4a4a" points="318.72,-174.07 308.13,-174.28 316.54,-180.72 318.72,-174.07"/>
</a>
</g>
</g>
<!-- class&#45;&gt;decision_tree -->
<g id="edge4" class="edge">
<title>class&#45;&gt;decision_tree</title>
<g id="a_edge4"><a xlink:title="0 → 5">
<path fill="none" stroke="#4a4a4a" d="M461.24,-226.62C446.8,-223.16 428.37,-218.99 411.82,-216 294.85,-194.84 263.5,-202.65 146.82,-180 141.86,-179.04 136.73,-177.93 131.61,-176.76"/>
<polygon fill="#4a4a4a" stroke="#4a4a4a" points="132.36,-173.34 121.83,-174.43 130.74,-180.15 132.36,-173.34"/>
</a>
</g>
</g>
<!-- class&#45;&gt;General_Descriptors -->
<g id="edge13" class="edge">
<title>class&#45;&gt;General_Descriptors</title>
<g id="a_edge13"><a xlink:title="0 → 1">
<path fill="none" stroke="#4a4a4a" d="M511.36,-224.97C544.33,-214.19 603.8,-194.74 647.34,-180.49"/>
<polygon fill="#4a4a4a" stroke="#4a4a4a" points="648.51,-183.79 656.92,-177.36 646.33,-177.14 648.51,-183.79"/>
</a>
</g>
</g>
<!-- class&#45;&gt;normalizer -->
<g id="edge15" class="edge">
<title>class&#45;&gt;normalizer</title>
<g id="a_edge15"><a xlink:title="0 → 4">
<path fill="none" stroke="#4a4a4a" d="M494.19,-216.33C501.43,-197.16 509.44,-165.57 494.82,-144 489.49,-136.14 443.11,-118.77 406.6,-106.05"/>
<polygon fill="#4a4a4a" stroke="#4a4a4a" points="407.68,-102.72 397.09,-102.76 405.4,-109.34 407.68,-102.72"/>
</a>
</g>
</g>
<!-- class&#45;&gt;xgboost -->
<g id="edge7" class="edge">
<title>class&#45;&gt;xgboost</title>
<g id="a_edge7"><a xlink:title="0 → 11">
<path fill="none" stroke="#4a4a4a" d="M502.02,-218.85C511.45,-208.99 522.7,-194.97 527.82,-180 532.99,-164.86 534.39,-158.59 527.82,-144 521.81,-130.67 510.6,-119.35 499.49,-110.63"/>
<polygon fill="#4a4a4a" stroke="#4a4a4a" points="501.24,-107.57 491.1,-104.49 497.1,-113.22 501.24,-107.57"/>
</a>
</g>
</g>
<!-- xgboost&#45;&gt;extra_trees -->
<g id="edge22" class="edge">
<title>xgboost&#45;&gt;extra_trees</title>
<g id="a_edge22"><a xlink:title="11 → 9">
<path fill="none" stroke="#4a4a4a" d="M448.3,-74.15C435.52,-64.43 418.59,-51.54 404.31,-40.68"/>
<polygon fill="#4a4a4a" stroke="#4a4a4a" points="406.33,-37.82 396.25,-34.55 402.09,-43.39 406.33,-37.82"/>
</a>
</g>
</g>
</g>
</svg>
