<?xml version="1.0" encoding="UTF-8" standalone="no"?>
<!DOCTYPE svg PUBLIC "-//W3C//DTD SVG 1.1//EN"
 "http://www.w3.org/Graphics/SVG/1.1/DTD/svg11.dtd">
<!-- Generated by graphviz version 2.43.0 (0)
 -->
<!-- Title: G Pages: 1 -->
<svg width="306pt" height="188pt"
 viewBox="0.00 0.00 305.69 188.00" xmlns="http://www.w3.org/2000/svg" xmlns:xlink="http://www.w3.org/1999/xlink">
<g id="graph0" class="graph" transform="scale(1 1) rotate(0) translate(4 184)">
<title>G</title>
<!-- gradient_boosting -->
<g id="node1" class="node">
<title>gradient_boosting</title>
<g id="a_node1"><a xlink:title="(1) gradient_boosting">
<ellipse fill="#404040" stroke="#4a4a4a" cx="89.84" cy="-18" rx="74.19" ry="18"/>
<text text-anchor="middle" x="89.84" y="-14.3" font-family="Times,serif" font-size="14.00" fill="white">gradient_boosting</text>
</a>
</g>
</g>
<!-- robust_scaler -->
<g id="node2" class="node">
<title>robust_scaler</title>
<g id="a_node2"><a xlink:title="(2) robust_scaler">
<ellipse fill="#404040" stroke="#4a4a4a" cx="57.84" cy="-90" rx="57.69" ry="18"/>
<text text-anchor="middle" x="57.84" y="-86.3" font-family="Times,serif" font-size="14.00" fill="white">robust_scaler</text>
</a>
</g>
</g>
<!-- robust_scaler&#45;&gt;gradient_boosting -->
<g id="edge2" class="edge">
<title>robust_scaler&#45;&gt;gradient_boosting</title>
<g id="a_edge2"><a xlink:title="2 → 1">
<path fill="none" stroke="#4a4a4a" d="M65.59,-72.05C69.23,-64.09 73.66,-54.41 77.73,-45.51"/>
<polygon fill="#4a4a4a" stroke="#4a4a4a" points="80.97,-46.83 81.95,-36.28 74.61,-43.91 80.97,-46.83"/>
</a>
</g>
</g>
<!-- select_rfe -->
<g id="node3" class="node">
<title>select_rfe</title>
<g id="a_node3"><a xlink:title="(4) select_rfe">
<ellipse fill="#404040" stroke="#4a4a4a" cx="252.84" cy="-90" rx="44.69" ry="18"/>
<text text-anchor="middle" x="252.84" y="-86.3" font-family="Times,serif" font-size="14.00" fill="white">select_rfe</text>
</a>
</g>
</g>
<!-- xgboost -->
<g id="node6" class="node">
<title>xgboost</title>
<g id="a_node6"><a xlink:title="(3) xgboost">
<ellipse fill="#404040" stroke="#4a4a4a" cx="235.84" cy="-18" rx="38.19" ry="18"/>
<text text-anchor="middle" x="235.84" y="-14.3" font-family="Times,serif" font-size="14.00" fill="white">xgboost</text>
</a>
</g>
</g>
<!-- select_rfe&#45;&gt;xgboost -->
<g id="edge3" class="edge">
<title>select_rfe&#45;&gt;xgboost</title>
<g id="a_edge3"><a xlink:title="4 → 3">
<path fill="none" stroke="#4a4a4a" d="M248.73,-72.05C246.84,-64.26 244.54,-54.82 242.42,-46.08"/>
<polygon fill="#4a4a4a" stroke="#4a4a4a" points="245.8,-45.17 240.04,-36.28 239,-46.82 245.8,-45.17"/>
</a>
</g>
</g>
<!-- neural_networks -->
<g id="node4" class="node">
<title>neural_networks</title>
<g id="a_node4"><a xlink:title="(5) neural_networks">
<ellipse fill="#404040" stroke="#4a4a4a" cx="161.84" cy="-162" rx="69.59" ry="18"/>
<text text-anchor="middle" x="161.84" y="-158.3" font-family="Times,serif" font-size="14.00" fill="white">neural_networks</text>
</a>
</g>
</g>
<!-- class -->
<g id="node5" class="node">
<title>class</title>
<g id="a_node5"><a xlink:title="(0) class">
<ellipse fill="#404040" stroke="#4a4a4a" cx="161.84" cy="-90" rx="27.9" ry="18"/>
<text text-anchor="middle" x="161.84" y="-86.3" font-family="Times,serif" font-size="14.00" fill="white">class</text>
</a>
</g>
</g>
<!-- neural_networks&#45;&gt;class -->
<g id="edge5" class="edge">
<title>neural_networks&#45;&gt;class</title>
<g id="a_edge5"><a xlink:title="5 → 0">
<path fill="none" stroke="#4a4a4a" d="M161.84,-143.7C161.84,-135.98 161.84,-126.71 161.84,-118.11"/>
<polygon fill="#4a4a4a" stroke="#4a4a4a" points="165.34,-118.1 161.84,-108.1 158.34,-118.1 165.34,-118.1"/>
</a>
</g>
</g>
<!-- class&#45;&gt;gradient_boosting -->
<g id="edge1" class="edge">
<title>class&#45;&gt;gradient_boosting</title>
<g id="a_edge1"><a xlink:title="0 → 1">
<path fill="none" stroke="#4a4a4a" d="M146.93,-74.5C137.49,-65.32 125.07,-53.24 114.22,-42.7"/>
<polygon fill="#4a4a4a" stroke="#4a4a4a" points="116.63,-40.16 107.02,-35.7 111.75,-45.18 116.63,-40.16"/>
</a>
</g>
</g>
<!-- class&#45;&gt;xgboost -->
<g id="edge4" class="edge">
<title>class&#45;&gt;xgboost</title>
<g id="a_edge4"><a xlink:title="0 → 3">
<path fill="none" stroke="#4a4a4a" d="M177.18,-74.5C187.22,-65 200.55,-52.38 211.97,-41.58"/>
<polygon fill="#4a4a4a" stroke="#4a4a4a" points="214.65,-43.87 219.51,-34.46 209.84,-38.79 214.65,-43.87"/>
</a>
</g>
</g>
</g>
</svg>
