<?xml version="1.0" encoding="UTF-8" standalone="no"?>
<!DOCTYPE svg PUBLIC "-//W3C//DTD SVG 1.1//EN"
 "http://www.w3.org/Graphics/SVG/1.1/DTD/svg11.dtd">
<!-- Generated by graphviz version 2.43.0 (0)
 -->
<!-- Title: G Pages: 1 -->
<svg width="360pt" height="148pt"
 viewBox="0.00 0.00 360.00 148.12" xmlns="http://www.w3.org/2000/svg" xmlns:xlink="http://www.w3.org/1999/xlink">
<g id="graph0" class="graph" transform="scale(0.79 0.79) rotate(0) translate(4 184)">
<title>G</title>
<!-- gradient_boosting -->
<g id="node1" class="node">
<title>gradient_boosting</title>
<g id="a_node1"><a xlink:title="(2) gradient_boosting">
<ellipse fill="#404040" stroke="#4a4a4a" cx="74.09" cy="-90" rx="74.19" ry="18"/>
<text text-anchor="middle" x="74.09" y="-86.3" font-family="Times,serif" font-size="14.00" fill="white">gradient_boosting</text>
</a>
</g>
</g>
<!-- extra_trees -->
<g id="node2" class="node">
<title>extra_trees</title>
<g id="a_node2"><a xlink:title="(1) extra_trees">
<ellipse fill="#404040" stroke="#4a4a4a" cx="134.09" cy="-18" rx="49.29" ry="18"/>
<text text-anchor="middle" x="134.09" y="-14.3" font-family="Times,serif" font-size="14.00" fill="white">extra_trees</text>
</a>
</g>
</g>
<!-- gradient_boosting&#45;&gt;extra_trees -->
<g id="edge3" class="edge">
<title>gradient_boosting&#45;&gt;extra_trees</title>
<g id="a_edge3"><a xlink:title="2 → 1">
<path fill="none" stroke="#4a4a4a" d="M88.62,-72.05C96.1,-63.33 105.34,-52.54 113.54,-42.98"/>
<polygon fill="#4a4a4a" stroke="#4a4a4a" points="116.27,-45.18 120.12,-35.31 110.95,-40.62 116.27,-45.18"/>
</a>
</g>
</g>
<!-- nu_svm -->
<g id="node3" class="node">
<title>nu_svm</title>
<g id="a_node3"><a xlink:title="(5) nu_svm">
<ellipse fill="#404040" stroke="#4a4a4a" cx="67.09" cy="-162" rx="38.99" ry="18"/>
<text text-anchor="middle" x="67.09" y="-158.3" font-family="Times,serif" font-size="14.00" fill="white">nu_svm</text>
</a>
</g>
</g>
<!-- class -->
<g id="node6" class="node">
<title>class</title>
<g id="a_node6"><a xlink:title="(0) class">
<ellipse fill="#404040" stroke="#4a4a4a" cx="194.09" cy="-90" rx="27.9" ry="18"/>
<text text-anchor="middle" x="194.09" y="-86.3" font-family="Times,serif" font-size="14.00" fill="white">class</text>
</a>
</g>
</g>
<!-- nu_svm&#45;&gt;class -->
<g id="edge5" class="edge">
<title>nu_svm&#45;&gt;class</title>
<g id="a_edge5"><a xlink:title="5 → 0">
<path fill="none" stroke="#4a4a4a" d="M91.28,-147.67C112.06,-136.21 142.1,-119.66 164.35,-107.39"/>
<polygon fill="#4a4a4a" stroke="#4a4a4a" points="166.29,-110.32 173.36,-102.43 162.91,-104.19 166.29,-110.32"/>
</a>
</g>
</g>
<!-- neural_networks -->
<g id="node4" class="node">
<title>neural_networks</title>
<g id="a_node4"><a xlink:title="(4) neural_networks">
<ellipse fill="#404040" stroke="#4a4a4a" cx="194.09" cy="-162" rx="69.59" ry="18"/>
<text text-anchor="middle" x="194.09" y="-158.3" font-family="Times,serif" font-size="14.00" fill="white">neural_networks</text>
</a>
</g>
</g>
<!-- neural_networks&#45;&gt;class -->
<g id="edge2" class="edge">
<title>neural_networks&#45;&gt;class</title>
<g id="a_edge2"><a xlink:title="4 → 0">
<path fill="none" stroke="#4a4a4a" d="M194.09,-143.7C194.09,-135.98 194.09,-126.71 194.09,-118.11"/>
<polygon fill="#4a4a4a" stroke="#4a4a4a" points="197.59,-118.1 194.09,-108.1 190.59,-118.1 197.59,-118.1"/>
</a>
</g>
</g>
<!-- no_feature_selection -->
<g id="node5" class="node">
<title>no_feature_selection</title>
<g id="a_node5"><a xlink:title="(3) no_feature_selection">
<ellipse fill="#404040" stroke="#4a4a4a" cx="365.09" cy="-162" rx="83.69" ry="18"/>
<text text-anchor="middle" x="365.09" y="-158.3" font-family="Times,serif" font-size="14.00" fill="white">no_feature_selection</text>
</a>
</g>
</g>
<!-- no_feature_selection&#45;&gt;class -->
<g id="edge4" class="edge">
<title>no_feature_selection&#45;&gt;class</title>
<g id="a_edge4"><a xlink:title="3 → 0">
<path fill="none" stroke="#4a4a4a" d="M327.99,-145.81C297.76,-133.44 255.5,-116.14 226.59,-104.3"/>
<polygon fill="#4a4a4a" stroke="#4a4a4a" points="227.55,-100.91 216.97,-100.36 224.9,-107.39 227.55,-100.91"/>
</a>
</g>
</g>
<!-- class&#45;&gt;extra_trees -->
<g id="edge1" class="edge">
<title>class&#45;&gt;extra_trees</title>
<g id="a_edge1"><a xlink:title="0 → 1">
<path fill="none" stroke="#4a4a4a" d="M181.07,-73.81C173.46,-64.93 163.67,-53.5 155,-43.39"/>
<polygon fill="#4a4a4a" stroke="#4a4a4a" points="157.51,-40.94 148.35,-35.63 152.2,-45.5 157.51,-40.94"/>
</a>
</g>
</g>
</g>
</svg>
