<?xml version="1.0" encoding="UTF-8" standalone="no"?>
<!DOCTYPE svg PUBLIC "-//W3C//DTD SVG 1.1//EN"
 "http://www.w3.org/Graphics/SVG/1.1/DTD/svg11.dtd">
<!-- Generated by graphviz version 2.43.0 (0)
 -->
<!-- Title: G Pages: 1 -->
<svg width="360pt" height="203pt"
 viewBox="0.00 0.00 360.00 203.07" xmlns="http://www.w3.org/2000/svg" xmlns:xlink="http://www.w3.org/1999/xlink">
<g id="graph0" class="graph" transform="scale(0.78 0.78) rotate(0) translate(4 256)">
<title>G</title>
<!-- gradient_boosting -->
<g id="node1" class="node">
<title>gradient_boosting</title>
<g id="a_node1"><a xlink:title="(4) gradient_boosting">
<ellipse fill="#404040" stroke="#4a4a4a" cx="74.09" cy="-18" rx="74.19" ry="18"/>
<text text-anchor="middle" x="74.09" y="-14.3" font-family="Times,serif" font-size="14.00" fill="white">gradient_boosting</text>
</a>
</g>
</g>
<!-- extra_trees -->
<g id="node2" class="node">
<title>extra_trees</title>
<g id="a_node2"><a xlink:title="(1) extra_trees">
<ellipse fill="#404040" stroke="#4a4a4a" cx="74.09" cy="-90" rx="49.29" ry="18"/>
<text text-anchor="middle" x="74.09" y="-86.3" font-family="Times,serif" font-size="14.00" fill="white">extra_trees</text>
</a>
</g>
</g>
<!-- extra_trees&#45;&gt;gradient_boosting -->
<g id="edge7" class="edge">
<title>extra_trees&#45;&gt;gradient_boosting</title>
<g id="a_edge7"><a xlink:title="1 → 4">
<path fill="none" stroke="#4a4a4a" d="M74.09,-71.7C74.09,-63.98 74.09,-54.71 74.09,-46.11"/>
<polygon fill="#4a4a4a" stroke="#4a4a4a" points="77.59,-46.1 74.09,-36.1 70.59,-46.1 77.59,-46.1"/>
</a>
</g>
</g>
<!-- select_rfe -->
<g id="node3" class="node">
<title>select_rfe</title>
<g id="a_node3"><a xlink:title="(5) select_rfe">
<ellipse fill="#404040" stroke="#4a4a4a" cx="222.09" cy="-234" rx="44.69" ry="18"/>
<text text-anchor="middle" x="222.09" y="-230.3" font-family="Times,serif" font-size="14.00" fill="white">select_rfe</text>
</a>
</g>
</g>
<!-- class -->
<g id="node7" class="node">
<title>class</title>
<g id="a_node7"><a xlink:title="(0) class">
<ellipse fill="#404040" stroke="#4a4a4a" cx="223.09" cy="-162" rx="27.9" ry="18"/>
<text text-anchor="middle" x="223.09" y="-158.3" font-family="Times,serif" font-size="14.00" fill="white">class</text>
</a>
</g>
</g>
<!-- select_rfe&#45;&gt;class -->
<g id="edge9" class="edge">
<title>select_rfe&#45;&gt;class</title>
<g id="a_edge9"><a xlink:title="5 → 0">
<path fill="none" stroke="#4a4a4a" d="M222.34,-215.7C222.45,-207.98 222.58,-198.71 222.71,-190.11"/>
<polygon fill="#4a4a4a" stroke="#4a4a4a" points="226.21,-190.15 222.85,-180.1 219.21,-190.05 226.21,-190.15"/>
</a>
</g>
</g>
<!-- General_Descriptors -->
<g id="node4" class="node">
<title>General_Descriptors</title>
<g id="a_node4"><a xlink:title="(3) General_Descriptors">
<ellipse fill="#404040" stroke="#4a4a4a" cx="225.09" cy="-90" rx="83.39" ry="18"/>
<text text-anchor="middle" x="225.09" y="-86.3" font-family="Times,serif" font-size="14.00" fill="white">General_Descriptors</text>
</a>
</g>
</g>
<!-- neural_networks -->
<g id="node5" class="node">
<title>neural_networks</title>
<g id="a_node5"><a xlink:title="(2) neural_networks">
<ellipse fill="#404040" stroke="#4a4a4a" cx="85.09" cy="-234" rx="69.59" ry="18"/>
<text text-anchor="middle" x="85.09" y="-230.3" font-family="Times,serif" font-size="14.00" fill="white">neural_networks</text>
</a>
</g>
</g>
<!-- neural_networks&#45;&gt;gradient_boosting -->
<g id="edge2" class="edge">
<title>neural_networks&#45;&gt;gradient_boosting</title>
<g id="a_edge2"><a xlink:title="2 → 4">
<path fill="none" stroke="#4a4a4a" d="M71.99,-215.99C55.19,-193 26.92,-150.01 16.09,-108 12.1,-92.51 9.64,-86.64 16.09,-72 21.29,-60.2 30.56,-49.89 40.19,-41.58"/>
<polygon fill="#4a4a4a" stroke="#4a4a4a" points="42.67,-44.07 48.27,-35.07 38.29,-38.61 42.67,-44.07"/>
</a>
</g>
</g>
<!-- neural_networks&#45;&gt;extra_trees -->
<g id="edge4" class="edge">
<title>neural_networks&#45;&gt;extra_trees</title>
<g id="a_edge4"><a xlink:title="2 → 1">
<path fill="none" stroke="#4a4a4a" d="M83.77,-215.87C81.89,-191.67 78.45,-147.21 76.22,-118.39"/>
<polygon fill="#4a4a4a" stroke="#4a4a4a" points="79.69,-117.89 75.42,-108.19 72.71,-118.43 79.69,-117.89"/>
</a>
</g>
</g>
<!-- neural_networks&#45;&gt;General_Descriptors -->
<g id="edge8" class="edge">
<title>neural_networks&#45;&gt;General_Descriptors</title>
<g id="a_edge8"><a xlink:title="2 → 3">
<path fill="none" stroke="#4a4a4a" d="M101.43,-216.43C126.06,-191.45 172.84,-143.99 201.28,-115.16"/>
<polygon fill="#4a4a4a" stroke="#4a4a4a" points="203.9,-117.48 208.43,-107.9 198.92,-112.57 203.9,-117.48"/>
</a>
</g>
</g>
<!-- neural_networks&#45;&gt;class -->
<g id="edge6" class="edge">
<title>neural_networks&#45;&gt;class</title>
<g id="a_edge6"><a xlink:title="2 → 0">
<path fill="none" stroke="#4a4a4a" d="M115.38,-217.64C138.39,-205.97 169.9,-189.98 192.89,-178.32"/>
<polygon fill="#4a4a4a" stroke="#4a4a4a" points="194.53,-181.41 201.86,-173.77 191.36,-175.17 194.53,-181.41"/>
</a>
</g>
</g>
<!-- no_feature_selection -->
<g id="node6" class="node">
<title>no_feature_selection</title>
<g id="a_node6"><a xlink:title="(6) no_feature_selection">
<ellipse fill="#404040" stroke="#4a4a4a" cx="369.09" cy="-234" rx="83.69" ry="18"/>
<text text-anchor="middle" x="369.09" y="-230.3" font-family="Times,serif" font-size="14.00" fill="white">no_feature_selection</text>
</a>
</g>
</g>
<!-- no_feature_selection&#45;&gt;class -->
<g id="edge10" class="edge">
<title>no_feature_selection&#45;&gt;class</title>
<g id="a_edge10"><a xlink:title="6 → 0">
<path fill="none" stroke="#4a4a4a" d="M336.33,-217.29C311.69,-205.48 278.15,-189.4 253.98,-177.81"/>
<polygon fill="#4a4a4a" stroke="#4a4a4a" points="255.42,-174.62 244.89,-173.45 252.39,-180.93 255.42,-174.62"/>
</a>
</g>
</g>
<!-- class&#45;&gt;gradient_boosting -->
<g id="edge3" class="edge">
<title>class&#45;&gt;gradient_boosting</title>
<g id="a_edge3"><a xlink:title="0 → 4">
<path fill="none" stroke="#4a4a4a" d="M248.6,-154.47C271.08,-147.21 302.45,-133.07 317.09,-108 325.16,-94.18 327.13,-84.46 317.09,-72 296.73,-46.71 216.44,-32.85 153.66,-25.71"/>
<polygon fill="#4a4a4a" stroke="#4a4a4a" points="153.67,-22.19 143.35,-24.58 152.9,-29.15 153.67,-22.19"/>
</a>
</g>
</g>
<!-- class&#45;&gt;extra_trees -->
<g id="edge1" class="edge">
<title>class&#45;&gt;extra_trees</title>
<g id="a_edge1"><a xlink:title="0 → 1">
<path fill="none" stroke="#4a4a4a" d="M201.11,-150.67C177.76,-139.7 140.42,-122.16 112.25,-108.93"/>
<polygon fill="#4a4a4a" stroke="#4a4a4a" points="113.62,-105.7 103.08,-104.62 110.65,-112.04 113.62,-105.7"/>
</a>
</g>
</g>
<!-- class&#45;&gt;General_Descriptors -->
<g id="edge5" class="edge">
<title>class&#45;&gt;General_Descriptors</title>
<g id="a_edge5"><a xlink:title="0 → 3">
<path fill="none" stroke="#4a4a4a" d="M223.59,-143.7C223.81,-135.98 224.07,-126.71 224.32,-118.11"/>
<polygon fill="#4a4a4a" stroke="#4a4a4a" points="227.82,-118.2 224.6,-108.1 220.82,-118 227.82,-118.2"/>
</a>
</g>
</g>
</g>
</svg>
