<?xml version="1.0" encoding="UTF-8" standalone="no"?>
<!DOCTYPE svg PUBLIC "-//W3C//DTD SVG 1.1//EN"
 "http://www.w3.org/Graphics/SVG/1.1/DTD/svg11.dtd">
<!-- Generated by graphviz version 2.43.0 (0)
 -->
<!-- Title: G Pages: 1 -->
<svg width="332pt" height="188pt"
 viewBox="0.00 0.00 332.39 188.00" xmlns="http://www.w3.org/2000/svg" xmlns:xlink="http://www.w3.org/1999/xlink">
<g id="graph0" class="graph" transform="scale(1 1) rotate(0) translate(4 184)">
<title>G</title>
<!-- nu_svm -->
<g id="node1" class="node">
<title>nu_svm</title>
<g id="a_node1"><a xlink:title="(3) nu_svm">
<ellipse fill="#404040" stroke="#4a4a4a" cx="168.84" cy="-162" rx="38.99" ry="18"/>
<text text-anchor="middle" x="168.84" y="-158.3" font-family="Times,serif" font-size="14.00" fill="white">nu_svm</text>
</a>
</g>
</g>
<!-- class -->
<g id="node3" class="node">
<title>class</title>
<g id="a_node3"><a xlink:title="(0) class">
<ellipse fill="#404040" stroke="#4a4a4a" cx="168.84" cy="-90" rx="27.9" ry="18"/>
<text text-anchor="middle" x="168.84" y="-86.3" font-family="Times,serif" font-size="14.00" fill="white">class</text>
</a>
</g>
</g>
<!-- nu_svm&#45;&gt;class -->
<g id="edge3" class="edge">
<title>nu_svm&#45;&gt;class</title>
<g id="a_edge3"><a xlink:title="3 → 0">
<path fill="none" stroke="#4a4a4a" d="M168.84,-143.7C168.84,-135.98 168.84,-126.71 168.84,-118.11"/>
<polygon fill="#4a4a4a" stroke="#4a4a4a" points="172.34,-118.1 168.84,-108.1 165.34,-118.1 172.34,-118.1"/>
</a>
</g>
</g>
<!-- no_feature_selection -->
<g id="node2" class="node">
<title>no_feature_selection</title>
<g id="a_node2"><a xlink:title="(1) no_feature_selection">
<ellipse fill="#404040" stroke="#4a4a4a" cx="83.84" cy="-18" rx="83.69" ry="18"/>
<text text-anchor="middle" x="83.84" y="-14.3" font-family="Times,serif" font-size="14.00" fill="white">no_feature_selection</text>
</a>
</g>
</g>
<!-- class&#45;&gt;no_feature_selection -->
<g id="edge1" class="edge">
<title>class&#45;&gt;no_feature_selection</title>
<g id="a_edge1"><a xlink:title="0 → 1">
<path fill="none" stroke="#4a4a4a" d="M152.05,-75.17C140.59,-65.73 125.14,-53.01 111.84,-42.06"/>
<polygon fill="#4a4a4a" stroke="#4a4a4a" points="113.83,-39.17 103.89,-35.51 109.38,-44.57 113.83,-39.17"/>
</a>
</g>
</g>
<!-- neural_networks -->
<g id="node4" class="node">
<title>neural_networks</title>
<g id="a_node4"><a xlink:title="(2) neural_networks">
<ellipse fill="#404040" stroke="#4a4a4a" cx="254.84" cy="-18" rx="69.59" ry="18"/>
<text text-anchor="middle" x="254.84" y="-14.3" font-family="Times,serif" font-size="14.00" fill="white">neural_networks</text>
</a>
</g>
</g>
<!-- class&#45;&gt;neural_networks -->
<g id="edge2" class="edge">
<title>class&#45;&gt;neural_networks</title>
<g id="a_edge2"><a xlink:title="0 → 2">
<path fill="none" stroke="#4a4a4a" d="M185.42,-75.5C197.07,-66.03 212.92,-53.12 226.55,-42.03"/>
<polygon fill="#4a4a4a" stroke="#4a4a4a" points="229.13,-44.44 234.68,-35.41 224.71,-39.01 229.13,-44.44"/>
</a>
</g>
</g>
</g>
</svg>
