<?xml version="1.0" encoding="UTF-8" standalone="no"?>
<!DOCTYPE svg PUBLIC "-//W3C//DTD SVG 1.1//EN"
 "http://www.w3.org/Graphics/SVG/1.1/DTD/svg11.dtd">
<!-- Generated by graphviz version 2.43.0 (0)
 -->
<!-- Title: G Pages: 1 -->
<svg width="360pt" height="121pt"
 viewBox="0.00 0.00 360.00 121.45" xmlns="http://www.w3.org/2000/svg" xmlns:xlink="http://www.w3.org/1999/xlink">
<g id="graph0" class="graph" transform="scale(0.47 0.47) rotate(0) translate(4 256)">
<title>G</title>
<!-- svm -->
<g id="node1" class="node">
<title>svm</title>
<g id="a_node1"><a xlink:title="(11) svm">
<ellipse fill="#404040" stroke="#4a4a4a" cx="50.37" cy="-90" rx="27" ry="18"/>
<text text-anchor="middle" x="50.37" y="-86.3" font-family="Times,serif" font-size="14.00" fill="white">svm</text>
</a>
</g>
</g>
<!-- gradient_boosting -->
<g id="node2" class="node">
<title>gradient_boosting</title>
<g id="a_node2"><a xlink:title="(9) gradient_boosting">
<ellipse fill="#404040" stroke="#4a4a4a" cx="316.37" cy="-18" rx="74.19" ry="18"/>
<text text-anchor="middle" x="316.37" y="-14.3" font-family="Times,serif" font-size="14.00" fill="white">gradient_boosting</text>
</a>
</g>
</g>
<!-- extra_trees -->
<g id="node3" class="node">
<title>extra_trees</title>
<g id="a_node3"><a xlink:title="(8) extra_trees">
<ellipse fill="#404040" stroke="#4a4a4a" cx="278.37" cy="-90" rx="49.29" ry="18"/>
<text text-anchor="middle" x="278.37" y="-86.3" font-family="Times,serif" font-size="14.00" fill="white">extra_trees</text>
</a>
</g>
</g>
<!-- extra_trees&#45;&gt;gradient_boosting -->
<g id="edge2" class="edge">
<title>extra_trees&#45;&gt;gradient_boosting</title>
<g id="a_edge2"><a xlink:title="8 → 9">
<path fill="none" stroke="#4a4a4a" d="M287.57,-72.05C291.93,-64.01 297.26,-54.2 302.13,-45.23"/>
<polygon fill="#4a4a4a" stroke="#4a4a4a" points="305.29,-46.73 306.99,-36.28 299.14,-43.39 305.29,-46.73"/>
</a>
</g>
</g>
<!-- decision_tree -->
<g id="node4" class="node">
<title>decision_tree</title>
<g id="a_node4"><a xlink:title="(6) decision_tree">
<ellipse fill="#404040" stroke="#4a4a4a" cx="153.37" cy="-90" rx="57.69" ry="18"/>
<text text-anchor="middle" x="153.37" y="-86.3" font-family="Times,serif" font-size="14.00" fill="white">decision_tree</text>
</a>
</g>
</g>
<!-- nu_svm -->
<g id="node5" class="node">
<title>nu_svm</title>
<g id="a_node5"><a xlink:title="(7) nu_svm">
<ellipse fill="#404040" stroke="#4a4a4a" cx="109.37" cy="-162" rx="38.99" ry="18"/>
<text text-anchor="middle" x="109.37" y="-158.3" font-family="Times,serif" font-size="14.00" fill="white">nu_svm</text>
</a>
</g>
</g>
<!-- nu_svm&#45;&gt;svm -->
<g id="edge20" class="edge">
<title>nu_svm&#45;&gt;svm</title>
<g id="a_edge20"><a xlink:title="7 → 11">
<path fill="none" stroke="#4a4a4a" d="M95.68,-144.76C87.95,-135.59 78.15,-123.96 69.65,-113.88"/>
<polygon fill="#4a4a4a" stroke="#4a4a4a" points="72.29,-111.58 63.17,-106.19 66.94,-116.09 72.29,-111.58"/>
</a>
</g>
</g>
<!-- nu_svm&#45;&gt;decision_tree -->
<g id="edge13" class="edge">
<title>nu_svm&#45;&gt;decision_tree</title>
<g id="a_edge13"><a xlink:title="7 → 6">
<path fill="none" stroke="#4a4a4a" d="M119.79,-144.41C125.03,-136.08 131.49,-125.8 137.35,-116.49"/>
<polygon fill="#4a4a4a" stroke="#4a4a4a" points="140.35,-118.29 142.71,-107.96 134.42,-114.56 140.35,-118.29"/>
</a>
</g>
</g>
<!-- select_rfe -->
<g id="node6" class="node">
<title>select_rfe</title>
<g id="a_node6"><a xlink:title="(4) select_rfe">
<ellipse fill="#404040" stroke="#4a4a4a" cx="473.37" cy="-162" rx="44.69" ry="18"/>
<text text-anchor="middle" x="473.37" y="-158.3" font-family="Times,serif" font-size="14.00" fill="white">select_rfe</text>
</a>
</g>
</g>
<!-- no_feature_selection -->
<g id="node11" class="node">
<title>no_feature_selection</title>
<g id="a_node11"><a xlink:title="(3) no_feature_selection">
<ellipse fill="#404040" stroke="#4a4a4a" cx="467.37" cy="-90" rx="83.69" ry="18"/>
<text text-anchor="middle" x="467.37" y="-86.3" font-family="Times,serif" font-size="14.00" fill="white">no_feature_selection</text>
</a>
</g>
</g>
<!-- select_rfe&#45;&gt;no_feature_selection -->
<g id="edge1" class="edge">
<title>select_rfe&#45;&gt;no_feature_selection</title>
<g id="a_edge1"><a xlink:title="4 → 3">
<path fill="none" stroke="#4a4a4a" d="M471.88,-143.7C471.22,-135.98 470.43,-126.71 469.69,-118.11"/>
<polygon fill="#4a4a4a" stroke="#4a4a4a" points="473.17,-117.77 468.83,-108.1 466.2,-118.37 473.17,-117.77"/>
</a>
</g>
</g>
<!-- General_Descriptors -->
<g id="node7" class="node">
<title>General_Descriptors</title>
<g id="a_node7"><a xlink:title="(12) General_Descriptors">
<ellipse fill="#404040" stroke="#4a4a4a" cx="556.37" cy="-234" rx="83.39" ry="18"/>
<text text-anchor="middle" x="556.37" y="-230.3" font-family="Times,serif" font-size="14.00" fill="white">General_Descriptors</text>
</a>
</g>
</g>
<!-- class -->
<g id="node13" class="node">
<title>class</title>
<g id="a_node13"><a xlink:title="(0) class">
<ellipse fill="#404040" stroke="#4a4a4a" cx="344.37" cy="-162" rx="27.9" ry="18"/>
<text text-anchor="middle" x="344.37" y="-158.3" font-family="Times,serif" font-size="14.00" fill="white">class</text>
</a>
</g>
</g>
<!-- General_Descriptors&#45;&gt;class -->
<g id="edge6" class="edge">
<title>General_Descriptors&#45;&gt;class</title>
<g id="a_edge6"><a xlink:title="12 → 0">
<path fill="none" stroke="#4a4a4a" d="M512.7,-218.58C472.92,-205.45 414.99,-186.32 378.51,-174.27"/>
<polygon fill="#4a4a4a" stroke="#4a4a4a" points="379.41,-170.89 368.82,-171.07 377.22,-177.53 379.41,-170.89"/>
</a>
</g>
</g>
<!-- Graph_based_Signatures -->
<g id="node8" class="node">
<title>Graph_based_Signatures</title>
<g id="a_node8"><a xlink:title="(13) Graph_based_Signatures">
<ellipse fill="#404040" stroke="#4a4a4a" cx="356.37" cy="-234" rx="98.58" ry="18"/>
<text text-anchor="middle" x="356.37" y="-230.3" font-family="Times,serif" font-size="14.00" fill="white">Graph_based_Signatures</text>
</a>
</g>
</g>
<!-- Graph_based_Signatures&#45;&gt;class -->
<g id="edge18" class="edge">
<title>Graph_based_Signatures&#45;&gt;class</title>
<g id="a_edge18"><a xlink:title="13 → 0">
<path fill="none" stroke="#4a4a4a" d="M353.4,-215.7C352.08,-207.98 350.49,-198.71 349.01,-190.11"/>
<polygon fill="#4a4a4a" stroke="#4a4a4a" points="352.44,-189.37 347.3,-180.1 345.54,-190.55 352.44,-189.37"/>
</a>
</g>
</g>
<!-- normalizer -->
<g id="node9" class="node">
<title>normalizer</title>
<g id="a_node9"><a xlink:title="(1) normalizer">
<ellipse fill="#404040" stroke="#4a4a4a" cx="618.37" cy="-90" rx="49.29" ry="18"/>
<text text-anchor="middle" x="618.37" y="-86.3" font-family="Times,serif" font-size="14.00" fill="white">normalizer</text>
</a>
</g>
</g>
<!-- neural_networks -->
<g id="node10" class="node">
<title>neural_networks</title>
<g id="a_node10"><a xlink:title="(5) neural_networks">
<ellipse fill="#404040" stroke="#4a4a4a" cx="170.37" cy="-234" rx="69.59" ry="18"/>
<text text-anchor="middle" x="170.37" y="-230.3" font-family="Times,serif" font-size="14.00" fill="white">neural_networks</text>
</a>
</g>
</g>
<!-- neural_networks&#45;&gt;svm -->
<g id="edge14" class="edge">
<title>neural_networks&#45;&gt;svm</title>
<g id="a_edge14"><a xlink:title="5 → 11">
<path fill="none" stroke="#4a4a4a" d="M122.08,-221.01C100.09,-213.04 75.81,-200.2 61.37,-180 48.67,-162.24 46.58,-137.22 47.29,-118.23"/>
<polygon fill="#4a4a4a" stroke="#4a4a4a" points="50.79,-118.33 47.95,-108.12 43.81,-117.87 50.79,-118.33"/>
</a>
</g>
</g>
<!-- neural_networks&#45;&gt;gradient_boosting -->
<g id="edge10" class="edge">
<title>neural_networks&#45;&gt;gradient_boosting</title>
<g id="a_edge10"><a xlink:title="5 → 9">
<path fill="none" stroke="#4a4a4a" d="M120.54,-221.4C95.34,-213.37 65.84,-200.36 45.37,-180 9.96,-144.79 -17.75,-110.24 14.37,-72 41.86,-39.26 153.75,-26.74 233.3,-21.95"/>
<polygon fill="#4a4a4a" stroke="#4a4a4a" points="233.54,-25.45 243.32,-21.38 233.14,-18.46 233.54,-25.45"/>
</a>
</g>
</g>
<!-- neural_networks&#45;&gt;extra_trees -->
<g id="edge15" class="edge">
<title>neural_networks&#45;&gt;extra_trees</title>
<g id="a_edge15"><a xlink:title="5 → 8">
<path fill="none" stroke="#4a4a4a" d="M183.18,-216.15C202.1,-191.28 237.62,-144.57 259.51,-115.79"/>
<polygon fill="#4a4a4a" stroke="#4a4a4a" points="262.3,-117.9 265.57,-107.82 256.73,-113.67 262.3,-117.9"/>
</a>
</g>
</g>
<!-- neural_networks&#45;&gt;decision_tree -->
<g id="edge8" class="edge">
<title>neural_networks&#45;&gt;decision_tree</title>
<g id="a_edge8"><a xlink:title="5 → 6">
<path fill="none" stroke="#4a4a4a" d="M168.32,-215.87C165.42,-191.67 160.1,-147.21 156.65,-118.39"/>
<polygon fill="#4a4a4a" stroke="#4a4a4a" points="160.09,-117.7 155.42,-108.19 153.14,-118.53 160.09,-117.7"/>
</a>
</g>
</g>
<!-- neural_networks&#45;&gt;no_feature_selection -->
<g id="edge9" class="edge">
<title>neural_networks&#45;&gt;no_feature_selection</title>
<g id="a_edge9"><a xlink:title="5 → 3">
<path fill="none" stroke="#4a4a4a" d="M221.36,-221.74C279.24,-208.71 367.49,-188.02 381.37,-180 389,-175.58 422.23,-140.21 445.08,-115.41"/>
<polygon fill="#4a4a4a" stroke="#4a4a4a" points="447.9,-117.52 452.09,-107.78 442.74,-112.78 447.9,-117.52"/>
</a>
</g>
</g>
<!-- neural_networks&#45;&gt;class -->
<g id="edge7" class="edge">
<title>neural_networks&#45;&gt;class</title>
<g id="a_edge7"><a xlink:title="5 → 0">
<path fill="none" stroke="#4a4a4a" d="M206.42,-218.5C237.45,-206.01 281.84,-188.15 311.81,-176.1"/>
<polygon fill="#4a4a4a" stroke="#4a4a4a" points="313.41,-179.23 321.38,-172.25 310.8,-172.73 313.41,-179.23"/>
</a>
</g>
</g>
<!-- selectfpr -->
<g id="node12" class="node">
<title>selectfpr</title>
<g id="a_node12"><a xlink:title="(2) selectfpr">
<ellipse fill="#404040" stroke="#4a4a4a" cx="618.37" cy="-162" rx="40.89" ry="18"/>
<text text-anchor="middle" x="618.37" y="-158.3" font-family="Times,serif" font-size="14.00" fill="white">selectfpr</text>
</a>
</g>
</g>
<!-- selectfpr&#45;&gt;normalizer -->
<g id="edge12" class="edge">
<title>selectfpr&#45;&gt;normalizer</title>
<g id="a_edge12"><a xlink:title="2 → 1">
<path fill="none" stroke="#4a4a4a" d="M618.37,-143.7C618.37,-135.98 618.37,-126.71 618.37,-118.11"/>
<polygon fill="#4a4a4a" stroke="#4a4a4a" points="621.87,-118.1 618.37,-108.1 614.87,-118.1 621.87,-118.1"/>
</a>
</g>
</g>
<!-- class&#45;&gt;svm -->
<g id="edge5" class="edge">
<title>class&#45;&gt;svm</title>
<g id="a_edge5"><a xlink:title="0 → 11">
<path fill="none" stroke="#4a4a4a" d="M317.07,-157.58C269.37,-151.12 168.14,-135.27 86.37,-108 84.45,-107.36 82.5,-106.65 80.55,-105.88"/>
<polygon fill="#4a4a4a" stroke="#4a4a4a" points="81.53,-102.49 70.96,-101.75 78.76,-108.92 81.53,-102.49"/>
</a>
</g>
</g>
<!-- class&#45;&gt;gradient_boosting -->
<g id="edge17" class="edge">
<title>class&#45;&gt;gradient_boosting</title>
<g id="a_edge17"><a xlink:title="0 → 9">
<path fill="none" stroke="#4a4a4a" d="M344.19,-143.72C343.69,-125.63 341.98,-96.5 336.37,-72 334.37,-63.28 331.26,-54.06 328.09,-45.8"/>
<polygon fill="#4a4a4a" stroke="#4a4a4a" points="331.25,-44.26 324.26,-36.3 324.75,-46.88 331.25,-44.26"/>
</a>
</g>
</g>
<!-- class&#45;&gt;extra_trees -->
<g id="edge4" class="edge">
<title>class&#45;&gt;extra_trees</title>
<g id="a_edge4"><a xlink:title="0 → 8">
<path fill="none" stroke="#4a4a4a" d="M330.37,-146.15C321.81,-137.07 310.65,-125.24 300.87,-114.87"/>
<polygon fill="#4a4a4a" stroke="#4a4a4a" points="303.13,-112.17 293.73,-107.29 298.04,-116.97 303.13,-112.17"/>
</a>
</g>
</g>
<!-- class&#45;&gt;decision_tree -->
<g id="edge19" class="edge">
<title>class&#45;&gt;decision_tree</title>
<g id="a_edge19"><a xlink:title="0 → 6">
<path fill="none" stroke="#4a4a4a" d="M320.56,-152.28C290.27,-141.17 237.29,-121.76 199.08,-107.75"/>
<polygon fill="#4a4a4a" stroke="#4a4a4a" points="199.81,-104.29 189.22,-104.14 197.4,-110.87 199.81,-104.29"/>
</a>
</g>
</g>
<!-- class&#45;&gt;normalizer -->
<g id="edge11" class="edge">
<title>class&#45;&gt;normalizer</title>
<g id="a_edge11"><a xlink:title="0 → 1">
<path fill="none" stroke="#4a4a4a" d="M370.4,-155.01C411.08,-145.55 492.13,-126.36 560.37,-108 564.14,-106.99 568.03,-105.91 571.94,-104.81"/>
<polygon fill="#4a4a4a" stroke="#4a4a4a" points="572.97,-108.15 581.62,-102.04 571.04,-101.42 572.97,-108.15"/>
</a>
</g>
</g>
<!-- class&#45;&gt;no_feature_selection -->
<g id="edge16" class="edge">
<title>class&#45;&gt;no_feature_selection</title>
<g id="a_edge16"><a xlink:title="0 → 3">
<path fill="none" stroke="#4a4a4a" d="M364.68,-149.44C382.47,-139.32 408.77,-124.35 430.3,-112.09"/>
<polygon fill="#4a4a4a" stroke="#4a4a4a" points="432.24,-115.02 439.2,-107.03 428.78,-108.93 432.24,-115.02"/>
</a>
</g>
</g>
<!-- xgboost -->
<g id="node14" class="node">
<title>xgboost</title>
<g id="a_node14"><a xlink:title="(10) xgboost">
<ellipse fill="#404040" stroke="#4a4a4a" cx="724.37" cy="-90" rx="38.19" ry="18"/>
<text text-anchor="middle" x="724.37" y="-86.3" font-family="Times,serif" font-size="14.00" fill="white">xgboost</text>
</a>
</g>
</g>
<!-- xgboost&#45;&gt;gradient_boosting -->
<g id="edge3" class="edge">
<title>xgboost&#45;&gt;gradient_boosting</title>
<g id="a_edge3"><a xlink:title="10 → 9">
<path fill="none" stroke="#4a4a4a" d="M695.71,-77.83C689.41,-75.66 682.72,-73.58 676.37,-72 580.92,-48.31 468.43,-33.83 394.92,-26.12"/>
<polygon fill="#4a4a4a" stroke="#4a4a4a" points="395.12,-22.63 384.81,-25.08 394.4,-29.59 395.12,-22.63"/>
</a>
</g>
</g>
</g>
</svg>
