<?xml version="1.0" encoding="UTF-8" standalone="no"?>
<!DOCTYPE svg PUBLIC "-//W3C//DTD SVG 1.1//EN"
 "http://www.w3.org/Graphics/SVG/1.1/DTD/svg11.dtd">
<!-- Generated by graphviz version 2.43.0 (0)
 -->
<!-- Title: G Pages: 1 -->
<svg width="360pt" height="175pt"
 viewBox="0.00 0.00 360.00 174.53" xmlns="http://www.w3.org/2000/svg" xmlns:xlink="http://www.w3.org/1999/xlink">
<g id="graph0" class="graph" transform="scale(0.67 0.67) rotate(0) translate(4 256)">
<title>G</title>
<!-- gradient_boosting -->
<g id="node1" class="node">
<title>gradient_boosting</title>
<g id="a_node1"><a xlink:title="(8) gradient_boosting">
<ellipse fill="#404040" stroke="#4a4a4a" cx="349.84" cy="-18" rx="74.19" ry="18"/>
<text text-anchor="middle" x="349.84" y="-14.3" font-family="Times,serif" font-size="14.00" fill="white">gradient_boosting</text>
</a>
</g>
</g>
<!-- extra_trees -->
<g id="node2" class="node">
<title>extra_trees</title>
<g id="a_node2"><a xlink:title="(2) extra_trees">
<ellipse fill="#404040" stroke="#4a4a4a" cx="273.84" cy="-90" rx="49.29" ry="18"/>
<text text-anchor="middle" x="273.84" y="-86.3" font-family="Times,serif" font-size="14.00" fill="white">extra_trees</text>
</a>
</g>
</g>
<!-- extra_trees&#45;&gt;gradient_boosting -->
<g id="edge15" class="edge">
<title>extra_trees&#45;&gt;gradient_boosting</title>
<g id="a_edge15"><a xlink:title="2 → 8">
<path fill="none" stroke="#4a4a4a" d="M291.09,-73.12C300.89,-64.09 313.34,-52.62 324.26,-42.57"/>
<polygon fill="#4a4a4a" stroke="#4a4a4a" points="326.89,-44.9 331.87,-35.55 322.15,-39.75 326.89,-44.9"/>
</a>
</g>
</g>
<!-- Graph_based_Signatures -->
<g id="node6" class="node">
<title>Graph_based_Signatures</title>
<g id="a_node6"><a xlink:title="(1) Graph_based_Signatures">
<ellipse fill="#404040" stroke="#4a4a4a" cx="158.84" cy="-18" rx="98.58" ry="18"/>
<text text-anchor="middle" x="158.84" y="-14.3" font-family="Times,serif" font-size="14.00" fill="white">Graph_based_Signatures</text>
</a>
</g>
</g>
<!-- extra_trees&#45;&gt;Graph_based_Signatures -->
<g id="edge3" class="edge">
<title>extra_trees&#45;&gt;Graph_based_Signatures</title>
<g id="a_edge3"><a xlink:title="2 → 1">
<path fill="none" stroke="#4a4a4a" d="M249.46,-74.15C233.62,-64.52 212.71,-51.79 194.96,-40.99"/>
<polygon fill="#4a4a4a" stroke="#4a4a4a" points="196.38,-37.75 186.02,-35.54 192.74,-43.73 196.38,-37.75"/>
</a>
</g>
</g>
<!-- decision_tree -->
<g id="node3" class="node">
<title>decision_tree</title>
<g id="a_node3"><a xlink:title="(10) decision_tree">
<ellipse fill="#404040" stroke="#4a4a4a" cx="57.84" cy="-234" rx="57.69" ry="18"/>
<text text-anchor="middle" x="57.84" y="-230.3" font-family="Times,serif" font-size="14.00" fill="white">decision_tree</text>
</a>
</g>
</g>
<!-- class -->
<g id="node11" class="node">
<title>class</title>
<g id="a_node11"><a xlink:title="(0) class">
<ellipse fill="#404040" stroke="#4a4a4a" cx="207.84" cy="-162" rx="27.9" ry="18"/>
<text text-anchor="middle" x="207.84" y="-158.3" font-family="Times,serif" font-size="14.00" fill="white">class</text>
</a>
</g>
</g>
<!-- decision_tree&#45;&gt;class -->
<g id="edge9" class="edge">
<title>decision_tree&#45;&gt;class</title>
<g id="a_edge9"><a xlink:title="10 → 0">
<path fill="none" stroke="#4a4a4a" d="M88.56,-218.67C114.25,-206.68 150.74,-189.65 176.58,-177.59"/>
<polygon fill="#4a4a4a" stroke="#4a4a4a" points="178.34,-180.63 185.92,-173.23 175.37,-174.29 178.34,-180.63"/>
</a>
</g>
</g>
<!-- select_rfe -->
<g id="node4" class="node">
<title>select_rfe</title>
<g id="a_node4"><a xlink:title="(6) select_rfe">
<ellipse fill="#404040" stroke="#4a4a4a" cx="351.84" cy="-162" rx="44.69" ry="18"/>
<text text-anchor="middle" x="351.84" y="-158.3" font-family="Times,serif" font-size="14.00" fill="white">select_rfe</text>
</a>
</g>
</g>
<!-- no_feature_selection -->
<g id="node9" class="node">
<title>no_feature_selection</title>
<g id="a_node9"><a xlink:title="(5) no_feature_selection">
<ellipse fill="#404040" stroke="#4a4a4a" cx="424.84" cy="-90" rx="83.69" ry="18"/>
<text text-anchor="middle" x="424.84" y="-86.3" font-family="Times,serif" font-size="14.00" fill="white">no_feature_selection</text>
</a>
</g>
</g>
<!-- select_rfe&#45;&gt;no_feature_selection -->
<g id="edge4" class="edge">
<title>select_rfe&#45;&gt;no_feature_selection</title>
<g id="a_edge4"><a xlink:title="6 → 5">
<path fill="none" stroke="#4a4a4a" d="M368.41,-145.12C377.75,-136.16 389.61,-124.79 400.04,-114.79"/>
<polygon fill="#4a4a4a" stroke="#4a4a4a" points="402.53,-117.24 407.33,-107.8 397.69,-112.19 402.53,-117.24"/>
</a>
</g>
</g>
<!-- General_Descriptors -->
<g id="node5" class="node">
<title>General_Descriptors</title>
<g id="a_node5"><a xlink:title="(9) General_Descriptors">
<ellipse fill="#404040" stroke="#4a4a4a" cx="216.84" cy="-234" rx="83.39" ry="18"/>
<text text-anchor="middle" x="216.84" y="-230.3" font-family="Times,serif" font-size="14.00" fill="white">General_Descriptors</text>
</a>
</g>
</g>
<!-- General_Descriptors&#45;&gt;class -->
<g id="edge2" class="edge">
<title>General_Descriptors&#45;&gt;class</title>
<g id="a_edge2"><a xlink:title="9 → 0">
<path fill="none" stroke="#4a4a4a" d="M214.62,-215.7C213.63,-207.98 212.44,-198.71 211.33,-190.11"/>
<polygon fill="#4a4a4a" stroke="#4a4a4a" points="214.79,-189.58 210.04,-180.1 207.85,-190.47 214.79,-189.58"/>
</a>
</g>
</g>
<!-- normalizer -->
<g id="node7" class="node">
<title>normalizer</title>
<g id="a_node7"><a xlink:title="(3) normalizer">
<ellipse fill="#404040" stroke="#4a4a4a" cx="81.84" cy="-90" rx="49.29" ry="18"/>
<text text-anchor="middle" x="81.84" y="-86.3" font-family="Times,serif" font-size="14.00" fill="white">normalizer</text>
</a>
</g>
</g>
<!-- neural_networks -->
<g id="node8" class="node">
<title>neural_networks</title>
<g id="a_node8"><a xlink:title="(7) neural_networks">
<ellipse fill="#404040" stroke="#4a4a4a" cx="415.84" cy="-234" rx="69.59" ry="18"/>
<text text-anchor="middle" x="415.84" y="-230.3" font-family="Times,serif" font-size="14.00" fill="white">neural_networks</text>
</a>
</g>
</g>
<!-- neural_networks&#45;&gt;gradient_boosting -->
<g id="edge14" class="edge">
<title>neural_networks&#45;&gt;gradient_boosting</title>
<g id="a_edge14"><a xlink:title="7 → 8">
<path fill="none" stroke="#4a4a4a" d="M439.46,-216.99C480.04,-187.5 555.21,-122.97 517.84,-72 497.85,-44.73 463.79,-31.13 431.55,-24.48"/>
<polygon fill="#4a4a4a" stroke="#4a4a4a" points="432.09,-21.02 421.61,-22.63 430.8,-27.9 432.09,-21.02"/>
</a>
</g>
</g>
<!-- neural_networks&#45;&gt;extra_trees -->
<g id="edge11" class="edge">
<title>neural_networks&#45;&gt;extra_trees</title>
<g id="a_edge11"><a xlink:title="7 → 2">
<path fill="none" stroke="#4a4a4a" d="M366.12,-221.38C342.35,-213.43 315.33,-200.51 297.84,-180 283.13,-162.74 277.35,-137.31 275.12,-118.04"/>
<polygon fill="#4a4a4a" stroke="#4a4a4a" points="278.61,-117.71 274.22,-108.07 271.64,-118.34 278.61,-117.71"/>
</a>
</g>
</g>
<!-- neural_networks&#45;&gt;no_feature_selection -->
<g id="edge12" class="edge">
<title>neural_networks&#45;&gt;no_feature_selection</title>
<g id="a_edge12"><a xlink:title="7 → 5">
<path fill="none" stroke="#4a4a4a" d="M416.93,-215.87C418.46,-191.67 421.28,-147.21 423.11,-118.39"/>
<polygon fill="#4a4a4a" stroke="#4a4a4a" points="426.62,-118.39 423.76,-108.19 419.63,-117.95 426.62,-118.39"/>
</a>
</g>
</g>
<!-- neural_networks&#45;&gt;class -->
<g id="edge6" class="edge">
<title>neural_networks&#45;&gt;class</title>
<g id="a_edge6"><a xlink:title="7 → 0">
<path fill="none" stroke="#4a4a4a" d="M375.25,-219.34C336.34,-206.24 278.3,-186.71 241.79,-174.42"/>
<polygon fill="#4a4a4a" stroke="#4a4a4a" points="242.69,-171.03 232.09,-171.16 240.45,-177.67 242.69,-171.03"/>
</a>
</g>
</g>
<!-- standard_scaler -->
<g id="node10" class="node">
<title>standard_scaler</title>
<g id="a_node10"><a xlink:title="(4) standard_scaler">
<ellipse fill="#404040" stroke="#4a4a4a" cx="81.84" cy="-162" rx="65.79" ry="18"/>
<text text-anchor="middle" x="81.84" y="-158.3" font-family="Times,serif" font-size="14.00" fill="white">standard_scaler</text>
</a>
</g>
</g>
<!-- standard_scaler&#45;&gt;normalizer -->
<g id="edge5" class="edge">
<title>standard_scaler&#45;&gt;normalizer</title>
<g id="a_edge5"><a xlink:title="4 → 3">
<path fill="none" stroke="#4a4a4a" d="M81.84,-143.7C81.84,-135.98 81.84,-126.71 81.84,-118.11"/>
<polygon fill="#4a4a4a" stroke="#4a4a4a" points="85.34,-118.1 81.84,-108.1 78.34,-118.1 85.34,-118.1"/>
</a>
</g>
</g>
<!-- class&#45;&gt;gradient_boosting -->
<g id="edge13" class="edge">
<title>class&#45;&gt;gradient_boosting</title>
<g id="a_edge13"><a xlink:title="0 → 8">
<path fill="none" stroke="#4a4a4a" d="M204.5,-144.08C201.67,-124.68 200.24,-92.88 215.84,-72 225.72,-58.79 260.97,-45.13 292.84,-34.98"/>
<polygon fill="#4a4a4a" stroke="#4a4a4a" points="294.08,-38.26 302.59,-31.95 292,-31.58 294.08,-38.26"/>
</a>
</g>
</g>
<!-- class&#45;&gt;extra_trees -->
<g id="edge8" class="edge">
<title>class&#45;&gt;extra_trees</title>
<g id="a_edge8"><a xlink:title="0 → 2">
<path fill="none" stroke="#4a4a4a" d="M221.84,-146.15C230.41,-137.07 241.56,-125.24 251.34,-114.87"/>
<polygon fill="#4a4a4a" stroke="#4a4a4a" points="254.17,-116.97 258.49,-107.29 249.08,-112.17 254.17,-116.97"/>
</a>
</g>
</g>
<!-- class&#45;&gt;Graph_based_Signatures -->
<g id="edge1" class="edge">
<title>class&#45;&gt;Graph_based_Signatures</title>
<g id="a_edge1"><a xlink:title="0 → 1">
<path fill="none" stroke="#4a4a4a" d="M199.19,-144.61C193.98,-134.3 187.48,-120.61 182.84,-108 175.33,-87.53 169.01,-63.64 164.75,-45.77"/>
<polygon fill="#4a4a4a" stroke="#4a4a4a" points="168.16,-44.96 162.48,-36.01 161.34,-46.54 168.16,-44.96"/>
</a>
</g>
</g>
<!-- class&#45;&gt;normalizer -->
<g id="edge7" class="edge">
<title>class&#45;&gt;normalizer</title>
<g id="a_edge7"><a xlink:title="0 → 3">
<path fill="none" stroke="#4a4a4a" d="M187.32,-149.6C168.32,-139.04 139.67,-123.13 117.03,-110.55"/>
<polygon fill="#4a4a4a" stroke="#4a4a4a" points="118.49,-107.35 108.05,-105.56 115.09,-113.47 118.49,-107.35"/>
</a>
</g>
</g>
<!-- class&#45;&gt;no_feature_selection -->
<g id="edge10" class="edge">
<title>class&#45;&gt;no_feature_selection</title>
<g id="a_edge10"><a xlink:title="0 → 5">
<path fill="none" stroke="#4a4a4a" d="M232.32,-153.11C265.7,-142.34 326.44,-122.74 370.8,-108.43"/>
<polygon fill="#4a4a4a" stroke="#4a4a4a" points="372.12,-111.69 380.56,-105.29 369.97,-105.02 372.12,-111.69"/>
</a>
</g>
</g>
</g>
</svg>
