<?xml version="1.0" encoding="UTF-8" standalone="no"?>
<!DOCTYPE svg PUBLIC "-//W3C//DTD SVG 1.1//EN"
 "http://www.w3.org/Graphics/SVG/1.1/DTD/svg11.dtd">
<!-- Generated by graphviz version 2.43.0 (0)
 -->
<!-- Title: G Pages: 1 -->
<svg width="360pt" height="91pt"
 viewBox="0.00 0.00 360.00 90.60" xmlns="http://www.w3.org/2000/svg" xmlns:xlink="http://www.w3.org/1999/xlink">
<g id="graph0" class="graph" transform="scale(0.35 0.35) rotate(0) translate(4 256)">
<title>G</title>
<!-- svm -->
<g id="node1" class="node">
<title>svm</title>
<g id="a_node1"><a xlink:title="(14) svm">
<ellipse fill="#404040" stroke="#4a4a4a" cx="27" cy="-90" rx="27" ry="18"/>
<text text-anchor="middle" x="27" y="-86.3" font-family="Times,serif" font-size="14.00" fill="white">svm</text>
</a>
</g>
</g>
<!-- Toxicophores -->
<g id="node2" class="node">
<title>Toxicophores</title>
<g id="a_node2"><a xlink:title="(3) Toxicophores">
<ellipse fill="#404040" stroke="#4a4a4a" cx="852" cy="-162" rx="59.29" ry="18"/>
<text text-anchor="middle" x="852" y="-158.3" font-family="Times,serif" font-size="14.00" fill="white">Toxicophores</text>
</a>
</g>
</g>
<!-- General_Descriptors -->
<g id="node11" class="node">
<title>General_Descriptors</title>
<g id="a_node11"><a xlink:title="(1) General_Descriptors">
<ellipse fill="#404040" stroke="#4a4a4a" cx="788" cy="-90" rx="83.39" ry="18"/>
<text text-anchor="middle" x="788" y="-86.3" font-family="Times,serif" font-size="14.00" fill="white">General_Descriptors</text>
</a>
</g>
</g>
<!-- Toxicophores&#45;&gt;General_Descriptors -->
<g id="edge1" class="edge">
<title>Toxicophores&#45;&gt;General_Descriptors</title>
<g id="a_edge1"><a xlink:title="3 → 1">
<path fill="none" stroke="#4a4a4a" d="M836.83,-144.41C828.9,-135.73 819.04,-124.95 810.26,-115.34"/>
<polygon fill="#4a4a4a" stroke="#4a4a4a" points="812.83,-112.97 803.5,-107.96 807.67,-117.7 812.83,-112.97"/>
</a>
</g>
</g>
<!-- Fragments -->
<g id="node3" class="node">
<title>Fragments</title>
<g id="a_node3"><a xlink:title="(4) Fragments">
<ellipse fill="#404040" stroke="#4a4a4a" cx="977" cy="-162" rx="48.19" ry="18"/>
<text text-anchor="middle" x="977" y="-158.3" font-family="Times,serif" font-size="14.00" fill="white">Fragments</text>
</a>
</g>
</g>
<!-- Fragments&#45;&gt;General_Descriptors -->
<g id="edge18" class="edge">
<title>Fragments&#45;&gt;General_Descriptors</title>
<g id="a_edge18"><a xlink:title="4 → 1">
<path fill="none" stroke="#4a4a4a" d="M944.08,-148.81C914.72,-137.93 871.32,-121.86 837.73,-109.42"/>
<polygon fill="#4a4a4a" stroke="#4a4a4a" points="838.68,-106.04 828.09,-105.85 836.25,-112.6 838.68,-106.04"/>
</a>
</g>
</g>
<!-- extra_trees -->
<g id="node4" class="node">
<title>extra_trees</title>
<g id="a_node4"><a xlink:title="(10) extra_trees">
<ellipse fill="#404040" stroke="#4a4a4a" cx="573" cy="-90" rx="49.29" ry="18"/>
<text text-anchor="middle" x="573" y="-86.3" font-family="Times,serif" font-size="14.00" fill="white">extra_trees</text>
</a>
</g>
</g>
<!-- gradient_boosting -->
<g id="node7" class="node">
<title>gradient_boosting</title>
<g id="a_node7"><a xlink:title="(12) gradient_boosting">
<ellipse fill="#404040" stroke="#4a4a4a" cx="460" cy="-18" rx="74.19" ry="18"/>
<text text-anchor="middle" x="460" y="-14.3" font-family="Times,serif" font-size="14.00" fill="white">gradient_boosting</text>
</a>
</g>
</g>
<!-- extra_trees&#45;&gt;gradient_boosting -->
<g id="edge6" class="edge">
<title>extra_trees&#45;&gt;gradient_boosting</title>
<g id="a_edge6"><a xlink:title="10 → 12">
<path fill="none" stroke="#4a4a4a" d="M549.04,-74.15C533.26,-64.38 512.34,-51.43 494.75,-40.53"/>
<polygon fill="#4a4a4a" stroke="#4a4a4a" points="496.24,-37.33 485.9,-35.04 492.56,-43.28 496.24,-37.33"/>
</a>
</g>
</g>
<!-- Advanced_Descriptors -->
<g id="node5" class="node">
<title>Advanced_Descriptors</title>
<g id="a_node5"><a xlink:title="(2) Advanced_Descriptors">
<ellipse fill="#404040" stroke="#4a4a4a" cx="684" cy="-162" rx="90.98" ry="18"/>
<text text-anchor="middle" x="684" y="-158.3" font-family="Times,serif" font-size="14.00" fill="white">Advanced_Descriptors</text>
</a>
</g>
</g>
<!-- Advanced_Descriptors&#45;&gt;General_Descriptors -->
<g id="edge11" class="edge">
<title>Advanced_Descriptors&#45;&gt;General_Descriptors</title>
<g id="a_edge11"><a xlink:title="2 → 1">
<path fill="none" stroke="#4a4a4a" d="M708.38,-144.59C722.34,-135.2 740.02,-123.29 755.18,-113.09"/>
<polygon fill="#4a4a4a" stroke="#4a4a4a" points="757.43,-115.8 763.77,-107.31 753.52,-109.99 757.43,-115.8"/>
</a>
</g>
</g>
<!-- extra_tree -->
<g id="node6" class="node">
<title>extra_tree</title>
<g id="a_node6"><a xlink:title="(9) extra_tree">
<ellipse fill="#404040" stroke="#4a4a4a" cx="118" cy="-90" rx="46.29" ry="18"/>
<text text-anchor="middle" x="118" y="-86.3" font-family="Times,serif" font-size="14.00" fill="white">extra_tree</text>
</a>
</g>
</g>
<!-- decision_tree -->
<g id="node8" class="node">
<title>decision_tree</title>
<g id="a_node8"><a xlink:title="(6) decision_tree">
<ellipse fill="#404040" stroke="#4a4a4a" cx="240" cy="-90" rx="57.69" ry="18"/>
<text text-anchor="middle" x="240" y="-86.3" font-family="Times,serif" font-size="14.00" fill="white">decision_tree</text>
</a>
</g>
</g>
<!-- normalizer -->
<g id="node12" class="node">
<title>normalizer</title>
<g id="a_node12"><a xlink:title="(5) normalizer">
<ellipse fill="#404040" stroke="#4a4a4a" cx="295" cy="-18" rx="49.29" ry="18"/>
<text text-anchor="middle" x="295" y="-14.3" font-family="Times,serif" font-size="14.00" fill="white">normalizer</text>
</a>
</g>
</g>
<!-- decision_tree&#45;&gt;normalizer -->
<g id="edge7" class="edge">
<title>decision_tree&#45;&gt;normalizer</title>
<g id="a_edge7"><a xlink:title="6 → 5">
<path fill="none" stroke="#4a4a4a" d="M253.03,-72.41C259.82,-63.78 268.24,-53.06 275.75,-43.5"/>
<polygon fill="#4a4a4a" stroke="#4a4a4a" points="278.63,-45.5 282.06,-35.47 273.13,-41.17 278.63,-45.5"/>
</a>
</g>
</g>
<!-- nu_svm -->
<g id="node9" class="node">
<title>nu_svm</title>
<g id="a_node9"><a xlink:title="(8) nu_svm">
<ellipse fill="#404040" stroke="#4a4a4a" cx="118" cy="-162" rx="38.99" ry="18"/>
<text text-anchor="middle" x="118" y="-158.3" font-family="Times,serif" font-size="14.00" fill="white">nu_svm</text>
</a>
</g>
</g>
<!-- nu_svm&#45;&gt;svm -->
<g id="edge10" class="edge">
<title>nu_svm&#45;&gt;svm</title>
<g id="a_edge10"><a xlink:title="8 → 14">
<path fill="none" stroke="#4a4a4a" d="M98.7,-146.15C85.18,-135.75 66.98,-121.75 52.3,-110.46"/>
<polygon fill="#4a4a4a" stroke="#4a4a4a" points="54.18,-107.49 44.12,-104.17 49.92,-113.04 54.18,-107.49"/>
</a>
</g>
</g>
<!-- nu_svm&#45;&gt;extra_tree -->
<g id="edge2" class="edge">
<title>nu_svm&#45;&gt;extra_tree</title>
<g id="a_edge2"><a xlink:title="8 → 9">
<path fill="none" stroke="#4a4a4a" d="M118,-143.7C118,-135.98 118,-126.71 118,-118.11"/>
<polygon fill="#4a4a4a" stroke="#4a4a4a" points="121.5,-118.1 118,-108.1 114.5,-118.1 121.5,-118.1"/>
</a>
</g>
</g>
<!-- nu_svm&#45;&gt;decision_tree -->
<g id="edge4" class="edge">
<title>nu_svm&#45;&gt;decision_tree</title>
<g id="a_edge4"><a xlink:title="8 → 6">
<path fill="none" stroke="#4a4a4a" d="M141.52,-147.5C159.5,-137.19 184.56,-122.81 204.9,-111.14"/>
<polygon fill="#4a4a4a" stroke="#4a4a4a" points="206.65,-114.17 213.58,-106.16 203.17,-108.1 206.65,-114.17"/>
</a>
</g>
</g>
<!-- select_rfe -->
<g id="node10" class="node">
<title>select_rfe</title>
<g id="a_node10"><a xlink:title="(11) select_rfe">
<ellipse fill="#404040" stroke="#4a4a4a" cx="565" cy="-234" rx="44.69" ry="18"/>
<text text-anchor="middle" x="565" y="-230.3" font-family="Times,serif" font-size="14.00" fill="white">select_rfe</text>
</a>
</g>
</g>
<!-- select_rfe&#45;&gt;extra_trees -->
<g id="edge13" class="edge">
<title>select_rfe&#45;&gt;extra_trees</title>
<g id="a_edge13"><a xlink:title="11 → 10">
<path fill="none" stroke="#4a4a4a" d="M565.96,-215.87C567.33,-191.67 569.83,-147.21 571.46,-118.39"/>
<polygon fill="#4a4a4a" stroke="#4a4a4a" points="574.96,-118.37 572.03,-108.19 567.97,-117.98 574.96,-118.37"/>
</a>
</g>
</g>
<!-- class -->
<g id="node15" class="node">
<title>class</title>
<g id="a_node15"><a xlink:title="(0) class">
<ellipse fill="#404040" stroke="#4a4a4a" cx="420" cy="-162" rx="27.9" ry="18"/>
<text text-anchor="middle" x="420" y="-158.3" font-family="Times,serif" font-size="14.00" fill="white">class</text>
</a>
</g>
</g>
<!-- select_rfe&#45;&gt;class -->
<g id="edge19" class="edge">
<title>select_rfe&#45;&gt;class</title>
<g id="a_edge19"><a xlink:title="11 → 0">
<path fill="none" stroke="#4a4a4a" d="M537.39,-219.67C512.76,-207.78 476.74,-190.39 451.11,-178.02"/>
<polygon fill="#4a4a4a" stroke="#4a4a4a" points="452.36,-174.74 441.83,-173.54 449.32,-181.04 452.36,-174.74"/>
</a>
</g>
</g>
<!-- neural_networks -->
<g id="node13" class="node">
<title>neural_networks</title>
<g id="a_node13"><a xlink:title="(7) neural_networks">
<ellipse fill="#404040" stroke="#4a4a4a" cx="243" cy="-234" rx="69.59" ry="18"/>
<text text-anchor="middle" x="243" y="-230.3" font-family="Times,serif" font-size="14.00" fill="white">neural_networks</text>
</a>
</g>
</g>
<!-- neural_networks&#45;&gt;svm -->
<g id="edge25" class="edge">
<title>neural_networks&#45;&gt;svm</title>
<g id="a_edge25"><a xlink:title="7 → 14">
<path fill="none" stroke="#4a4a4a" d="M179.81,-226.21C144.11,-219.53 100.64,-206.28 70,-180 51.14,-163.83 39.86,-137.48 33.62,-117.65"/>
<polygon fill="#4a4a4a" stroke="#4a4a4a" points="36.95,-116.58 30.8,-107.95 30.23,-118.53 36.95,-116.58"/>
</a>
</g>
</g>
<!-- neural_networks&#45;&gt;extra_trees -->
<g id="edge8" class="edge">
<title>neural_networks&#45;&gt;extra_trees</title>
<g id="a_edge8"><a xlink:title="7 → 10">
<path fill="none" stroke="#4a4a4a" d="M293.75,-221.58C352.26,-208.24 442.3,-187.08 457,-180 492.04,-163.14 526.68,-134.59 548.85,-114.37"/>
<polygon fill="#4a4a4a" stroke="#4a4a4a" points="551.48,-116.71 556.43,-107.34 546.72,-111.58 551.48,-116.71"/>
</a>
</g>
</g>
<!-- neural_networks&#45;&gt;extra_tree -->
<g id="edge15" class="edge">
<title>neural_networks&#45;&gt;extra_tree</title>
<g id="a_edge15"><a xlink:title="7 → 9">
<path fill="none" stroke="#4a4a4a" d="M228.64,-216.17C213.26,-198.2 188.07,-168.94 166,-144 157.47,-134.37 147.98,-123.85 139.71,-114.74"/>
<polygon fill="#4a4a4a" stroke="#4a4a4a" points="142.12,-112.19 132.8,-107.15 136.95,-116.9 142.12,-112.19"/>
</a>
</g>
</g>
<!-- neural_networks&#45;&gt;gradient_boosting -->
<g id="edge17" class="edge">
<title>neural_networks&#45;&gt;gradient_boosting</title>
<g id="a_edge17"><a xlink:title="7 → 12">
<path fill="none" stroke="#4a4a4a" d="M255.29,-216.25C278.27,-185.55 330.23,-119.12 383,-72 395.81,-60.56 411.19,-49.52 424.82,-40.51"/>
<polygon fill="#4a4a4a" stroke="#4a4a4a" points="426.99,-43.27 433.48,-34.89 423.19,-37.4 426.99,-43.27"/>
</a>
</g>
</g>
<!-- neural_networks&#45;&gt;decision_tree -->
<g id="edge16" class="edge">
<title>neural_networks&#45;&gt;decision_tree</title>
<g id="a_edge16"><a xlink:title="7 → 6">
<path fill="none" stroke="#4a4a4a" d="M242.64,-215.87C242.13,-191.67 241.19,-147.21 240.58,-118.39"/>
<polygon fill="#4a4a4a" stroke="#4a4a4a" points="244.07,-118.11 240.36,-108.19 237.08,-118.26 244.07,-118.11"/>
</a>
</g>
</g>
<!-- neural_networks&#45;&gt;class -->
<g id="edge14" class="edge">
<title>neural_networks&#45;&gt;class</title>
<g id="a_edge14"><a xlink:title="7 → 0">
<path fill="none" stroke="#4a4a4a" d="M279.71,-218.71C306.88,-208.1 344.79,-193.24 378,-180 381.07,-178.78 384.26,-177.5 387.45,-176.21"/>
<polygon fill="#4a4a4a" stroke="#4a4a4a" points="388.95,-179.38 396.91,-172.4 386.33,-172.89 388.95,-179.38"/>
</a>
</g>
</g>
<!-- no_feature_selection -->
<g id="node14" class="node">
<title>no_feature_selection</title>
<g id="a_node14"><a xlink:title="(15) no_feature_selection">
<ellipse fill="#404040" stroke="#4a4a4a" cx="418" cy="-234" rx="83.69" ry="18"/>
<text text-anchor="middle" x="418" y="-230.3" font-family="Times,serif" font-size="14.00" fill="white">no_feature_selection</text>
</a>
</g>
</g>
<!-- no_feature_selection&#45;&gt;class -->
<g id="edge23" class="edge">
<title>no_feature_selection&#45;&gt;class</title>
<g id="a_edge23"><a xlink:title="15 → 0">
<path fill="none" stroke="#4a4a4a" d="M418.49,-215.7C418.71,-207.98 418.98,-198.71 419.23,-190.11"/>
<polygon fill="#4a4a4a" stroke="#4a4a4a" points="422.72,-190.2 419.51,-180.1 415.73,-190 422.72,-190.2"/>
</a>
</g>
</g>
<!-- class&#45;&gt;svm -->
<g id="edge5" class="edge">
<title>class&#45;&gt;svm</title>
<g id="a_edge5"><a xlink:title="0 → 14">
<path fill="none" stroke="#4a4a4a" d="M392.07,-159.64C331.11,-156.07 182.03,-144.08 63,-108 61.07,-107.41 59.1,-106.74 57.14,-106"/>
<polygon fill="#4a4a4a" stroke="#4a4a4a" points="58.1,-102.61 47.53,-101.96 55.39,-109.06 58.1,-102.61"/>
</a>
</g>
</g>
<!-- class&#45;&gt;extra_trees -->
<g id="edge12" class="edge">
<title>class&#45;&gt;extra_trees</title>
<g id="a_edge12"><a xlink:title="0 → 10">
<path fill="none" stroke="#4a4a4a" d="M442.25,-150.82C466.22,-139.85 504.85,-122.18 533.92,-108.88"/>
<polygon fill="#4a4a4a" stroke="#4a4a4a" points="535.73,-111.9 543.37,-104.56 532.82,-105.53 535.73,-111.9"/>
</a>
</g>
</g>
<!-- class&#45;&gt;extra_tree -->
<g id="edge20" class="edge">
<title>class&#45;&gt;extra_tree</title>
<g id="a_edge20"><a xlink:title="0 → 9">
<path fill="none" stroke="#4a4a4a" d="M393.5,-156.11C348.08,-147.56 252.56,-128.79 173,-108 169.46,-107.07 165.8,-106.06 162.13,-105.01"/>
<polygon fill="#4a4a4a" stroke="#4a4a4a" points="163.07,-101.64 152.49,-102.17 161.09,-108.36 163.07,-101.64"/>
</a>
</g>
</g>
<!-- class&#45;&gt;gradient_boosting -->
<g id="edge22" class="edge">
<title>class&#45;&gt;gradient_boosting</title>
<g id="a_edge22"><a xlink:title="0 → 12">
<path fill="none" stroke="#4a4a4a" d="M439.57,-149.1C452.87,-139.77 469.39,-125.47 477,-108 485.69,-88.04 480.02,-63.66 472.98,-45.46"/>
<polygon fill="#4a4a4a" stroke="#4a4a4a" points="476.12,-43.91 469,-36.06 469.67,-46.63 476.12,-43.91"/>
</a>
</g>
</g>
<!-- class&#45;&gt;decision_tree -->
<g id="edge21" class="edge">
<title>class&#45;&gt;decision_tree</title>
<g id="a_edge21"><a xlink:title="0 → 6">
<path fill="none" stroke="#4a4a4a" d="M396.47,-151.85C368.07,-140.81 319.73,-122.01 284.28,-108.22"/>
<polygon fill="#4a4a4a" stroke="#4a4a4a" points="285.23,-104.84 274.65,-104.47 282.7,-111.36 285.23,-104.84"/>
</a>
</g>
</g>
<!-- class&#45;&gt;General_Descriptors -->
<g id="edge9" class="edge">
<title>class&#45;&gt;General_Descriptors</title>
<g id="a_edge9"><a xlink:title="0 → 1">
<path fill="none" stroke="#4a4a4a" d="M446.47,-155.97C502.63,-145.28 635.33,-120.04 717.81,-104.35"/>
<polygon fill="#4a4a4a" stroke="#4a4a4a" points="718.69,-107.75 727.86,-102.44 717.38,-100.87 718.69,-107.75"/>
</a>
</g>
</g>
<!-- class&#45;&gt;normalizer -->
<g id="edge3" class="edge">
<title>class&#45;&gt;normalizer</title>
<g id="a_edge3"><a xlink:title="0 → 5">
<path fill="none" stroke="#4a4a4a" d="M406.86,-146.07C385.32,-121.6 342.29,-72.72 316.33,-43.23"/>
<polygon fill="#4a4a4a" stroke="#4a4a4a" points="318.73,-40.66 309.5,-35.47 313.48,-45.29 318.73,-40.66"/>
</a>
</g>
</g>
<!-- xgboost -->
<g id="node16" class="node">
<title>xgboost</title>
<g id="a_node16"><a xlink:title="(13) xgboost">
<ellipse fill="#404040" stroke="#4a4a4a" cx="430" cy="-90" rx="38.19" ry="18"/>
<text text-anchor="middle" x="430" y="-86.3" font-family="Times,serif" font-size="14.00" fill="white">xgboost</text>
</a>
</g>
</g>
<!-- xgboost&#45;&gt;gradient_boosting -->
<g id="edge24" class="edge">
<title>xgboost&#45;&gt;gradient_boosting</title>
<g id="a_edge24"><a xlink:title="13 → 12">
<path fill="none" stroke="#4a4a4a" d="M437.26,-72.05C440.68,-64.09 444.82,-54.41 448.64,-45.51"/>
<polygon fill="#4a4a4a" stroke="#4a4a4a" points="451.87,-46.85 452.6,-36.28 445.44,-44.09 451.87,-46.85"/>
</a>
</g>
</g>
</g>
</svg>
