<?xml version="1.0" encoding="UTF-8" standalone="no"?>
<!DOCTYPE svg PUBLIC "-//W3C//DTD SVG 1.1//EN"
 "http://www.w3.org/Graphics/SVG/1.1/DTD/svg11.dtd">
<!-- Generated by graphviz version 2.43.0 (0)
 -->
<!-- Title: G Pages: 1 -->
<svg width="360pt" height="109pt"
 viewBox="0.00 0.00 360.00 109.16" xmlns="http://www.w3.org/2000/svg" xmlns:xlink="http://www.w3.org/1999/xlink">
<g id="graph0" class="graph" transform="scale(0.42 0.42) rotate(0) translate(4 256)">
<title>G</title>
<!-- svm -->
<g id="node1" class="node">
<title>svm</title>
<g id="a_node1"><a xlink:title="(12) svm">
<ellipse fill="#404040" stroke="#4a4a4a" cx="441.84" cy="-234" rx="27" ry="18"/>
<text text-anchor="middle" x="441.84" y="-230.3" font-family="Times,serif" font-size="14.00" fill="white">svm</text>
</a>
</g>
</g>
<!-- class -->
<g id="node13" class="node">
<title>class</title>
<g id="a_node13"><a xlink:title="(0) class">
<ellipse fill="#404040" stroke="#4a4a4a" cx="441.84" cy="-162" rx="27.9" ry="18"/>
<text text-anchor="middle" x="441.84" y="-158.3" font-family="Times,serif" font-size="14.00" fill="white">class</text>
</a>
</g>
</g>
<!-- svm&#45;&gt;class -->
<g id="edge11" class="edge">
<title>svm&#45;&gt;class</title>
<g id="a_edge11"><a xlink:title="12 → 0">
<path fill="none" stroke="#4a4a4a" d="M441.84,-215.7C441.84,-207.98 441.84,-198.71 441.84,-190.11"/>
<polygon fill="#4a4a4a" stroke="#4a4a4a" points="445.34,-190.1 441.84,-180.1 438.34,-190.1 445.34,-190.1"/>
</a>
</g>
</g>
<!-- Toxicophores -->
<g id="node2" class="node">
<title>Toxicophores</title>
<g id="a_node2"><a xlink:title="(2) Toxicophores">
<ellipse fill="#404040" stroke="#4a4a4a" cx="632.84" cy="-162" rx="59.29" ry="18"/>
<text text-anchor="middle" x="632.84" y="-158.3" font-family="Times,serif" font-size="14.00" fill="white">Toxicophores</text>
</a>
</g>
</g>
<!-- General_Descriptors -->
<g id="node7" class="node">
<title>General_Descriptors</title>
<g id="a_node7"><a xlink:title="(1) General_Descriptors">
<ellipse fill="#404040" stroke="#4a4a4a" cx="632.84" cy="-90" rx="83.39" ry="18"/>
<text text-anchor="middle" x="632.84" y="-86.3" font-family="Times,serif" font-size="14.00" fill="white">General_Descriptors</text>
</a>
</g>
</g>
<!-- Toxicophores&#45;&gt;General_Descriptors -->
<g id="edge6" class="edge">
<title>Toxicophores&#45;&gt;General_Descriptors</title>
<g id="a_edge6"><a xlink:title="2 → 1">
<path fill="none" stroke="#4a4a4a" d="M632.84,-143.7C632.84,-135.98 632.84,-126.71 632.84,-118.11"/>
<polygon fill="#4a4a4a" stroke="#4a4a4a" points="636.34,-118.1 632.84,-108.1 629.34,-118.1 636.34,-118.1"/>
</a>
</g>
</g>
<!-- extra_trees -->
<g id="node3" class="node">
<title>extra_trees</title>
<g id="a_node3"><a xlink:title="(4) extra_trees">
<ellipse fill="#404040" stroke="#4a4a4a" cx="406.84" cy="-90" rx="49.29" ry="18"/>
<text text-anchor="middle" x="406.84" y="-86.3" font-family="Times,serif" font-size="14.00" fill="white">extra_trees</text>
</a>
</g>
</g>
<!-- gradient_boosting -->
<g id="node4" class="node">
<title>gradient_boosting</title>
<g id="a_node4"><a xlink:title="(11) gradient_boosting">
<ellipse fill="#404040" stroke="#4a4a4a" cx="330.84" cy="-18" rx="74.19" ry="18"/>
<text text-anchor="middle" x="330.84" y="-14.3" font-family="Times,serif" font-size="14.00" fill="white">gradient_boosting</text>
</a>
</g>
</g>
<!-- extra_trees&#45;&gt;gradient_boosting -->
<g id="edge15" class="edge">
<title>extra_trees&#45;&gt;gradient_boosting</title>
<g id="a_edge15"><a xlink:title="4 → 11">
<path fill="none" stroke="#4a4a4a" d="M389.6,-73.12C379.8,-64.09 367.35,-52.62 356.43,-42.57"/>
<polygon fill="#4a4a4a" stroke="#4a4a4a" points="358.54,-39.75 348.81,-35.55 353.8,-44.9 358.54,-39.75"/>
</a>
</g>
</g>
<!-- Graph_based_Signatures -->
<g id="node8" class="node">
<title>Graph_based_Signatures</title>
<g id="a_node8"><a xlink:title="(3) Graph_based_Signatures">
<ellipse fill="#404040" stroke="#4a4a4a" cx="521.84" cy="-18" rx="98.58" ry="18"/>
<text text-anchor="middle" x="521.84" y="-14.3" font-family="Times,serif" font-size="14.00" fill="white">Graph_based_Signatures</text>
</a>
</g>
</g>
<!-- extra_trees&#45;&gt;Graph_based_Signatures -->
<g id="edge10" class="edge">
<title>extra_trees&#45;&gt;Graph_based_Signatures</title>
<g id="a_edge10"><a xlink:title="4 → 3">
<path fill="none" stroke="#4a4a4a" d="M431.23,-74.15C447.06,-64.52 467.98,-51.79 485.72,-40.99"/>
<polygon fill="#4a4a4a" stroke="#4a4a4a" points="487.95,-43.73 494.67,-35.54 484.31,-37.75 487.95,-43.73"/>
</a>
</g>
</g>
<!-- decision_tree -->
<g id="node5" class="node">
<title>decision_tree</title>
<g id="a_node5"><a xlink:title="(10) decision_tree">
<ellipse fill="#404040" stroke="#4a4a4a" cx="281.84" cy="-90" rx="57.69" ry="18"/>
<text text-anchor="middle" x="281.84" y="-86.3" font-family="Times,serif" font-size="14.00" fill="white">decision_tree</text>
</a>
</g>
</g>
<!-- select_rfe -->
<g id="node6" class="node">
<title>select_rfe</title>
<g id="a_node6"><a xlink:title="(8) select_rfe">
<ellipse fill="#404040" stroke="#4a4a4a" cx="122.84" cy="-162" rx="44.69" ry="18"/>
<text text-anchor="middle" x="122.84" y="-158.3" font-family="Times,serif" font-size="14.00" fill="white">select_rfe</text>
</a>
</g>
</g>
<!-- no_feature_selection -->
<g id="node11" class="node">
<title>no_feature_selection</title>
<g id="a_node11"><a xlink:title="(7) no_feature_selection">
<ellipse fill="#404040" stroke="#4a4a4a" cx="83.84" cy="-90" rx="83.69" ry="18"/>
<text text-anchor="middle" x="83.84" y="-86.3" font-family="Times,serif" font-size="14.00" fill="white">no_feature_selection</text>
</a>
</g>
</g>
<!-- select_rfe&#45;&gt;no_feature_selection -->
<g id="edge9" class="edge">
<title>select_rfe&#45;&gt;no_feature_selection</title>
<g id="a_edge9"><a xlink:title="8 → 7">
<path fill="none" stroke="#4a4a4a" d="M113.4,-144.05C108.92,-136.01 103.46,-126.2 98.45,-117.23"/>
<polygon fill="#4a4a4a" stroke="#4a4a4a" points="101.39,-115.31 93.47,-108.28 95.28,-118.71 101.39,-115.31"/>
</a>
</g>
</g>
<!-- normalizer -->
<g id="node9" class="node">
<title>normalizer</title>
<g id="a_node9"><a xlink:title="(5) normalizer">
<ellipse fill="#404040" stroke="#4a4a4a" cx="783.84" cy="-90" rx="49.29" ry="18"/>
<text text-anchor="middle" x="783.84" y="-86.3" font-family="Times,serif" font-size="14.00" fill="white">normalizer</text>
</a>
</g>
</g>
<!-- neural_networks -->
<g id="node10" class="node">
<title>neural_networks</title>
<g id="a_node10"><a xlink:title="(9) neural_networks">
<ellipse fill="#404040" stroke="#4a4a4a" cx="281.84" cy="-234" rx="69.59" ry="18"/>
<text text-anchor="middle" x="281.84" y="-230.3" font-family="Times,serif" font-size="14.00" fill="white">neural_networks</text>
</a>
</g>
</g>
<!-- neural_networks&#45;&gt;extra_trees -->
<g id="edge18" class="edge">
<title>neural_networks&#45;&gt;extra_trees</title>
<g id="a_edge18"><a xlink:title="9 → 4">
<path fill="none" stroke="#4a4a4a" d="M296.67,-216.15C318.78,-191.04 360.48,-143.67 385.75,-114.96"/>
<polygon fill="#4a4a4a" stroke="#4a4a4a" points="388.44,-117.21 392.42,-107.39 383.18,-112.58 388.44,-117.21"/>
</a>
</g>
</g>
<!-- neural_networks&#45;&gt;gradient_boosting -->
<g id="edge14" class="edge">
<title>neural_networks&#45;&gt;gradient_boosting</title>
<g id="a_edge14"><a xlink:title="9 → 11">
<path fill="none" stroke="#4a4a4a" d="M264.58,-216.06C235.72,-185.64 183.75,-120.39 214.84,-72 226.62,-53.67 246.49,-41.6 266.48,-33.68"/>
<polygon fill="#4a4a4a" stroke="#4a4a4a" points="267.76,-36.94 275.96,-30.23 265.37,-30.37 267.76,-36.94"/>
</a>
</g>
</g>
<!-- neural_networks&#45;&gt;decision_tree -->
<g id="edge4" class="edge">
<title>neural_networks&#45;&gt;decision_tree</title>
<g id="a_edge4"><a xlink:title="9 → 10">
<path fill="none" stroke="#4a4a4a" d="M281.84,-215.87C281.84,-191.67 281.84,-147.21 281.84,-118.39"/>
<polygon fill="#4a4a4a" stroke="#4a4a4a" points="285.34,-118.19 281.84,-108.19 278.34,-118.19 285.34,-118.19"/>
</a>
</g>
</g>
<!-- neural_networks&#45;&gt;no_feature_selection -->
<g id="edge16" class="edge">
<title>neural_networks&#45;&gt;no_feature_selection</title>
<g id="a_edge16"><a xlink:title="9 → 7">
<path fill="none" stroke="#4a4a4a" d="M219.45,-225.96C163.45,-218.21 87.29,-203.61 68.84,-180 54.97,-162.26 61.4,-136.39 69.71,-117.1"/>
<polygon fill="#4a4a4a" stroke="#4a4a4a" points="72.92,-118.51 74,-107.97 66.58,-115.54 72.92,-118.51"/>
</a>
</g>
</g>
<!-- neural_networks&#45;&gt;class -->
<g id="edge3" class="edge">
<title>neural_networks&#45;&gt;class</title>
<g id="a_edge3"><a xlink:title="9 → 0">
<path fill="none" stroke="#4a4a4a" d="M315.77,-218.15C343.55,-206 382.57,-188.93 409.82,-177.01"/>
<polygon fill="#4a4a4a" stroke="#4a4a4a" points="411.52,-180.09 419.28,-172.87 408.71,-173.67 411.52,-180.09"/>
</a>
</g>
</g>
<!-- standard_scaler -->
<g id="node12" class="node">
<title>standard_scaler</title>
<g id="a_node12"><a xlink:title="(6) standard_scaler">
<ellipse fill="#404040" stroke="#4a4a4a" cx="783.84" cy="-162" rx="65.79" ry="18"/>
<text text-anchor="middle" x="783.84" y="-158.3" font-family="Times,serif" font-size="14.00" fill="white">standard_scaler</text>
</a>
</g>
</g>
<!-- standard_scaler&#45;&gt;normalizer -->
<g id="edge7" class="edge">
<title>standard_scaler&#45;&gt;normalizer</title>
<g id="a_edge7"><a xlink:title="6 → 5">
<path fill="none" stroke="#4a4a4a" d="M783.84,-143.7C783.84,-135.98 783.84,-126.71 783.84,-118.11"/>
<polygon fill="#4a4a4a" stroke="#4a4a4a" points="787.34,-118.1 783.84,-108.1 780.34,-118.1 787.34,-118.1"/>
</a>
</g>
</g>
<!-- class&#45;&gt;extra_trees -->
<g id="edge5" class="edge">
<title>class&#45;&gt;extra_trees</title>
<g id="a_edge5"><a xlink:title="0 → 4">
<path fill="none" stroke="#4a4a4a" d="M433.72,-144.76C429.65,-136.61 424.61,-126.53 420,-117.31"/>
<polygon fill="#4a4a4a" stroke="#4a4a4a" points="423.01,-115.5 415.4,-108.12 416.75,-118.63 423.01,-115.5"/>
</a>
</g>
</g>
<!-- class&#45;&gt;gradient_boosting -->
<g id="edge17" class="edge">
<title>class&#45;&gt;gradient_boosting</title>
<g id="a_edge17"><a xlink:title="0 → 11">
<path fill="none" stroke="#4a4a4a" d="M453.05,-145.21C464.95,-126.32 480.1,-94.44 464.84,-72 455.6,-58.41 420.54,-44.8 388.6,-34.78"/>
<polygon fill="#4a4a4a" stroke="#4a4a4a" points="389.41,-31.37 378.82,-31.79 387.36,-38.06 389.41,-31.37"/>
</a>
</g>
</g>
<!-- class&#45;&gt;decision_tree -->
<g id="edge8" class="edge">
<title>class&#45;&gt;decision_tree</title>
<g id="a_edge8"><a xlink:title="0 → 10">
<path fill="none" stroke="#4a4a4a" d="M419.26,-151.12C394.46,-140.27 354.11,-122.62 323.54,-109.24"/>
<polygon fill="#4a4a4a" stroke="#4a4a4a" points="324.55,-105.86 313.99,-105.06 321.74,-112.28 324.55,-105.86"/>
</a>
</g>
</g>
<!-- class&#45;&gt;General_Descriptors -->
<g id="edge1" class="edge">
<title>class&#45;&gt;General_Descriptors</title>
<g id="a_edge1"><a xlink:title="0 → 1">
<path fill="none" stroke="#4a4a4a" d="M465.65,-152.28C494.75,-141.61 544.78,-123.28 582.55,-109.43"/>
<polygon fill="#4a4a4a" stroke="#4a4a4a" points="584.17,-112.57 592.35,-105.84 581.76,-105.99 584.17,-112.57"/>
</a>
</g>
</g>
<!-- class&#45;&gt;Graph_based_Signatures -->
<g id="edge12" class="edge">
<title>class&#45;&gt;Graph_based_Signatures</title>
<g id="a_edge12"><a xlink:title="0 → 3">
<path fill="none" stroke="#4a4a4a" d="M460,-148.13C472.39,-138.43 488.24,-124.09 497.84,-108 509.16,-89.05 515.25,-64.68 518.46,-46.24"/>
<polygon fill="#4a4a4a" stroke="#4a4a4a" points="521.95,-46.57 520.03,-36.15 515.03,-45.49 521.95,-46.57"/>
</a>
</g>
</g>
<!-- class&#45;&gt;normalizer -->
<g id="edge13" class="edge">
<title>class&#45;&gt;normalizer</title>
<g id="a_edge13"><a xlink:title="0 → 5">
<path fill="none" stroke="#4a4a4a" d="M468.95,-156.81C519.55,-148.79 631.7,-130.09 724.84,-108 728.93,-107.03 733.15,-105.96 737.37,-104.84"/>
<polygon fill="#4a4a4a" stroke="#4a4a4a" points="738.44,-108.17 747.16,-102.16 736.59,-101.42 738.44,-108.17"/>
</a>
</g>
</g>
<!-- class&#45;&gt;no_feature_selection -->
<g id="edge2" class="edge">
<title>class&#45;&gt;no_feature_selection</title>
<g id="a_edge2"><a xlink:title="0 → 7">
<path fill="none" stroke="#4a4a4a" d="M415.52,-155.85C360.93,-145.18 233.84,-120.33 153.79,-104.68"/>
<polygon fill="#4a4a4a" stroke="#4a4a4a" points="154.27,-101.2 143.78,-102.72 152.92,-108.07 154.27,-101.2"/>
</a>
</g>
</g>
</g>
</svg>
