<?xml version="1.0" encoding="UTF-8" standalone="no"?>
<!DOCTYPE svg PUBLIC "-//W3C//DTD SVG 1.1//EN"
 "http://www.w3.org/Graphics/SVG/1.1/DTD/svg11.dtd">
<!-- Generated by graphviz version 2.43.0 (0)
 -->
<!-- Title: G Pages: 1 -->
<svg width="360pt" height="106pt"
 viewBox="0.00 0.00 360.00 106.08" xmlns="http://www.w3.org/2000/svg" xmlns:xlink="http://www.w3.org/1999/xlink">
<g id="graph0" class="graph" transform="scale(0.41 0.41) rotate(0) translate(4 256)">
<title>G</title>
<!-- svm -->
<g id="node1" class="node">
<title>svm</title>
<g id="a_node1"><a xlink:title="(11) svm">
<ellipse fill="#404040" stroke="#4a4a4a" cx="93.53" cy="-90" rx="27" ry="18"/>
<text text-anchor="middle" x="93.53" y="-86.3" font-family="Times,serif" font-size="14.00" fill="white">svm</text>
</a>
</g>
</g>
<!-- Toxicophores -->
<g id="node2" class="node">
<title>Toxicophores</title>
<g id="a_node2"><a xlink:title="(3) Toxicophores">
<ellipse fill="#404040" stroke="#4a4a4a" cx="211.53" cy="-162" rx="59.29" ry="18"/>
<text text-anchor="middle" x="211.53" y="-158.3" font-family="Times,serif" font-size="14.00" fill="white">Toxicophores</text>
</a>
</g>
</g>
<!-- General_Descriptors -->
<g id="node9" class="node">
<title>General_Descriptors</title>
<g id="a_node9"><a xlink:title="(1) General_Descriptors">
<ellipse fill="#404040" stroke="#4a4a4a" cx="221.53" cy="-90" rx="83.39" ry="18"/>
<text text-anchor="middle" x="221.53" y="-86.3" font-family="Times,serif" font-size="14.00" fill="white">General_Descriptors</text>
</a>
</g>
</g>
<!-- Toxicophores&#45;&gt;General_Descriptors -->
<g id="edge1" class="edge">
<title>Toxicophores&#45;&gt;General_Descriptors</title>
<g id="a_edge1"><a xlink:title="3 → 1">
<path fill="none" stroke="#4a4a4a" d="M214,-143.7C215.1,-135.98 216.43,-126.71 217.65,-118.11"/>
<polygon fill="#4a4a4a" stroke="#4a4a4a" points="221.13,-118.5 219.08,-108.1 214.2,-117.51 221.13,-118.5"/>
</a>
</g>
</g>
<!-- extra_trees -->
<g id="node3" class="node">
<title>extra_trees</title>
<g id="a_node3"><a xlink:title="(8) extra_trees">
<ellipse fill="#404040" stroke="#4a4a4a" cx="372.53" cy="-90" rx="49.29" ry="18"/>
<text text-anchor="middle" x="372.53" y="-86.3" font-family="Times,serif" font-size="14.00" fill="white">extra_trees</text>
</a>
</g>
</g>
<!-- gradient_boosting -->
<g id="node4" class="node">
<title>gradient_boosting</title>
<g id="a_node4"><a xlink:title="(9) gradient_boosting">
<ellipse fill="#404040" stroke="#4a4a4a" cx="425.53" cy="-18" rx="74.19" ry="18"/>
<text text-anchor="middle" x="425.53" y="-14.3" font-family="Times,serif" font-size="14.00" fill="white">gradient_boosting</text>
</a>
</g>
</g>
<!-- extra_trees&#45;&gt;gradient_boosting -->
<g id="edge3" class="edge">
<title>extra_trees&#45;&gt;gradient_boosting</title>
<g id="a_edge3"><a xlink:title="8 → 9">
<path fill="none" stroke="#4a4a4a" d="M385.09,-72.41C391.46,-63.99 399.34,-53.58 406.45,-44.2"/>
<polygon fill="#4a4a4a" stroke="#4a4a4a" points="409.44,-46.04 412.69,-35.96 403.86,-41.82 409.44,-46.04"/>
</a>
</g>
</g>
<!-- Advanced_Descriptors -->
<g id="node5" class="node">
<title>Advanced_Descriptors</title>
<g id="a_node5"><a xlink:title="(2) Advanced_Descriptors">
<ellipse fill="#404040" stroke="#4a4a4a" cx="379.53" cy="-162" rx="90.98" ry="18"/>
<text text-anchor="middle" x="379.53" y="-158.3" font-family="Times,serif" font-size="14.00" fill="white">Advanced_Descriptors</text>
</a>
</g>
</g>
<!-- Advanced_Descriptors&#45;&gt;General_Descriptors -->
<g id="edge12" class="edge">
<title>Advanced_Descriptors&#45;&gt;General_Descriptors</title>
<g id="a_edge12"><a xlink:title="2 → 1">
<path fill="none" stroke="#4a4a4a" d="M344.07,-145.29C320.83,-135 290.29,-121.47 265.51,-110.49"/>
<polygon fill="#4a4a4a" stroke="#4a4a4a" points="266.88,-107.27 256.32,-106.42 264.05,-113.67 266.88,-107.27"/>
</a>
</g>
</g>
<!-- decision_tree -->
<g id="node6" class="node">
<title>decision_tree</title>
<g id="a_node6"><a xlink:title="(7) decision_tree">
<ellipse fill="#404040" stroke="#4a4a4a" cx="630.53" cy="-90" rx="57.69" ry="18"/>
<text text-anchor="middle" x="630.53" y="-86.3" font-family="Times,serif" font-size="14.00" fill="white">decision_tree</text>
</a>
</g>
</g>
<!-- nu_svm -->
<g id="node7" class="node">
<title>nu_svm</title>
<g id="a_node7"><a xlink:title="(12) nu_svm">
<ellipse fill="#404040" stroke="#4a4a4a" cx="57.53" cy="-162" rx="38.99" ry="18"/>
<text text-anchor="middle" x="57.53" y="-158.3" font-family="Times,serif" font-size="14.00" fill="white">nu_svm</text>
</a>
</g>
</g>
<!-- nu_svm&#45;&gt;svm -->
<g id="edge15" class="edge">
<title>nu_svm&#45;&gt;svm</title>
<g id="a_edge15"><a xlink:title="12 → 11">
<path fill="none" stroke="#4a4a4a" d="M66.06,-144.41C70.36,-136.04 75.68,-125.71 80.48,-116.37"/>
<polygon fill="#4a4a4a" stroke="#4a4a4a" points="83.6,-117.96 85.06,-107.47 77.37,-114.76 83.6,-117.96"/>
</a>
</g>
</g>
<!-- select_rfe -->
<g id="node8" class="node">
<title>select_rfe</title>
<g id="a_node8"><a xlink:title="(5) select_rfe">
<ellipse fill="#404040" stroke="#4a4a4a" cx="790.53" cy="-162" rx="44.69" ry="18"/>
<text text-anchor="middle" x="790.53" y="-158.3" font-family="Times,serif" font-size="14.00" fill="white">select_rfe</text>
</a>
</g>
</g>
<!-- no_feature_selection -->
<g id="node12" class="node">
<title>no_feature_selection</title>
<g id="a_node12"><a xlink:title="(4) no_feature_selection">
<ellipse fill="#404040" stroke="#4a4a4a" cx="790.53" cy="-90" rx="83.69" ry="18"/>
<text text-anchor="middle" x="790.53" y="-86.3" font-family="Times,serif" font-size="14.00" fill="white">no_feature_selection</text>
</a>
</g>
</g>
<!-- select_rfe&#45;&gt;no_feature_selection -->
<g id="edge2" class="edge">
<title>select_rfe&#45;&gt;no_feature_selection</title>
<g id="a_edge2"><a xlink:title="5 → 4">
<path fill="none" stroke="#4a4a4a" d="M790.53,-143.7C790.53,-135.98 790.53,-126.71 790.53,-118.11"/>
<polygon fill="#4a4a4a" stroke="#4a4a4a" points="794.03,-118.1 790.53,-108.1 787.03,-118.1 794.03,-118.1"/>
</a>
</g>
</g>
<!-- Graph_based_Signatures -->
<g id="node10" class="node">
<title>Graph_based_Signatures</title>
<g id="a_node10"><a xlink:title="(13) Graph_based_Signatures">
<ellipse fill="#404040" stroke="#4a4a4a" cx="684.53" cy="-234" rx="98.58" ry="18"/>
<text text-anchor="middle" x="684.53" y="-230.3" font-family="Times,serif" font-size="14.00" fill="white">Graph_based_Signatures</text>
</a>
</g>
</g>
<!-- class -->
<g id="node13" class="node">
<title>class</title>
<g id="a_node13"><a xlink:title="(0) class">
<ellipse fill="#404040" stroke="#4a4a4a" cx="554.53" cy="-162" rx="27.9" ry="18"/>
<text text-anchor="middle" x="554.53" y="-158.3" font-family="Times,serif" font-size="14.00" fill="white">class</text>
</a>
</g>
</g>
<!-- Graph_based_Signatures&#45;&gt;class -->
<g id="edge17" class="edge">
<title>Graph_based_Signatures&#45;&gt;class</title>
<g id="a_edge17"><a xlink:title="13 → 0">
<path fill="none" stroke="#4a4a4a" d="M654.38,-216.76C633.21,-205.37 605.04,-190.2 584.01,-178.88"/>
<polygon fill="#4a4a4a" stroke="#4a4a4a" points="585.66,-175.79 575.2,-174.13 582.34,-181.95 585.66,-175.79"/>
</a>
</g>
</g>
<!-- neural_networks -->
<g id="node11" class="node">
<title>neural_networks</title>
<g id="a_node11"><a xlink:title="(6) neural_networks">
<ellipse fill="#404040" stroke="#4a4a4a" cx="498.53" cy="-234" rx="69.59" ry="18"/>
<text text-anchor="middle" x="498.53" y="-230.3" font-family="Times,serif" font-size="14.00" fill="white">neural_networks</text>
</a>
</g>
</g>
<!-- neural_networks&#45;&gt;svm -->
<g id="edge7" class="edge">
<title>neural_networks&#45;&gt;svm</title>
<g id="a_edge7"><a xlink:title="6 → 11">
<path fill="none" stroke="#4a4a4a" d="M430.56,-229.89C340.83,-224.62 188.87,-211.26 143.53,-180 122.06,-165.2 108.75,-138.01 101.31,-117.56"/>
<polygon fill="#4a4a4a" stroke="#4a4a4a" points="104.56,-116.22 98.04,-107.87 97.92,-118.46 104.56,-116.22"/>
</a>
</g>
</g>
<!-- neural_networks&#45;&gt;extra_trees -->
<g id="edge8" class="edge">
<title>neural_networks&#45;&gt;extra_trees</title>
<g id="a_edge8"><a xlink:title="6 → 8">
<path fill="none" stroke="#4a4a4a" d="M499.11,-215.76C498.87,-196.36 495.72,-164.83 479.53,-144 464.97,-125.26 442.03,-112.69 421.13,-104.51"/>
<polygon fill="#4a4a4a" stroke="#4a4a4a" points="422.3,-101.21 411.7,-101.05 419.89,-107.78 422.3,-101.21"/>
</a>
</g>
</g>
<!-- neural_networks&#45;&gt;gradient_boosting -->
<g id="edge19" class="edge">
<title>neural_networks&#45;&gt;gradient_boosting</title>
<g id="a_edge19"><a xlink:title="6 → 9">
<path fill="none" stroke="#4a4a4a" d="M430.25,-230.56C302.38,-225.29 37.12,-210.74 9.53,-180 -24.92,-141.62 47.61,-78.26 57.53,-72 103.74,-42.84 249.83,-29.06 343.44,-23.08"/>
<polygon fill="#4a4a4a" stroke="#4a4a4a" points="343.69,-26.57 353.46,-22.46 343.26,-19.59 343.69,-26.57"/>
</a>
</g>
</g>
<!-- neural_networks&#45;&gt;decision_tree -->
<g id="edge14" class="edge">
<title>neural_networks&#45;&gt;decision_tree</title>
<g id="a_edge14"><a xlink:title="6 → 7">
<path fill="none" stroke="#4a4a4a" d="M535.37,-218.7C554.17,-209.89 576.23,-196.99 591.53,-180 607.5,-162.25 617.74,-136.92 623.69,-117.81"/>
<polygon fill="#4a4a4a" stroke="#4a4a4a" points="627.06,-118.78 626.5,-108.2 620.34,-116.82 627.06,-118.78"/>
</a>
</g>
</g>
<!-- neural_networks&#45;&gt;no_feature_selection -->
<g id="edge13" class="edge">
<title>neural_networks&#45;&gt;no_feature_selection</title>
<g id="a_edge13"><a xlink:title="6 → 4">
<path fill="none" stroke="#4a4a4a" d="M532.87,-218.31C556.77,-207.94 589.28,-193.54 617.53,-180 664.22,-157.61 717.03,-130.12 751.88,-111.67"/>
<polygon fill="#4a4a4a" stroke="#4a4a4a" points="753.59,-114.73 760.78,-106.95 750.31,-108.54 753.59,-114.73"/>
</a>
</g>
</g>
<!-- neural_networks&#45;&gt;class -->
<g id="edge18" class="edge">
<title>neural_networks&#45;&gt;class</title>
<g id="a_edge18"><a xlink:title="6 → 0">
<path fill="none" stroke="#4a4a4a" d="M512.08,-216.05C519.19,-207.17 528.02,-196.14 535.77,-186.45"/>
<polygon fill="#4a4a4a" stroke="#4a4a4a" points="538.73,-188.35 542.24,-178.36 533.26,-183.98 538.73,-188.35"/>
</a>
</g>
</g>
<!-- class&#45;&gt;svm -->
<g id="edge6" class="edge">
<title>class&#45;&gt;svm</title>
<g id="a_edge6"><a xlink:title="0 → 11">
<path fill="none" stroke="#4a4a4a" d="M528.99,-154.41C514.56,-150.89 496.13,-146.72 479.53,-144 325.22,-118.67 280.16,-149.99 129.53,-108 127.58,-107.46 125.61,-106.82 123.64,-106.11"/>
<polygon fill="#4a4a4a" stroke="#4a4a4a" points="124.58,-102.71 114.01,-102.13 121.91,-109.18 124.58,-102.71"/>
</a>
</g>
</g>
<!-- class&#45;&gt;extra_trees -->
<g id="edge5" class="edge">
<title>class&#45;&gt;extra_trees</title>
<g id="a_edge5"><a xlink:title="0 → 8">
<path fill="none" stroke="#4a4a4a" d="M531.46,-151.55C525.32,-149.07 518.68,-146.41 512.53,-144 480.06,-131.28 443.16,-117.34 415.4,-106.94"/>
<polygon fill="#4a4a4a" stroke="#4a4a4a" points="416.58,-103.65 405.99,-103.42 414.13,-110.2 416.58,-103.65"/>
</a>
</g>
</g>
<!-- class&#45;&gt;gradient_boosting -->
<g id="edge16" class="edge">
<title>class&#45;&gt;gradient_boosting</title>
<g id="a_edge16"><a xlink:title="0 → 9">
<path fill="none" stroke="#4a4a4a" d="M552.78,-143.74C550.01,-124.32 542.99,-92.77 525.53,-72 512.83,-56.9 494.71,-45.49 477.37,-37.2"/>
<polygon fill="#4a4a4a" stroke="#4a4a4a" points="478.42,-33.83 467.86,-32.92 475.54,-40.22 478.42,-33.83"/>
</a>
</g>
</g>
<!-- class&#45;&gt;decision_tree -->
<g id="edge10" class="edge">
<title>class&#45;&gt;decision_tree</title>
<g id="a_edge10"><a xlink:title="0 → 7">
<path fill="none" stroke="#4a4a4a" d="M569.91,-146.83C580.08,-137.46 593.66,-124.96 605.39,-114.15"/>
<polygon fill="#4a4a4a" stroke="#4a4a4a" points="607.79,-116.7 612.77,-107.35 603.04,-111.55 607.79,-116.7"/>
</a>
</g>
</g>
<!-- class&#45;&gt;General_Descriptors -->
<g id="edge9" class="edge">
<title>class&#45;&gt;General_Descriptors</title>
<g id="a_edge9"><a xlink:title="0 → 1">
<path fill="none" stroke="#4a4a4a" d="M528.52,-154.97C514.1,-151.66 495.84,-147.52 479.53,-144 415.63,-130.2 342.63,-115.28 290.63,-104.8"/>
<polygon fill="#4a4a4a" stroke="#4a4a4a" points="291.01,-101.31 280.52,-102.76 289.63,-108.17 291.01,-101.31"/>
</a>
</g>
</g>
<!-- class&#45;&gt;no_feature_selection -->
<g id="edge11" class="edge">
<title>class&#45;&gt;no_feature_selection</title>
<g id="a_edge11"><a xlink:title="0 → 4">
<path fill="none" stroke="#4a4a4a" d="M579.34,-153.64C615.65,-142.87 684.3,-122.51 733.48,-107.92"/>
<polygon fill="#4a4a4a" stroke="#4a4a4a" points="734.75,-111.19 743.35,-104.99 732.76,-104.48 734.75,-111.19"/>
</a>
</g>
</g>
<!-- xgboost -->
<g id="node14" class="node">
<title>xgboost</title>
<g id="a_node14"><a xlink:title="(10) xgboost">
<ellipse fill="#404040" stroke="#4a4a4a" cx="478.53" cy="-90" rx="38.19" ry="18"/>
<text text-anchor="middle" x="478.53" y="-86.3" font-family="Times,serif" font-size="14.00" fill="white">xgboost</text>
</a>
</g>
</g>
<!-- xgboost&#45;&gt;gradient_boosting -->
<g id="edge4" class="edge">
<title>xgboost&#45;&gt;gradient_boosting</title>
<g id="a_edge4"><a xlink:title="10 → 9">
<path fill="none" stroke="#4a4a4a" d="M466.23,-72.76C459.8,-64.27 451.78,-53.68 444.57,-44.15"/>
<polygon fill="#4a4a4a" stroke="#4a4a4a" points="447.32,-41.98 438.49,-36.12 441.74,-46.21 447.32,-41.98"/>
</a>
</g>
</g>
</g>
</svg>
