<?xml version="1.0" encoding="UTF-8" standalone="no"?>
<!DOCTYPE svg PUBLIC "-//W3C//DTD SVG 1.1//EN"
 "http://www.w3.org/Graphics/SVG/1.1/DTD/svg11.dtd">
<!-- Generated by graphviz version 2.43.0 (0)
 -->
<!-- Title: G Pages: 1 -->
<svg width="360pt" height="166pt"
 viewBox="0.00 0.00 360.00 165.98" xmlns="http://www.w3.org/2000/svg" xmlns:xlink="http://www.w3.org/1999/xlink">
<g id="graph0" class="graph" transform="scale(0.64 0.64) rotate(0) translate(4 256)">
<title>G</title>
<!-- gradient_boosting -->
<g id="node1" class="node">
<title>gradient_boosting</title>
<g id="a_node1"><a xlink:title="(5) gradient_boosting">
<ellipse fill="#404040" stroke="#4a4a4a" cx="74.09" cy="-90" rx="74.19" ry="18"/>
<text text-anchor="middle" x="74.09" y="-86.3" font-family="Times,serif" font-size="14.00" fill="white">gradient_boosting</text>
</a>
</g>
</g>
<!-- nu_svm -->
<g id="node2" class="node">
<title>nu_svm</title>
<g id="a_node2"><a xlink:title="(3) nu_svm">
<ellipse fill="#404040" stroke="#4a4a4a" cx="472.09" cy="-162" rx="38.99" ry="18"/>
<text text-anchor="middle" x="472.09" y="-158.3" font-family="Times,serif" font-size="14.00" fill="white">nu_svm</text>
</a>
</g>
</g>
<!-- no_feature_selection -->
<g id="node6" class="node">
<title>no_feature_selection</title>
<g id="a_node6"><a xlink:title="(2) no_feature_selection">
<ellipse fill="#404040" stroke="#4a4a4a" cx="472.09" cy="-90" rx="83.69" ry="18"/>
<text text-anchor="middle" x="472.09" y="-86.3" font-family="Times,serif" font-size="14.00" fill="white">no_feature_selection</text>
</a>
</g>
</g>
<!-- nu_svm&#45;&gt;no_feature_selection -->
<g id="edge9" class="edge">
<title>nu_svm&#45;&gt;no_feature_selection</title>
<g id="a_edge9"><a xlink:title="3 → 2">
<path fill="none" stroke="#4a4a4a" d="M472.09,-143.7C472.09,-135.98 472.09,-126.71 472.09,-118.11"/>
<polygon fill="#4a4a4a" stroke="#4a4a4a" points="475.59,-118.1 472.09,-108.1 468.59,-118.1 475.59,-118.1"/>
</a>
</g>
</g>
<!-- select_rfe -->
<g id="node3" class="node">
<title>select_rfe</title>
<g id="a_node3"><a xlink:title="(1) select_rfe">
<ellipse fill="#404040" stroke="#4a4a4a" cx="324.09" cy="-18" rx="44.69" ry="18"/>
<text text-anchor="middle" x="324.09" y="-14.3" font-family="Times,serif" font-size="14.00" fill="white">select_rfe</text>
</a>
</g>
</g>
<!-- General_Descriptors -->
<g id="node4" class="node">
<title>General_Descriptors</title>
<g id="a_node4"><a xlink:title="(4) General_Descriptors">
<ellipse fill="#404040" stroke="#4a4a4a" cx="287.09" cy="-90" rx="83.39" ry="18"/>
<text text-anchor="middle" x="287.09" y="-86.3" font-family="Times,serif" font-size="14.00" fill="white">General_Descriptors</text>
</a>
</g>
</g>
<!-- neural_networks -->
<g id="node5" class="node">
<title>neural_networks</title>
<g id="a_node5"><a xlink:title="(6) neural_networks">
<ellipse fill="#404040" stroke="#4a4a4a" cx="74.09" cy="-234" rx="69.59" ry="18"/>
<text text-anchor="middle" x="74.09" y="-230.3" font-family="Times,serif" font-size="14.00" fill="white">neural_networks</text>
</a>
</g>
</g>
<!-- neural_networks&#45;&gt;gradient_boosting -->
<g id="edge4" class="edge">
<title>neural_networks&#45;&gt;gradient_boosting</title>
<g id="a_edge4"><a xlink:title="6 → 5">
<path fill="none" stroke="#4a4a4a" d="M74.09,-215.87C74.09,-191.67 74.09,-147.21 74.09,-118.39"/>
<polygon fill="#4a4a4a" stroke="#4a4a4a" points="77.59,-118.19 74.09,-108.19 70.59,-118.19 77.59,-118.19"/>
</a>
</g>
</g>
<!-- class -->
<g id="node8" class="node">
<title>class</title>
<g id="a_node8"><a xlink:title="(0) class">
<ellipse fill="#404040" stroke="#4a4a4a" cx="201.09" cy="-162" rx="27.9" ry="18"/>
<text text-anchor="middle" x="201.09" y="-158.3" font-family="Times,serif" font-size="14.00" fill="white">class</text>
</a>
</g>
</g>
<!-- neural_networks&#45;&gt;class -->
<g id="edge8" class="edge">
<title>neural_networks&#45;&gt;class</title>
<g id="a_edge8"><a xlink:title="6 → 0">
<path fill="none" stroke="#4a4a4a" d="M102.28,-217.46C122.9,-206.1 150.82,-190.71 171.71,-179.19"/>
<polygon fill="#4a4a4a" stroke="#4a4a4a" points="173.42,-182.25 180.49,-174.36 170.04,-176.12 173.42,-182.25"/>
</a>
</g>
</g>
<!-- no_feature_selection&#45;&gt;select_rfe -->
<g id="edge3" class="edge">
<title>no_feature_selection&#45;&gt;select_rfe</title>
<g id="a_edge3"><a xlink:title="2 → 1">
<path fill="none" stroke="#4a4a4a" d="M438.88,-73.29C415.86,-62.4 385.17,-47.89 361.32,-36.61"/>
<polygon fill="#4a4a4a" stroke="#4a4a4a" points="362.76,-33.42 352.22,-32.3 359.76,-39.74 362.76,-33.42"/>
</a>
</g>
</g>
<!-- standard_scaler -->
<g id="node7" class="node">
<title>standard_scaler</title>
<g id="a_node7"><a xlink:title="(7) standard_scaler">
<ellipse fill="#404040" stroke="#4a4a4a" cx="227.09" cy="-234" rx="65.79" ry="18"/>
<text text-anchor="middle" x="227.09" y="-230.3" font-family="Times,serif" font-size="14.00" fill="white">standard_scaler</text>
</a>
</g>
</g>
<!-- standard_scaler&#45;&gt;class -->
<g id="edge5" class="edge">
<title>standard_scaler&#45;&gt;class</title>
<g id="a_edge5"><a xlink:title="7 → 0">
<path fill="none" stroke="#4a4a4a" d="M220.8,-216.05C217.83,-208.06 214.22,-198.33 210.9,-189.4"/>
<polygon fill="#4a4a4a" stroke="#4a4a4a" points="214.09,-187.94 207.33,-179.79 207.53,-190.38 214.09,-187.94"/>
</a>
</g>
</g>
<!-- class&#45;&gt;gradient_boosting -->
<g id="edge7" class="edge">
<title>class&#45;&gt;gradient_boosting</title>
<g id="a_edge7"><a xlink:title="0 → 5">
<path fill="none" stroke="#4a4a4a" d="M180.41,-149.6C161.87,-139.38 134.23,-124.15 111.78,-111.77"/>
<polygon fill="#4a4a4a" stroke="#4a4a4a" points="113.28,-108.6 102.83,-106.84 109.9,-114.73 113.28,-108.6"/>
</a>
</g>
</g>
<!-- class&#45;&gt;select_rfe -->
<g id="edge1" class="edge">
<title>class&#45;&gt;select_rfe</title>
<g id="a_edge1"><a xlink:title="0 → 1">
<path fill="none" stroke="#4a4a4a" d="M194.32,-144.34C187.72,-125.19 180.61,-93.61 195.09,-72 212.2,-46.47 244.05,-33.23 271.82,-26.37"/>
<polygon fill="#4a4a4a" stroke="#4a4a4a" points="272.85,-29.72 281.83,-24.12 271.31,-22.89 272.85,-29.72"/>
</a>
</g>
</g>
<!-- class&#45;&gt;General_Descriptors -->
<g id="edge2" class="edge">
<title>class&#45;&gt;General_Descriptors</title>
<g id="a_edge2"><a xlink:title="0 → 4">
<path fill="none" stroke="#4a4a4a" d="M217.68,-147.5C229.24,-138.09 244.95,-125.3 258.51,-114.26"/>
<polygon fill="#4a4a4a" stroke="#4a4a4a" points="261.07,-116.69 266.62,-107.67 256.65,-111.26 261.07,-116.69"/>
</a>
</g>
</g>
<!-- class&#45;&gt;no_feature_selection -->
<g id="edge6" class="edge">
<title>class&#45;&gt;no_feature_selection</title>
<g id="a_edge6"><a xlink:title="0 → 2">
<path fill="none" stroke="#4a4a4a" d="M226.59,-154.41C268.44,-143.6 352.85,-121.8 410.9,-106.81"/>
<polygon fill="#4a4a4a" stroke="#4a4a4a" points="411.9,-110.16 420.7,-104.27 410.14,-103.39 411.9,-110.16"/>
</a>
</g>
</g>
</g>
</svg>
