<?xml version="1.0" encoding="UTF-8" standalone="no"?>
<!DOCTYPE svg PUBLIC "-//W3C//DTD SVG 1.1//EN"
 "http://www.w3.org/Graphics/SVG/1.1/DTD/svg11.dtd">
<!-- Generated by graphviz version 2.43.0 (0)
 -->
<!-- Title: G Pages: 1 -->
<svg width="360pt" height="162pt"
 viewBox="0.00 0.00 360.00 161.78" xmlns="http://www.w3.org/2000/svg" xmlns:xlink="http://www.w3.org/1999/xlink">
<g id="graph0" class="graph" transform="scale(0.4 0.4) rotate(0) translate(4 400)">
<title>G</title>
<!-- svm -->
<g id="node1" class="node">
<title>svm</title>
<g id="a_node1"><a xlink:title="(8) svm">
<ellipse fill="#404040" stroke="#4a4a4a" cx="508.19" cy="-234" rx="27" ry="18"/>
<text text-anchor="middle" x="508.19" y="-230.3" font-family="Times,serif" font-size="14.00" fill="white">svm</text>
</a>
</g>
</g>
<!-- neural_networks -->
<g id="node10" class="node">
<title>neural_networks</title>
<g id="a_node10"><a xlink:title="(7) neural_networks">
<ellipse fill="#404040" stroke="#4a4a4a" cx="557.19" cy="-162" rx="69.59" ry="18"/>
<text text-anchor="middle" x="557.19" y="-158.3" font-family="Times,serif" font-size="14.00" fill="white">neural_networks</text>
</a>
</g>
</g>
<!-- svm&#45;&gt;neural_networks -->
<g id="edge16" class="edge">
<title>svm&#45;&gt;neural_networks</title>
<g id="a_edge16"><a xlink:title="8 → 7">
<path fill="none" stroke="#4a4a4a" d="M519.07,-217.46C525.09,-208.87 532.71,-197.97 539.56,-188.19"/>
<polygon fill="#4a4a4a" stroke="#4a4a4a" points="542.45,-190.16 545.32,-179.96 536.72,-186.15 542.45,-190.16"/>
</a>
</g>
</g>
<!-- Toxicophores -->
<g id="node2" class="node">
<title>Toxicophores</title>
<g id="a_node2"><a xlink:title="(2) Toxicophores">
<ellipse fill="#404040" stroke="#4a4a4a" cx="83.19" cy="-306" rx="59.29" ry="18"/>
<text text-anchor="middle" x="83.19" y="-302.3" font-family="Times,serif" font-size="14.00" fill="white">Toxicophores</text>
</a>
</g>
</g>
<!-- General_Descriptors -->
<g id="node7" class="node">
<title>General_Descriptors</title>
<g id="a_node7"><a xlink:title="(1) General_Descriptors">
<ellipse fill="#404040" stroke="#4a4a4a" cx="83.19" cy="-234" rx="83.39" ry="18"/>
<text text-anchor="middle" x="83.19" y="-230.3" font-family="Times,serif" font-size="14.00" fill="white">General_Descriptors</text>
</a>
</g>
</g>
<!-- Toxicophores&#45;&gt;General_Descriptors -->
<g id="edge11" class="edge">
<title>Toxicophores&#45;&gt;General_Descriptors</title>
<g id="a_edge11"><a xlink:title="2 → 1">
<path fill="none" stroke="#4a4a4a" d="M83.19,-287.7C83.19,-279.98 83.19,-270.71 83.19,-262.11"/>
<polygon fill="#4a4a4a" stroke="#4a4a4a" points="86.69,-262.1 83.19,-252.1 79.69,-262.1 86.69,-262.1"/>
</a>
</g>
</g>
<!-- extra_trees -->
<g id="node3" class="node">
<title>extra_trees</title>
<g id="a_node3"><a xlink:title="(4) extra_trees">
<ellipse fill="#404040" stroke="#4a4a4a" cx="723.19" cy="-90" rx="49.29" ry="18"/>
<text text-anchor="middle" x="723.19" y="-86.3" font-family="Times,serif" font-size="14.00" fill="white">extra_trees</text>
</a>
</g>
</g>
<!-- gradient_boosting -->
<g id="node4" class="node">
<title>gradient_boosting</title>
<g id="a_node4"><a xlink:title="(10) gradient_boosting">
<ellipse fill="#404040" stroke="#4a4a4a" cx="594.19" cy="-18" rx="74.19" ry="18"/>
<text text-anchor="middle" x="594.19" y="-14.3" font-family="Times,serif" font-size="14.00" fill="white">gradient_boosting</text>
</a>
</g>
</g>
<!-- extra_trees&#45;&gt;gradient_boosting -->
<g id="edge15" class="edge">
<title>extra_trees&#45;&gt;gradient_boosting</title>
<g id="a_edge15"><a xlink:title="4 → 10">
<path fill="none" stroke="#4a4a4a" d="M696.78,-74.67C678.16,-64.56 652.94,-50.88 632.16,-39.6"/>
<polygon fill="#4a4a4a" stroke="#4a4a4a" points="633.73,-36.47 623.27,-34.78 630.39,-42.62 633.73,-36.47"/>
</a>
</g>
</g>
<!-- Graph_based_Signatures -->
<g id="node8" class="node">
<title>Graph_based_Signatures</title>
<g id="a_node8"><a xlink:title="(3) Graph_based_Signatures">
<ellipse fill="#404040" stroke="#4a4a4a" cx="792.19" cy="-18" rx="98.58" ry="18"/>
<text text-anchor="middle" x="792.19" y="-14.3" font-family="Times,serif" font-size="14.00" fill="white">Graph_based_Signatures</text>
</a>
</g>
</g>
<!-- extra_trees&#45;&gt;Graph_based_Signatures -->
<g id="edge1" class="edge">
<title>extra_trees&#45;&gt;Graph_based_Signatures</title>
<g id="a_edge1"><a xlink:title="4 → 3">
<path fill="none" stroke="#4a4a4a" d="M739.2,-72.76C747.83,-64.01 758.65,-53.03 768.26,-43.28"/>
<polygon fill="#4a4a4a" stroke="#4a4a4a" points="770.79,-45.7 775.31,-36.12 765.8,-40.79 770.79,-45.7"/>
</a>
</g>
</g>
<!-- decision_tree -->
<g id="node5" class="node">
<title>decision_tree</title>
<g id="a_node5"><a xlink:title="(9) decision_tree">
<ellipse fill="#404040" stroke="#4a4a4a" cx="466.19" cy="-90" rx="57.69" ry="18"/>
<text text-anchor="middle" x="466.19" y="-86.3" font-family="Times,serif" font-size="14.00" fill="white">decision_tree</text>
</a>
</g>
</g>
<!-- select_rfe -->
<g id="node6" class="node">
<title>select_rfe</title>
<g id="a_node6"><a xlink:title="(6) select_rfe">
<ellipse fill="#404040" stroke="#4a4a4a" cx="306.19" cy="-162" rx="44.69" ry="18"/>
<text text-anchor="middle" x="306.19" y="-158.3" font-family="Times,serif" font-size="14.00" fill="white">select_rfe</text>
</a>
</g>
</g>
<!-- no_feature_selection -->
<g id="node11" class="node">
<title>no_feature_selection</title>
<g id="a_node11"><a xlink:title="(5) no_feature_selection">
<ellipse fill="#404040" stroke="#4a4a4a" cx="306.19" cy="-90" rx="83.69" ry="18"/>
<text text-anchor="middle" x="306.19" y="-86.3" font-family="Times,serif" font-size="14.00" fill="white">no_feature_selection</text>
</a>
</g>
</g>
<!-- select_rfe&#45;&gt;no_feature_selection -->
<g id="edge5" class="edge">
<title>select_rfe&#45;&gt;no_feature_selection</title>
<g id="a_edge5"><a xlink:title="6 → 5">
<path fill="none" stroke="#4a4a4a" d="M306.19,-143.7C306.19,-135.98 306.19,-126.71 306.19,-118.11"/>
<polygon fill="#4a4a4a" stroke="#4a4a4a" points="309.69,-118.1 306.19,-108.1 302.69,-118.1 309.69,-118.1"/>
</a>
</g>
</g>
<!-- normalizer -->
<g id="node9" class="node">
<title>normalizer</title>
<g id="a_node9"><a xlink:title="(12) normalizer">
<ellipse fill="#404040" stroke="#4a4a4a" cx="480.19" cy="-378" rx="49.29" ry="18"/>
<text text-anchor="middle" x="480.19" y="-374.3" font-family="Times,serif" font-size="14.00" fill="white">normalizer</text>
</a>
</g>
</g>
<!-- class -->
<g id="node12" class="node">
<title>class</title>
<g id="a_node12"><a xlink:title="(0) class">
<ellipse fill="#404040" stroke="#4a4a4a" cx="480.19" cy="-306" rx="27.9" ry="18"/>
<text text-anchor="middle" x="480.19" y="-302.3" font-family="Times,serif" font-size="14.00" fill="white">class</text>
</a>
</g>
</g>
<!-- normalizer&#45;&gt;class -->
<g id="edge7" class="edge">
<title>normalizer&#45;&gt;class</title>
<g id="a_edge7"><a xlink:title="12 → 0">
<path fill="none" stroke="#4a4a4a" d="M480.19,-359.7C480.19,-351.98 480.19,-342.71 480.19,-334.11"/>
<polygon fill="#4a4a4a" stroke="#4a4a4a" points="483.69,-334.1 480.19,-324.1 476.69,-334.1 483.69,-334.1"/>
</a>
</g>
</g>
<!-- neural_networks&#45;&gt;extra_trees -->
<g id="edge4" class="edge">
<title>neural_networks&#45;&gt;extra_trees</title>
<g id="a_edge4"><a xlink:title="7 → 4">
<path fill="none" stroke="#4a4a4a" d="M591.99,-146.33C618.44,-135.17 654.88,-119.81 682.65,-108.1"/>
<polygon fill="#4a4a4a" stroke="#4a4a4a" points="684.22,-111.23 692.08,-104.12 681.5,-104.78 684.22,-111.23"/>
</a>
</g>
</g>
<!-- neural_networks&#45;&gt;gradient_boosting -->
<g id="edge6" class="edge">
<title>neural_networks&#45;&gt;gradient_boosting</title>
<g id="a_edge6"><a xlink:title="7 → 10">
<path fill="none" stroke="#4a4a4a" d="M588.58,-145.89C603.16,-137.05 619.05,-124.38 627.19,-108 637.53,-87.2 626.49,-62.33 614.47,-44.17"/>
<polygon fill="#4a4a4a" stroke="#4a4a4a" points="617.21,-41.99 608.58,-35.85 611.49,-46.03 617.21,-41.99"/>
</a>
</g>
</g>
<!-- neural_networks&#45;&gt;decision_tree -->
<g id="edge14" class="edge">
<title>neural_networks&#45;&gt;decision_tree</title>
<g id="a_edge14"><a xlink:title="7 → 9">
<path fill="none" stroke="#4a4a4a" d="M536.09,-144.76C523.83,-135.33 508.21,-123.32 494.85,-113.04"/>
<polygon fill="#4a4a4a" stroke="#4a4a4a" points="496.93,-110.23 486.87,-106.91 492.66,-115.78 496.93,-110.23"/>
</a>
</g>
</g>
<!-- neural_networks&#45;&gt;no_feature_selection -->
<g id="edge19" class="edge">
<title>neural_networks&#45;&gt;no_feature_selection</title>
<g id="a_edge19"><a xlink:title="7 → 5">
<path fill="none" stroke="#4a4a4a" d="M511.74,-148.32C470.63,-136.86 409.85,-119.91 365.05,-107.41"/>
<polygon fill="#4a4a4a" stroke="#4a4a4a" points="365.74,-103.97 355.17,-104.66 363.86,-110.72 365.74,-103.97"/>
</a>
</g>
</g>
<!-- class&#45;&gt;svm -->
<g id="edge3" class="edge">
<title>class&#45;&gt;svm</title>
<g id="a_edge3"><a xlink:title="0 → 8">
<path fill="none" stroke="#4a4a4a" d="M486.83,-288.41C490.11,-280.22 494.14,-270.14 497.81,-260.95"/>
<polygon fill="#4a4a4a" stroke="#4a4a4a" points="501.14,-262.05 501.6,-251.47 494.64,-259.45 501.14,-262.05"/>
</a>
</g>
</g>
<!-- class&#45;&gt;extra_trees -->
<g id="edge10" class="edge">
<title>class&#45;&gt;extra_trees</title>
<g id="a_edge10"><a xlink:title="0 → 4">
<path fill="none" stroke="#4a4a4a" d="M500.73,-293.77C518.28,-283.77 543.85,-268.25 564.19,-252 618.52,-208.6 673.73,-148.25 702.63,-115.13"/>
<polygon fill="#4a4a4a" stroke="#4a4a4a" points="705.49,-117.18 709.4,-107.33 700.2,-112.59 705.49,-117.18"/>
</a>
</g>
</g>
<!-- class&#45;&gt;gradient_boosting -->
<g id="edge12" class="edge">
<title>class&#45;&gt;gradient_boosting</title>
<g id="a_edge12"><a xlink:title="0 → 10">
<path fill="none" stroke="#4a4a4a" d="M456,-296.96C375.43,-268.97 126.04,-172.12 213.19,-72 250.87,-28.72 409.65,-19.66 509.96,-18.39"/>
<polygon fill="#4a4a4a" stroke="#4a4a4a" points="510.12,-21.88 520.09,-18.28 510.05,-14.88 510.12,-21.88"/>
</a>
</g>
</g>
<!-- class&#45;&gt;decision_tree -->
<g id="edge18" class="edge">
<title>class&#45;&gt;decision_tree</title>
<g id="a_edge18"><a xlink:title="0 → 9">
<path fill="none" stroke="#4a4a4a" d="M477.11,-287.87C475.37,-277.52 473.32,-264.04 472.19,-252 467.82,-205.42 466.6,-150.97 466.28,-118.82"/>
<polygon fill="#4a4a4a" stroke="#4a4a4a" points="469.78,-118.41 466.2,-108.43 462.78,-118.46 469.78,-118.41"/>
</a>
</g>
</g>
<!-- class&#45;&gt;General_Descriptors -->
<g id="edge8" class="edge">
<title>class&#45;&gt;General_Descriptors</title>
<g id="a_edge8"><a xlink:title="0 → 1">
<path fill="none" stroke="#4a4a4a" d="M453.53,-300.3C393.35,-289.69 245.26,-263.58 155.64,-247.77"/>
<polygon fill="#4a4a4a" stroke="#4a4a4a" points="156.01,-244.28 145.55,-246 154.79,-251.18 156.01,-244.28"/>
</a>
</g>
</g>
<!-- class&#45;&gt;Graph_based_Signatures -->
<g id="edge17" class="edge">
<title>class&#45;&gt;Graph_based_Signatures</title>
<g id="a_edge17"><a xlink:title="0 → 3">
<path fill="none" stroke="#4a4a4a" d="M505.12,-297.52C565.44,-277.92 718.9,-218.78 781.19,-108 791.72,-89.28 794.09,-64.9 794.05,-46.39"/>
<polygon fill="#4a4a4a" stroke="#4a4a4a" points="797.54,-46.16 793.78,-36.25 790.55,-46.34 797.54,-46.16"/>
</a>
</g>
</g>
<!-- class&#45;&gt;neural_networks -->
<g id="edge9" class="edge">
<title>class&#45;&gt;neural_networks</title>
<g id="a_edge9"><a xlink:title="0 → 7">
<path fill="none" stroke="#4a4a4a" d="M500.68,-293.65C515.3,-284.41 534.08,-269.98 544.19,-252 554.75,-233.22 557.7,-208.85 558.18,-190.35"/>
<polygon fill="#4a4a4a" stroke="#4a4a4a" points="561.68,-190.24 558.22,-180.23 554.68,-190.22 561.68,-190.24"/>
</a>
</g>
</g>
<!-- class&#45;&gt;no_feature_selection -->
<g id="edge2" class="edge">
<title>class&#45;&gt;no_feature_selection</title>
<g id="a_edge2"><a xlink:title="0 → 5">
<path fill="none" stroke="#4a4a4a" d="M469.7,-289.3C449.7,-259.78 404.21,-194.43 360.19,-144 351.55,-134.1 341.42,-123.85 332.29,-115.03"/>
<polygon fill="#4a4a4a" stroke="#4a4a4a" points="334.56,-112.36 324.9,-108 329.73,-117.43 334.56,-112.36"/>
</a>
</g>
</g>
<!-- xgboost -->
<g id="node13" class="node">
<title>xgboost</title>
<g id="a_node13"><a xlink:title="(11) xgboost">
<ellipse fill="#404040" stroke="#4a4a4a" cx="580.19" cy="-90" rx="38.19" ry="18"/>
<text text-anchor="middle" x="580.19" y="-86.3" font-family="Times,serif" font-size="14.00" fill="white">xgboost</text>
</a>
</g>
</g>
<!-- xgboost&#45;&gt;gradient_boosting -->
<g id="edge13" class="edge">
<title>xgboost&#45;&gt;gradient_boosting</title>
<g id="a_edge13"><a xlink:title="11 → 10">
<path fill="none" stroke="#4a4a4a" d="M583.58,-72.05C585.12,-64.35 586.99,-55.03 588.72,-46.36"/>
<polygon fill="#4a4a4a" stroke="#4a4a4a" points="592.21,-46.77 590.74,-36.28 585.34,-45.39 592.21,-46.77"/>
</a>
</g>
</g>
</g>
</svg>
